<?xml version="1.0" encoding="UTF-8" standalone="no"?><!DOCTYPE svg PUBLIC "-//W3C//DTD SVG 1.1//EN" "http://www.w3.org/Graphics/SVG/1.1/DTD/svg11.dtd"><svg width="100%" height="100%" viewBox="0 0 128 128" version="1.1" xmlns="http://www.w3.org/2000/svg" xmlns:xlink="http://www.w3.org/1999/xlink" xml:space="preserve" xmlns:serif="http://www.serif.com/" style="fill-rule:evenodd;clip-rule:evenodd;stroke-linejoin:round;stroke-miterlimit:2;"><rect x="0" y="0" width="128" height="128" style="fill:#292524;"/><g><path d="M93.4,87.4l0,7.7c0,1.104 -0.896,2 -2,2l-54.7,0c-1.104,0 -2,-0.896 -2,-2l0,-7.7c0,-1.104 0.896,-2 2,-2l54.7,0c1.104,0 2,0.896 2,2Z" style="fill:#22c55e;"/><path d="M91.7,53.1c0.9,0 1.6,0.8 1.6,1.7c-0.9,15.5 -13.6,27.7 -29.3,27.7c-15.7,0 -29.3,-12.2 -29.3,-27.7c0,-0.9 0.7,-1.7 1.6,-1.7l55.5,0l-0.1,0Z" style="fill:#22c55e;fill-rule:nonzero;"/><circle cx="64" cy="40.5" r="9.7" style="fill:#22c55e;"/></g></svg>