<?xml version="1.0" encoding="UTF-8" standalone="no"?>
<!DOCTYPE svg PUBLIC "-//W3C//DTD SVG 1.1//EN" "http://www.w3.org/Graphics/SVG/1.1/DTD/svg11.dtd">
<svg width="100%" height="100%" viewBox="0 0 128 128" version="1.1" xmlns="http://www.w3.org/2000/svg" xmlns:xlink="http://www.w3.org/1999/xlink" xml:space="preserve" xmlns:serif="http://www.serif.com/" style="fill-rule:evenodd;clip-rule:evenodd;stroke-linejoin:round;stroke-miterlimit:2;">
    <g transform="matrix(1.596491,0,0,1.596491,-38.205255,-38.145606)">
        <path d="M93.4,86.653L93.4,95.847C93.4,96.539 92.839,97.1 92.147,97.1L35.953,97.1C35.261,97.1 34.7,96.539 34.7,95.847L34.7,86.653C34.7,85.961 35.261,85.4 35.953,85.4L92.147,85.4C92.839,85.4 93.4,85.961 93.4,86.653Z" style="fill:rgb(34,197,94);"/>
        <path d="M91.7,53.1C92.6,53.1 93.3,53.9 93.3,54.8C92.4,70.3 79.7,82.5 64,82.5C48.3,82.5 34.7,70.3 34.7,54.8C34.7,53.9 35.4,53.1 36.3,53.1L91.8,53.1L91.7,53.1Z" style="fill:rgb(34,197,94);fill-rule:nonzero;"/>
        <circle cx="64" cy="40.5" r="9.7" style="fill:rgb(34,197,94);"/>
    </g>
</svg>
