<svg version="1.1" xmlns="http://www.w3.org/2000/svg" xmlns:xlink="http://www.w3.org/1999/xlink" width="1280" height="1280" viewBox="0 0 1280 1280">
  
            <path stroke="none" fill="#000000" fill-rule="evenodd" d="M493.00,1230.92C292.28,1227.16 159.87,1217.73 148.55,1206.40C141.78,1199.64 158.05,1194.48 200.27,1190.00C223.02,1187.58 267.87,1184.32 291.00,1183.39C300.62,1183.01 309.39,1182.65 310.49,1182.60C311.95,1182.53 314.12,1179.51 318.70,1171.19C326.21,1157.53 330.17,1152.01 337.18,1145.42C342.27,1140.63 342.95,1140.32 353.00,1138.21C361.09,1136.51 397.11,1131.07 400.84,1130.98C404.47,1130.90 403.51,1128.26 388.41,1096.93C360.27,1038.52 344.97,1005.84 343.07,1000.12C340.59,992.66 339.61,980.02 340.89,972.12C344.78,948.25 372.86,917.03 411.79,893.32C435.15,879.09 462.34,867.24 521.75,845.40C524.42,844.42 526.00,843.21 526.01,842.17C526.01,841.25 524.18,829.48 521.94,816.00C517.91,791.76 517.81,791.38 512.46,780.42C500.30,755.50 491.21,727.13 485.52,696.34C484.14,688.82 483.00,681.43 483.00,679.91C483.00,677.91 482.09,676.51 479.75,674.88C464.97,664.63 434.31,634.13 418.53,614.00C409.20,602.10 396.18,582.94 390.27,572.41C382.59,558.74 379.86,552.22 377.19,541.16C375.71,535.02 374.09,530.00 373.59,530.00C373.09,530.00 369.14,532.07 364.82,534.61C357.26,539.03 356.42,539.28 342.73,541.04C334.90,542.04 320.31,544.02 310.29,545.43C300.28,546.84 290.09,548.00 287.65,548.00C281.75,548.00 261.26,540.91 252.88,535.97C223.75,518.79 200.18,491.87 182.44,455.50C148.37,385.61 146.17,294.83 176.98,229.37C186.22,209.73 201.39,189.87 215.31,179.16C218.17,176.96 223.88,173.36 228.00,171.16C234.77,167.54 236.96,166.94 250.50,165.03C258.75,163.87 273.82,161.53 284.00,159.84C305.49,156.26 312.30,156.37 324.55,160.48C349.34,168.81 372.79,192.45 392.01,228.52C396.60,237.12 404.66,256.37 407.44,265.35C408.98,270.32 409.76,271.42 412.59,272.60C417.32,274.58 420.22,274.36 427.00,271.50C431.23,269.72 434.77,269.00 439.28,269.00C444.86,269.00 446.40,269.46 452.06,272.85C455.60,274.97 459.65,276.98 461.06,277.32C469.02,279.25 477.09,290.29 479.17,302.09L480.25,308.22L485.38,307.51C488.19,307.12 493.37,306.44 496.87,305.98C500.37,305.53 503.63,304.77 504.10,304.30C504.59,303.81 503.39,301.08 501.33,298.03C487.77,277.89 480.31,247.89 482.91,223.95C484.51,209.13 486.47,201.95 492.08,190.29C496.02,182.11 498.36,178.71 503.78,173.29C514.95,162.10 522.58,156.00 525.40,156.00C528.69,156.00 531.42,159.99 530.71,163.75C530.42,165.26 529.42,170.42 528.47,175.21C526.10,187.24 527.00,194.20 531.50,198.70C534.31,201.51 535.50,202.00 539.58,202.00C546.77,202.00 551.76,198.99 564.24,187.12C585.02,167.35 595.88,162.22 607.94,166.48C610.25,167.29 613.41,168.87 614.97,169.98C620.04,173.59 621.01,172.89 627.50,160.94C634.43,148.17 644.22,134.74 650.87,128.87C659.83,120.97 672.74,116.00 684.29,116.00C701.26,116.00 720.28,125.47 733.99,140.74C739.91,147.33 751.85,164.78 755.65,172.37C759.90,180.85 765.50,187.58 770.19,189.83C772.56,190.96 779.67,193.07 786.00,194.52C802.18,198.22 811.00,202.11 817.41,208.38C827.65,218.40 831.00,229.76 832.54,259.75C833.17,271.93 833.38,273.00 835.15,273.00C838.49,273.00 856.48,270.86 856.93,270.40C857.17,270.17 857.72,267.03 858.15,263.43C859.26,254.17 863.29,245.83 869.19,240.52C875.18,235.14 879.43,233.65 887.19,234.21C892.04,234.56 894.04,234.20 897.76,232.32C903.20,229.57 908.74,229.36 915.20,231.68C918.99,233.03 920.41,233.13 922.47,232.20C925.89,230.64 926.42,228.96 928.92,211.81C931.20,196.13 936.98,173.59 942.07,160.50C955.72,125.39 976.61,97.37 999.17,83.86C1009.24,77.83 1014.28,76.31 1030.05,74.51C1038.00,73.61 1050.49,72.00 1057.80,70.94C1080.07,67.70 1091.14,68.69 1107.58,75.39C1123.32,81.81 1141.94,97.07 1156.53,115.50C1170.05,132.58 1184.22,160.69 1193.34,188.50C1195.87,196.20 1198.22,203.85 1198.57,205.50C1198.93,207.15 1199.84,210.75 1200.61,213.50L1202.00,218.50L1208.25,218.52C1216.28,218.54 1221.46,221.38 1226.90,228.71C1234.35,238.77 1237.55,250.95 1236.69,266.00C1235.55,285.96 1228.52,297.06 1215.27,299.80L1211.50,300.58L1210.86,314.04C1209.42,344.53 1201.66,381.10 1190.88,408.27C1178.82,438.65 1160.95,463.83 1141.84,477.34C1138.18,479.92 1131.21,483.91 1126.34,486.20C1118.16,490.04 1116.31,490.49 1101.50,492.17C1092.70,493.17 1077.76,494.67 1068.30,495.50C1052.72,496.87 1050.65,496.86 1046.30,495.43C1038.77,492.95 1024.23,485.62 1015.87,480.09C1007.33,474.44 989.88,458.32 985.56,452.08C984.00,449.84 982.35,448.00 981.89,448.00C981.43,448.00 980.39,450.36 979.58,453.25C978.76,456.14 976.03,465.93 973.50,475.00C970.97,484.07 966.16,499.81 962.80,509.97C957.03,527.41 956.23,529.12 948.56,540.47C926.75,572.74 899.74,602.72 869.82,627.85C864.49,632.32 859.87,636.40 859.56,636.91C859.24,637.42 858.30,641.81 857.46,646.67C851.42,681.65 840.02,718.50 823.94,755.00L817.11,770.50L821.94,801.50C828.15,841.34 830.83,856.09 832.14,857.67C832.72,858.37 837.77,861.19 843.35,863.94C857.22,870.76 866.56,876.31 886.50,889.57C917.27,910.02 930.98,924.29 946.50,952.00L951.26,960.50L952.17,985.50C952.67,999.25 952.95,1035.23 952.79,1065.46L952.50,1120.42L959.50,1121.74C981.43,1125.87 993.57,1128.42 1002.28,1130.72C1011.79,1133.23 1012.22,1133.47 1017.57,1139.25C1024.17,1146.38 1029.37,1156.38 1034.88,1172.52L1038.96,1184.50L1047.73,1185.24C1102.53,1189.84 1130.11,1193.86 1141.50,1198.90C1145.59,1200.71 1146.10,1201.27 1145.82,1203.72C1145.18,1209.29 1129.77,1213.14 1091.00,1217.45C1001.12,1227.42 854.10,1232.15 643.25,1231.84C582.89,1231.75 515.27,1231.34 493.00,1230.92ZM893.46,1208.65C895.58,1207.10 894.96,1205.48 891.95,1204.70C889.69,1204.11 888.40,1205.99 889.36,1208.50C890.07,1210.35 891.08,1210.39 893.46,1208.65ZM482.00,1203.00C482.00,1201.90 481.40,1201.00 480.67,1201.00C478.79,1201.00 478.05,1201.96 478.68,1203.60C479.49,1205.72 482.00,1205.27 482.00,1203.00ZM999.90,1185.60C1004.51,1184.74 1008.52,1183.81 1008.80,1183.53C1010.01,1182.32 1002.84,1169.00 1000.98,1169.00C1000.49,1169.00 999.79,1170.61 999.42,1172.57C998.30,1178.55 993.21,1181.11 980.22,1182.23C970.17,1183.10 945.47,1182.77 917.24,1181.39C910.50,1181.06 903.75,1181.11 902.24,1181.51C899.65,1182.19 899.80,1182.34 905.00,1184.19C913.34,1187.15 925.46,1187.88 960.00,1187.50C982.97,1187.25 993.77,1186.73 999.90,1185.60ZM447.50,1184.63C458.71,1182.80 462.35,1181.55 461.74,1179.74C461.22,1178.22 453.83,1178.20 445.50,1179.71C438.85,1180.91 420.77,1181.50 390.50,1181.50C375.57,1181.50 369.61,1181.14 367.00,1180.09C362.15,1178.13 360.22,1176.28 359.48,1172.90C359.13,1171.30 358.45,1170.00 357.97,1170.00C356.99,1170.00 347.00,1182.04 347.00,1183.22C347.00,1184.11 349.35,1184.69 358.00,1185.92C369.05,1187.49 435.83,1186.53 447.50,1184.63ZM888.33,1181.35C893.60,1180.47 891.04,1179.05 884.00,1178.95C880.98,1178.90 874.50,1178.30 869.61,1177.61C859.70,1176.20 858.08,1175.02 857.88,1169.06C857.82,1167.10 857.46,1164.15 857.10,1162.50L856.44,1159.50L854.81,1162.00C852.81,1165.07 850.46,1172.07 849.53,1177.75L848.82,1182.00L866.66,1181.99C876.47,1181.98 886.22,1181.69 888.33,1181.35ZM820.61,1165.93C821.25,1160.12 822.50,1151.86 823.39,1147.57C824.28,1143.29 825.00,1138.86 825.00,1137.74C825.00,1136.61 817.63,1122.37 808.63,1106.10C799.62,1089.82 791.32,1074.66 790.19,1072.42L788.13,1068.33L791.50,1053.42C793.36,1045.21 795.99,1034.22 797.34,1029.00C798.69,1023.77 799.50,1019.24 799.15,1018.93C798.79,1018.61 787.02,1015.51 773.00,1012.02C758.98,1008.53 735.80,1002.57 721.50,998.78C688.57,990.03 683.85,989.06 671.01,988.33C651.89,987.25 640.08,989.70 611.63,1000.65C581.07,1012.42 559.63,1019.35 537.88,1024.48C531.49,1025.99 525.69,1027.58 524.98,1028.01C524.02,1028.60 525.10,1031.06 529.20,1037.65C540.56,1055.89 540.83,1056.56 541.90,1068.56C542.44,1074.58 543.42,1088.48 544.08,1099.45C544.74,1110.42 545.55,1120.32 545.89,1121.45C546.23,1122.58 549.08,1128.27 552.24,1134.09C557.85,1144.44 558.04,1145.03 560.26,1159.90L562.54,1175.13L666.02,1175.15C722.93,1175.17 778.95,1175.52 790.50,1175.94C802.05,1176.36 813.29,1176.65 815.47,1176.60L819.45,1176.50L820.61,1165.93ZM531.76,1173.57C532.03,1173.30 531.70,1169.51 531.02,1165.14C529.97,1158.38 529.24,1156.56 526.11,1152.85C521.33,1147.19 519.86,1146.87 521.18,1151.78C521.73,1153.83 522.59,1155.93 523.09,1156.45C524.12,1157.52 524.28,1163.37 523.37,1166.74C522.96,1168.27 521.61,1169.28 519.14,1169.93C506.41,1173.22 506.32,1173.25 509.00,1174.13C511.54,1174.95 530.85,1174.48 531.76,1173.57ZM962.05,1170.50C980.08,1168.94 999.99,1166.35 1000.91,1165.43C1002.00,1164.33 999.15,1161.40 994.42,1158.76C981.85,1151.74 962.31,1148.35 939.85,1149.29C923.19,1149.99 915.31,1151.74 904.60,1157.12C896.39,1161.25 896.12,1161.31 893.59,1159.65C889.68,1157.09 889.98,1151.77 894.25,1147.74C897.69,1144.50 910.61,1138.01 913.68,1137.98C917.54,1137.95 918.16,1136.46 919.20,1124.59C919.77,1118.16 920.00,1112.67 919.72,1112.39C919.44,1112.11 915.88,1112.56 911.81,1113.40C888.20,1118.28 867.27,1118.10 846.21,1112.83C841.65,1111.69 837.67,1111.00 837.37,1111.30C836.52,1112.15 837.74,1115.20 840.95,1120.26C843.66,1124.53 844.44,1125.04 851.19,1126.98C862.22,1130.15 862.61,1130.40 864.57,1135.68C865.56,1138.33 868.43,1145.67 870.96,1152.00L875.56,1163.50L883.84,1165.68C891.29,1167.64 910.19,1170.43 922.00,1171.31C933.14,1172.15 945.90,1171.89 962.05,1170.50ZM451.78,1166.04C457.43,1164.89 465.62,1162.82 469.99,1161.44C477.59,1159.04 477.97,1158.78 478.94,1155.22C479.49,1153.17 481.84,1144.53 484.14,1136.00C486.45,1127.47 488.82,1119.97 489.42,1119.32C490.01,1118.67 495.27,1115.63 501.11,1112.57L511.71,1107.00L512.27,1115.11C512.94,1124.86 515.00,1128.38 515.00,1119.77C515.00,1116.67 514.54,1112.92 513.98,1111.44C513.26,1109.55 513.30,1107.81 514.13,1105.52C514.96,1103.21 515.04,1099.92 514.40,1094.15L513.50,1086.03L505.50,1090.82C501.10,1093.46 495.25,1096.56 492.50,1097.73C478.01,1103.85 453.16,1107.04 435.73,1105.02C430.27,1104.38 425.54,1104.13 425.21,1104.45C424.89,1104.78 426.71,1109.26 429.27,1114.40C433.22,1122.36 434.57,1124.14 438.27,1126.31C440.66,1127.71 444.53,1130.93 446.87,1133.47C451.94,1138.97 452.32,1143.42 447.92,1145.88C445.58,1147.18 444.91,1147.10 440.55,1144.92L435.74,1142.52L433.12,1146.01C427.41,1153.61 425.18,1155.29 421.71,1154.56C407.49,1151.55 396.99,1151.57 382.54,1154.60C375.28,1156.12 360.50,1162.76 360.50,1164.50C360.50,1165.08 366.33,1165.81 374.50,1166.24C382.20,1166.65 393.45,1167.40 399.50,1167.92C416.29,1169.35 439.69,1168.51 451.78,1166.04ZM856.20,1141.25C855.71,1138.69 850.09,1130.58 849.32,1131.35C848.89,1131.78 852.90,1141.05 854.25,1142.75C855.90,1144.82 856.75,1144.17 856.20,1141.25ZM902.50,1091.93C914.45,1090.29 919.93,1088.81 920.48,1087.06C921.43,1084.08 922.83,1031.73 922.40,1015.50C922.17,1006.70 921.49,992.53 920.90,984.01L919.82,968.53L913.22,958.51C909.59,953.01 903.00,944.74 898.56,940.15C878.16,919.02 830.09,890.51 792.03,876.96C776.72,871.52 776.36,869.08 790.25,864.86C793.96,863.73 797.23,862.44 797.51,861.99C797.95,861.26 796.57,852.68 795.45,849.22C795.15,848.29 793.63,848.66 789.78,850.61C775.35,857.92 748.07,867.28 731.89,870.46C727.28,871.37 720.58,872.73 717.00,873.49C708.82,875.22 698.40,876.77 690.00,877.51C641.99,881.71 597.35,878.63 565.84,868.96C560.53,867.33 555.67,866.00 555.05,866.00C553.60,866.00 521.27,877.15 509.78,881.61C479.37,893.42 442.59,910.81 426.22,921.12C405.86,933.95 389.44,948.50 383.08,959.33C378.85,966.53 372.00,983.36 372.00,986.54C372.00,988.82 386.92,1023.10 398.52,1047.50C401.66,1054.10 406.38,1064.05 409.01,1069.60C411.64,1075.16 414.48,1079.97 415.33,1080.30C419.44,1081.87 434.88,1083.32 447.00,1083.27C462.14,1083.20 476.88,1080.69 488.00,1076.29C495.35,1073.38 508.00,1065.59 508.00,1063.98C508.00,1063.39 505.81,1059.67 503.14,1055.70C500.47,1051.74 497.31,1046.59 496.12,1044.25C493.57,1039.23 493.88,1039.45 464.89,1023.00C458.30,1019.26 455.59,1016.24 456.55,1013.72C457.50,1011.26 459.92,1010.84 465.71,1012.14C470.42,1013.19 471.30,1013.13 472.75,1011.68C474.17,1010.26 474.25,1009.28 473.31,1004.76C471.43,995.66 474.21,993.82 482.00,999.00C487.27,1002.51 490.85,1002.75 504.61,1000.51C526.86,996.91 554.80,988.78 582.50,977.87C599.10,971.34 610.28,966.03 610.72,964.49C610.88,963.94 607.29,961.28 602.75,958.59C593.50,953.10 577.86,940.94 571.18,934.05C564.11,926.76 559.65,919.52 560.40,916.54C560.76,915.11 561.76,914.00 562.68,914.00C563.59,914.00 568.64,916.90 573.91,920.43C603.60,940.36 640.74,953.95 679.23,958.97C697.24,961.32 705.92,963.22 723.00,968.55C744.56,975.27 797.61,989.00 802.02,989.00C803.01,989.00 806.02,987.86 808.72,986.46C811.41,985.06 814.34,984.19 815.23,984.53C817.43,985.38 818.20,987.76 817.00,990.01C815.36,993.06 815.85,997.55 818.02,999.52C819.99,1001.30 820.25,1001.28 827.10,999.04C833.54,996.93 834.29,996.86 835.74,998.31C837.18,999.75 837.10,1000.40 834.78,1005.70C833.39,1008.89 831.02,1016.00 829.53,1021.50C828.03,1027.00 825.99,1034.42 824.99,1038.00C823.98,1041.58 822.19,1048.82 820.99,1054.09L818.83,1063.69L822.41,1071.25C825.64,1078.06 826.55,1079.12 831.50,1081.91C850.26,1092.50 873.97,1095.84 902.50,1091.93ZM323.75,909.93C321.51,908.75 320.00,907.22 320.00,906.13C320.00,903.19 333.23,884.00 340.83,875.94L347.83,868.50L351.91,872.45C354.16,874.63 356.00,876.81 356.00,877.30C356.00,877.80 353.02,881.42 349.38,885.35C345.74,889.28 339.87,896.88 336.34,902.25C332.80,907.61 329.36,911.98 328.70,911.96C328.04,911.93 325.81,911.02 323.75,909.93ZM359.05,867.57C357.37,865.13 356.00,862.74 356.00,862.25C356.00,861.01 369.34,852.00 371.17,852.00C371.99,852.00 373.74,854.32 375.07,857.15C377.37,862.07 377.40,862.34 375.65,863.40C374.64,864.00 371.53,866.19 368.73,868.25C365.93,870.31 363.29,872.00 362.87,872.00C362.44,872.00 360.72,870.01 359.05,867.57ZM670.50,861.96C683.98,860.96 697.10,859.13 705.50,857.07C707.70,856.53 713.33,855.56 718.00,854.91C728.43,853.46 757.40,846.21 772.40,841.29C780.03,838.79 785.14,836.42 788.75,833.71C791.64,831.54 794.00,829.68 794.00,829.59C794.00,826.96 789.66,799.32 789.18,798.89C788.81,798.56 781.75,800.74 773.50,803.74C756.00,810.10 737.34,814.95 717.00,818.42C700.30,821.26 670.43,824.26 663.34,823.81L658.50,823.50L656.90,812.00C654.98,798.24 653.45,789.63 651.44,781.34C650.62,777.96 648.86,769.18 647.53,761.84C646.20,754.50 643.96,742.20 642.54,734.50C634.73,691.99 634.74,692.03 635.46,684.74C635.84,680.84 636.79,676.04 637.56,674.08C638.33,672.11 638.89,668.25 638.81,665.50C638.63,659.55 640.51,639.44 642.55,625.57C643.35,620.11 644.00,613.73 644.00,611.38C644.00,609.04 644.45,606.84 645.00,606.50C646.64,605.48 650.33,604.74 653.29,604.84C654.82,604.89 655.84,604.54 655.55,604.08C655.00,603.18 658.22,602.04 661.34,602.01C662.35,602.01 666.17,600.61 669.84,598.90C673.50,597.20 678.98,594.89 682.00,593.77C693.79,589.40 713.50,574.16 722.86,562.17C726.78,557.15 733.76,543.46 734.64,539.05C735.32,535.65 734.41,535.38 726.68,536.65C723.32,537.21 722.47,537.96 719.71,542.85C704.70,569.46 653.68,591.60 617.59,587.16C603.34,585.41 595.50,581.72 587.70,573.08C584.10,569.10 583.84,569.00 577.50,569.00C570.10,569.00 570.15,568.91 572.12,578.20C573.68,585.55 576.04,589.74 581.67,595.12C587.67,600.87 594.12,604.61 603.92,608.04C612.86,611.17 612.37,608.81 609.17,633.50C605.53,661.65 604.74,675.10 605.24,700.35C605.68,722.09 608.05,751.62 611.04,772.50C611.59,776.35 612.69,784.23 613.49,790.00C614.28,795.77 615.82,805.87 616.92,812.42C618.01,818.98 618.67,824.72 618.39,825.17C617.69,826.31 604.76,826.21 591.50,824.97C579.80,823.88 568.62,821.99 558.80,819.45C555.49,818.59 552.52,818.15 552.20,818.46C551.43,819.24 555.81,848.21 556.87,849.27C558.31,850.71 575.06,856.09 583.96,857.97C591.26,859.52 602.72,861.04 617.00,862.36C625.50,863.14 657.72,862.90 670.50,861.96ZM383.17,854.69C380.43,851.77 380.42,849.01 383.11,845.58C385.95,841.98 391.38,842.26 394.28,846.16C399.57,853.28 389.28,861.18 383.17,854.69ZM601.89,801.71C603.53,800.07 603.24,798.87 601.29,799.21C598.92,799.61 596.66,787.10 589.97,736.50C587.67,719.14 586.74,698.36 587.30,676.83C587.62,664.36 588.31,653.34 588.84,652.33C589.37,651.32 590.55,645.33 591.47,639.00C592.39,632.67 593.38,626.51 593.67,625.30C594.09,623.55 593.52,622.81 590.85,621.62C589.01,620.80 583.00,617.06 577.51,613.31C561.39,602.33 555.80,592.89 555.86,576.80L555.90,568.10L539.70,552.72C520.15,534.16 504.25,519.66 489.50,506.95C470.63,490.70 473.14,492.14 464.02,492.31C456.57,492.45 455.82,492.28 453.34,489.80C451.30,487.76 450.71,486.23 450.81,483.33C451.01,478.16 453.40,475.30 462.09,469.88C468.05,466.16 469.48,464.79 469.41,462.88C469.35,461.57 466.34,450.82 462.70,439.00C459.06,427.18 454.04,410.07 451.54,401.00C448.69,390.69 446.34,384.02 445.26,383.22C437.53,377.48 412.13,377.89 398.50,383.96C396.30,384.95 392.85,386.28 390.83,386.93C384.67,388.90 384.62,389.13 386.46,406.72C390.36,444.05 397.48,493.30 401.96,514.00C407.05,537.51 408.35,542.77 409.68,545.35C412.31,550.43 423.08,566.95 431.74,579.19C444.37,597.02 483.33,639.15 485.79,637.63C486.35,637.29 487.53,633.74 488.42,629.75C491.93,614.13 502.33,594.80 510.64,588.46C512.75,586.85 516.72,584.77 519.46,583.84C525.02,581.96 527.40,582.60 529.15,586.43C530.25,588.84 529.87,591.21 523.08,624.10C519.25,642.62 517.90,656.72 519.06,665.95C520.73,679.21 529.47,696.67 539.68,707.12C543.79,711.32 545.09,713.33 544.84,715.12C544.26,719.22 538.86,718.82 529.14,713.95C524.59,711.67 520.71,709.96 520.52,710.15C519.90,710.78 528.88,740.67 532.93,751.43C535.10,757.21 539.33,767.24 542.34,773.72C545.66,780.90 548.05,787.57 548.44,790.79C549.40,798.75 550.62,800.74 554.87,801.27C556.87,801.52 563.98,802.91 570.69,804.36C577.39,805.81 584.81,807.03 587.19,807.06C589.56,807.09 593.30,807.44 595.50,807.84C599.32,808.52 599.53,808.42 600.14,805.69C600.50,804.11 601.28,802.32 601.89,801.71ZM690.00,805.49C693.58,805.17 698.58,804.45 701.13,803.88C703.68,803.32 706.38,802.75 707.13,802.61C707.88,802.47 710.98,801.85 714.00,801.24C717.02,800.62 723.33,799.67 728.00,799.12C736.26,798.15 738.71,797.54 755.50,792.29C765.80,789.06 780.85,783.25 783.78,781.38C785.97,779.98 786.04,779.53 785.41,771.18L784.75,762.45L792.87,743.86C801.46,724.19 810.22,700.79 813.96,687.50C815.20,683.10 817.07,676.83 818.11,673.56C819.15,670.29 820.00,666.57 820.00,665.31C820.00,663.09 819.69,663.00 812.02,663.00C805.95,663.00 802.46,662.40 797.38,660.49C789.55,657.54 789.89,657.38 783.26,667.38C777.10,676.67 760.19,693.61 752.20,698.49C736.93,707.83 714.11,715.00 699.66,715.00C693.00,715.00 690.43,713.66 691.54,710.77C691.85,709.95 696.74,707.16 702.39,704.57C726.73,693.44 748.44,671.96 765.62,642.00C773.00,629.14 776.82,624.31 784.56,618.09C790.14,613.59 793.26,611.92 799.48,610.07C809.64,607.06 812.61,607.81 812.28,613.30C812.16,615.34 810.51,620.35 808.62,624.45C805.18,631.90 805.18,632.37 808.62,634.32C810.52,635.40 843.83,608.63 861.39,591.93C882.48,571.87 896.32,556.27 918.53,527.52C922.35,522.58 927.36,516.41 929.67,513.81C933.05,510.00 934.58,506.88 937.50,497.87C944.07,477.54 950.79,451.54 954.58,431.80L958.31,412.36L952.75,400.93C949.69,394.64 945.96,386.31 944.47,382.42L941.76,375.34L929.06,371.67C916.09,367.92 909.30,367.23 902.91,369.01C899.36,369.99 899.28,370.13 896.02,381.23C888.62,406.43 880.75,429.85 877.80,435.50C876.07,438.80 871.74,446.00 868.17,451.50C858.34,466.64 858.72,465.49 861.69,471.19C863.71,475.05 864.14,477.03 863.74,480.60C862.81,488.90 856.56,492.73 845.95,491.49C840.46,490.86 839.61,491.04 835.24,493.77C832.63,495.40 823.75,500.46 815.50,505.01C791.01,518.50 780.35,524.69 764.24,534.74C751.98,542.38 748.87,544.78 748.46,546.88C747.36,552.47 744.51,560.36 742.79,562.53C741.81,563.79 741.00,565.28 741.00,565.86C741.00,566.43 739.88,568.10 738.52,569.57C737.15,571.05 736.28,572.65 736.58,573.13C736.87,573.61 736.65,574.00 736.07,574.00C735.50,574.00 734.40,575.46 733.64,577.25C732.87,579.04 730.82,581.62 729.08,583.00C727.33,584.38 724.92,586.42 723.70,587.55C722.49,588.67 720.82,589.91 720.00,590.30C719.17,590.68 715.35,593.48 711.50,596.52C701.91,604.09 680.31,614.91 664.75,619.94C660.71,621.25 660.50,621.69 659.59,631.00C659.29,634.02 657.66,648.62 655.97,663.44L652.88,690.39L655.58,703.44C657.06,710.62 658.61,719.20 659.03,722.50C659.44,725.80 660.90,734.12 662.26,741.00C665.10,755.33 668.26,773.03 670.56,787.50C671.44,793.00 672.61,799.67 673.18,802.33L674.20,807.16L678.85,806.61C681.41,806.31 686.42,805.81 690.00,805.49ZM648.31,570.36C657.05,568.73 670.92,564.08 678.50,560.25C684.25,557.34 697.56,548.53 698.50,547.00C698.85,546.44 697.74,542.37 696.04,537.96C692.47,528.69 691.86,522.39 694.19,518.83C695.08,517.48 699.63,513.83 704.31,510.71C723.08,498.22 734.91,487.05 743.95,473.29C747.75,467.49 748.98,464.73 748.82,462.32C748.38,455.80 754.02,453.12 763.11,455.54C770.45,457.49 781.27,457.42 785.30,455.39C799.69,448.13 802.56,430.39 790.76,421.66C788.93,420.30 785.96,419.49 781.76,419.20C778.10,418.95 774.77,418.13 773.75,417.23C771.23,415.02 771.57,410.30 774.50,406.82C776.29,404.69 776.83,403.16 776.39,401.42C775.74,398.82 776.85,398.25 778.80,400.20C779.71,401.11 780.80,401.13 783.25,400.30C785.04,399.69 788.18,398.90 790.24,398.55C793.43,398.01 794.61,397.00 798.14,391.80C808.88,375.98 820.07,345.67 821.93,327.38C822.88,318.00 822.74,316.08 820.05,301.38C818.45,292.64 816.19,277.85 815.02,268.50C812.61,249.22 811.23,243.68 807.01,236.31C801.87,227.37 796.45,224.29 777.26,219.46C757.98,214.60 754.09,211.69 742.54,193.46C726.74,168.49 717.24,158.42 703.07,151.62C694.86,147.67 694.10,147.50 685.00,147.53C671.43,147.58 665.92,149.94 656.04,159.92C651.41,164.60 646.60,170.81 643.58,176.02C636.37,188.45 634.02,191.83 628.81,197.18C624.61,201.51 623.68,202.00 619.71,202.00C616.18,202.00 614.34,201.28 610.63,198.44C597.92,188.74 589.32,190.05 577.59,203.47C559.92,223.69 554.11,227.40 540.00,227.46C532.32,227.50 530.97,227.20 526.00,224.41C521.79,222.05 519.70,219.99 517.11,215.66C515.25,212.55 513.13,210.00 512.41,210.00C510.47,210.00 508.98,216.25 508.31,227.12C506.94,249.50 516.99,263.00 535.00,262.97C539.27,262.96 542.96,262.29 545.77,261.02C552.42,258.00 560.63,249.50 568.50,237.50C572.46,231.45 576.79,225.51 578.12,224.30C583.75,219.15 593.97,217.47 600.59,220.61C602.46,221.50 607.07,225.32 610.84,229.11C617.13,235.45 618.02,236.00 621.88,236.00C627.11,236.00 632.14,233.50 643.00,225.49C663.02,210.73 670.82,207.41 683.64,208.17C697.15,208.97 705.95,215.41 714.57,230.79C723.14,246.09 729.17,250.85 742.86,253.11C748.72,254.08 751.37,253.98 759.66,252.49C765.07,251.51 772.88,250.52 777.00,250.30C783.38,249.94 785.17,250.22 789.00,252.19C800.78,258.24 802.27,278.58 792.02,293.47C788.43,298.68 781.96,304.58 777.46,306.72C775.56,307.63 774.00,308.88 774.00,309.50C774.00,310.12 775.41,311.95 777.14,313.56C781.05,317.22 793.05,341.85 795.63,351.50C796.85,356.08 797.50,361.89 797.50,368.33L797.50,378.16L794.23,381.08C789.68,385.15 785.99,384.98 782.59,380.53C778.87,375.65 769.17,368.99 756.95,362.92C751.20,360.07 745.71,357.05 744.75,356.21C741.15,353.08 743.62,345.00 748.19,345.00C752.40,345.00 766.01,351.38 773.83,357.02L782.16,363.03L781.45,359.76C781.06,357.97 780.39,355.55 779.95,354.39C778.96,351.75 763.84,341.73 754.31,337.38C744.02,332.69 741.40,327.41 747.41,323.47C749.37,322.18 750.26,322.18 754.35,323.40C756.93,324.18 761.30,326.26 764.06,328.04C766.82,329.81 769.32,331.01 769.63,330.71C770.27,330.06 767.37,325.79 760.75,317.66C756.92,312.96 756.00,311.08 756.00,307.99C756.00,303.84 756.78,302.99 766.42,296.71C772.32,292.85 776.80,285.50 777.66,278.22C778.21,273.60 778.05,273.08 775.60,271.48C773.09,269.83 772.32,269.83 760.37,271.50C742.27,274.03 729.49,272.52 717.48,266.44C710.36,262.84 705.37,257.38 698.68,245.87C690.50,231.80 685.43,228.37 674.07,229.19C667.75,229.65 665.25,230.96 650.50,241.56C637.74,250.74 631.98,253.38 623.72,253.85C614.63,254.36 609.47,252.29 601.28,244.87C591.01,235.57 588.27,236.45 578.69,252.10C570.14,266.08 555.49,277.59 540.00,282.49C536.98,283.45 534.00,284.75 533.38,285.37C531.63,287.14 515.15,355.56 510.05,382.22C504.59,410.76 503.79,430.62 507.40,447.50C512.61,471.79 523.02,490.22 541.79,508.38C564.84,530.68 593.00,540.99 631.76,541.34L649.17,541.50L651.59,544.31C654.85,548.10 654.88,553.83 651.64,556.86C648.37,559.94 632.44,565.41 620.63,567.52C612.88,568.90 611.14,569.50 612.56,570.29C617.60,573.12 633.43,573.15 648.31,570.36ZM778.81,492.75C792.91,485.46 809.30,477.10 815.24,474.17C824.37,469.67 826.33,468.28 827.92,465.17C828.96,463.15 832.00,458.57 834.67,455.00C850.92,433.27 858.40,416.50 869.00,378.00C872.41,365.62 875.38,355.20 875.60,354.84C875.83,354.47 873.96,351.78 871.46,348.85C865.94,342.38 861.34,333.44 860.44,327.45L859.77,323.00L853.89,323.00C850.65,323.00 847.99,323.34 847.98,323.75C847.57,340.59 846.84,350.06 845.47,356.50C841.52,374.98 831.09,398.09 820.73,411.31L817.74,415.11L820.62,420.31C823.30,425.15 823.50,426.25 823.50,436.52C823.50,446.99 823.34,447.87 820.15,454.35C812.19,470.53 793.55,482.00 775.21,482.00C770.88,482.00 769.49,482.43 767.96,484.25C763.73,489.30 752.36,503.59 751.65,504.75C751.21,505.47 751.37,506.00 752.02,506.00C752.65,506.00 764.70,500.04 778.81,492.75ZM651.59,481.92C632.15,471.68 616.26,470.05 598.00,476.43C588.92,479.60 586.85,479.63 583.36,476.63C580.25,473.96 579.57,468.43 581.98,465.52C588.96,457.11 619.99,452.91 638.50,457.86C653.47,461.86 666.07,469.46 667.56,475.37C668.45,478.92 666.45,483.47 663.39,484.87C659.98,486.42 660.27,486.49 651.59,481.92ZM95.14,476.63C90.30,474.88 84.30,469.51 81.87,464.75C80.72,462.49 79.54,458.01 79.25,454.78C77.68,437.54 97.54,413.62 124.74,400.01C135.10,394.83 136.25,394.86 138.89,400.49C140.05,402.96 141.00,405.55 141.00,406.24C141.00,406.93 138.78,409.41 136.06,411.75C130.49,416.55 125.48,425.75 124.47,433.04C124.07,435.91 124.42,439.82 125.42,443.68C127.37,451.23 127.45,460.02 125.60,464.28C123.59,468.92 118.69,473.79 113.77,476.02C108.90,478.23 100.33,478.51 95.14,476.63ZM686.92,471.08C683.37,467.52 682.96,462.13 685.96,458.32C687.90,455.85 687.90,455.77 686.01,450.78C683.73,444.79 679.41,438.00 677.88,438.00C677.27,438.00 670.97,439.57 663.88,441.50C631.68,450.22 591.03,454.20 556.72,452.00L548.93,451.50L546.78,455.24L544.62,458.97L546.81,461.30C548.11,462.68 549.00,464.91 549.00,466.79C549.00,469.31 548.37,470.27 545.93,471.54C541.97,473.59 537.85,472.70 534.14,468.99C529.08,463.93 527.50,459.40 527.50,450.00C527.50,439.92 530.19,433.00 536.99,425.62C541.29,420.97 549.79,416.00 553.47,416.00C559.60,416.00 562.36,423.72 557.76,428.01C554.49,431.06 556.32,431.70 570.70,432.53C584.65,433.34 602.64,431.98 619.00,428.88C632.58,426.32 660.00,418.95 660.00,417.87C660.00,417.41 657.31,415.67 654.02,414.01C650.73,412.35 647.27,409.82 646.33,408.38C644.81,406.06 644.78,405.48 646.06,403.23C650.08,396.15 659.80,394.29 674.01,397.88C689.11,401.70 701.81,411.62 708.09,424.50C711.37,431.23 711.50,431.95 711.50,443.00C711.50,453.65 711.29,454.91 708.68,460.00C705.23,466.71 701.54,470.80 697.28,472.62C692.50,474.67 690.17,474.32 686.92,471.08ZM285.41,422.74C288.32,416.55 292.87,406.31 295.52,399.99C298.17,393.67 300.92,387.60 301.62,386.50C302.72,384.76 302.44,383.78 299.43,379.03C287.45,360.06 285.82,330.79 295.88,315.21C304.16,302.40 316.54,299.70 328.52,308.10C331.66,310.30 334.44,311.90 334.69,311.65C335.30,311.03 331.49,285.24 328.93,272.62C323.31,245.00 311.96,223.96 299.51,218.11C293.83,215.44 285.07,215.33 279.48,217.87C274.45,220.16 266.69,228.68 263.03,235.96C247.33,267.11 245.73,336.70 259.53,388.00C263.84,404.00 276.58,434.00 279.07,434.00C279.65,434.00 282.50,428.93 285.41,422.74ZM1113.16,426.76C1134.41,416.26 1151.80,387.41 1158.84,351.00C1161.84,335.48 1162.02,334.13 1161.08,333.55C1160.61,333.26 1153.39,338.08 1145.04,344.26C1136.70,350.44 1128.05,356.67 1125.84,358.11C1123.37,359.71 1121.11,362.28 1120.01,364.74C1118.51,368.07 1117.38,369.05 1113.35,370.47C1110.68,371.42 1107.60,372.54 1106.50,372.97C1102.75,374.43 1054.50,411.30 1054.21,412.93C1053.91,414.61 1063.30,422.10 1070.00,425.53C1079.08,430.17 1083.15,431.04 1094.55,430.77C1105.05,430.51 1105.99,430.31 1113.16,426.76ZM592.98,413.15C591.07,412.13 588.83,409.91 588.00,408.22C587.17,406.52 584.61,403.77 582.29,402.09C577.31,398.49 570.44,390.11 567.88,384.50C563.51,374.97 565.98,369.35 578.00,361.43C586.00,356.16 594.27,347.68 596.42,342.55C597.27,340.50 599.34,334.03 601.02,328.16C603.98,317.81 612.73,298.30 615.42,296.07C616.99,294.76 619.62,295.57 620.40,297.59C621.73,301.08 622.25,336.70 621.06,343.69C619.15,354.95 612.17,365.23 600.68,373.72L595.86,377.28L600.18,381.69C602.55,384.12 608.01,388.37 612.30,391.12C625.02,399.30 625.01,402.87 612.25,410.35C603.33,415.58 598.81,416.24 592.98,413.15ZM483.34,398.28C483.68,394.55 485.32,384.52 486.98,376.00C490.59,357.36 490.58,357.78 487.79,358.18C486.41,358.38 484.82,359.97 483.54,362.43C482.42,364.59 479.36,368.70 476.75,371.57C474.14,374.43 472.00,377.27 472.00,377.86C472.00,378.99 478.48,399.76 480.09,403.81C481.55,407.48 482.66,405.59 483.34,398.28ZM356.81,392.96C356.42,387.56 355.11,387.09 352.34,391.36C350.07,394.86 350.24,395.78 353.50,397.65C356.29,399.24 357.18,397.98 356.81,392.96ZM763.67,391.49C758.82,388.52 752.29,385.13 749.17,383.97C746.05,382.80 742.71,381.14 741.75,380.27C738.06,376.94 741.02,369.00 745.96,369.00C751.29,369.00 765.08,375.81 774.75,383.22C779.22,386.65 780.00,387.74 780.00,390.56C780.00,394.01 777.14,397.06 774.03,396.94C773.19,396.91 768.53,394.46 763.67,391.49ZM1082.14,373.00C1082.68,373.00 1082.83,373.47 1082.48,374.04C1082.07,374.69 1083.13,374.99 1085.35,374.84C1089.85,374.53 1089.56,373.04 1084.50,370.48C1082.30,369.36 1079.27,367.63 1077.76,366.62C1076.25,365.61 1074.31,365.05 1073.46,365.38C1072.60,365.71 1072.13,365.61 1072.41,365.15C1072.69,364.70 1071.10,362.56 1068.87,360.41C1064.02,355.72 1058.13,347.24 1053.46,338.25C1052.53,336.46 1051.37,335.00 1050.89,335.00C1047.05,335.00 1055.39,351.37 1063.43,359.61C1066.85,363.13 1069.91,366.00 1070.21,366.00C1070.52,366.00 1072.95,368.01 1075.63,370.47C1078.31,372.94 1080.65,374.51 1080.83,373.97C1081.02,373.44 1081.61,373.00 1082.14,373.00ZM391.80,367.58C418.15,362.00 420.96,361.58 432.87,361.45L445.25,361.31L452.99,354.41C462.98,345.50 464.00,343.77 464.00,335.71C464.00,330.12 463.44,328.10 459.90,321.05C457.65,316.55 455.14,312.61 454.33,312.29C451.62,311.26 449.49,314.69 449.68,319.78C449.90,325.37 447.32,330.22 443.24,331.89C441.37,332.65 430.93,332.93 410.50,332.75C384.25,332.53 380.04,332.71 376.82,334.17C371.64,336.52 369.70,340.78 369.59,350.00C369.48,359.89 370.96,362.74 378.00,366.22C384.53,369.45 383.49,369.34 391.80,367.58ZM544.42,365.11C535.65,359.77 534.57,340.80 542.29,327.92C547.88,318.60 556.31,315.31 562.39,320.09C574.27,329.44 568.40,360.38 553.68,365.94C549.74,367.43 547.95,367.27 544.42,365.11ZM211.91,360.41C216.16,359.99 218.38,359.22 219.82,357.66C221.76,355.57 221.79,354.92 220.74,338.50C217.70,290.69 228.16,235.04 246.39,202.10C248.94,197.48 250.87,193.54 250.68,193.35C250.49,193.16 246.77,193.28 242.42,193.63L234.50,194.26L225.99,202.97C212.88,216.39 205.72,228.23 197.97,249.29C188.89,274.00 185.31,306.92 188.05,340.70C189.32,356.49 189.55,357.60 191.93,359.81C194.63,362.32 193.20,362.27 211.91,360.41ZM675.36,361.05C670.22,359.82 666.29,356.29 663.31,350.23C659.66,342.79 658.81,329.46 661.53,322.16C665.05,312.71 670.81,307.72 678.10,307.82C690.65,307.99 700.08,324.38 697.17,340.93C695.83,348.56 693.79,352.87 689.71,356.71C686.95,359.31 681.00,362.22 679.10,361.90C678.77,361.84 677.09,361.46 675.36,361.05ZM934.73,349.75C934.46,347.96 933.07,341.55 931.64,335.50C930.21,329.45 928.51,319.88 927.88,314.23C926.44,301.46 926.90,301.69 908.57,304.63C905.51,305.12 903.67,304.74 900.25,302.88L895.86,300.50L892.93,303.77C890.34,306.65 890.00,307.77 890.00,313.38C890.00,319.65 890.09,319.87 897.98,331.61C902.37,338.15 905.97,344.05 905.98,344.73C905.99,345.41 907.01,346.17 908.25,346.43C921.80,349.21 926.81,350.40 929.88,351.53C935.06,353.43 935.27,353.35 934.73,349.75ZM1104.91,352.08C1105.95,351.42 1105.30,350.90 1102.41,350.10C1100.26,349.50 1098.13,349.01 1097.68,349.01C1096.57,349.00 1099.17,351.53 1101.02,352.26C1103.12,353.08 1103.33,353.07 1104.91,352.08ZM331.22,348.50C337.42,347.68 344.41,346.75 346.75,346.44C350.94,345.89 351.00,345.82 351.00,341.94C351.00,339.77 350.66,338.00 350.25,338.00C349.84,338.00 342.52,338.90 334.00,340.00C325.48,341.10 318.39,342.00 318.25,342.00C317.67,342.00 318.06,348.72 318.67,349.33C319.49,350.16 317.99,350.26 331.22,348.50ZM1094.04,345.82C1091.79,343.72 1090.77,343.94 1090.38,346.62C1090.25,347.48 1090.40,347.93 1090.71,347.63C1091.01,347.32 1092.21,347.74 1093.38,348.55C1096.31,350.60 1096.84,348.43 1094.04,345.82ZM48.50,337.60C42.06,335.56 38.38,333.29 35.10,329.30C25.70,317.90 27.70,300.73 39.46,291.84C55.30,279.86 90.07,282.12 120.50,297.10C134.50,303.99 134.62,304.10 133.09,308.73C130.62,316.20 130.03,316.52 121.77,314.91C112.23,313.06 103.00,313.27 95.09,315.53C89.37,317.16 87.64,318.34 79.04,326.46C66.45,338.36 59.23,340.99 48.50,337.60ZM1086.35,338.03C1085.88,337.61 1083.94,336.97 1082.03,336.61C1079.07,336.06 1078.82,336.15 1080.30,337.23C1082.15,338.58 1087.79,339.33 1086.35,338.03ZM1049.60,331.85C1050.04,331.13 1049.87,330.96 1049.15,331.40C1048.52,331.80 1048.00,331.57 1048.00,330.89C1048.00,330.22 1047.73,329.94 1047.40,330.27C1046.83,330.84 1047.70,333.00 1048.50,333.00C1048.71,333.00 1049.20,332.48 1049.60,331.85ZM1127.50,329.00C1128.25,327.79 1124.31,327.79 1121.50,329.00C1119.89,329.69 1120.22,329.87 1123.19,329.93C1125.22,329.97 1127.16,329.55 1127.50,329.00ZM497.60,326.79C498.28,326.08 498.99,324.38 499.17,323.00C499.49,320.60 499.29,320.51 494.50,320.67C491.75,320.77 487.14,321.14 484.25,321.50C479.02,322.14 479.00,322.15 479.00,325.72L479.00,329.30L487.68,328.68C492.68,328.33 496.88,327.53 497.60,326.79ZM1132.00,327.00C1132.83,326.47 1133.05,326.03 1132.50,326.03C1131.95,326.03 1130.83,326.47 1130.00,327.00C1129.17,327.53 1128.95,327.97 1129.50,327.97C1130.05,327.97 1131.17,327.53 1132.00,327.00ZM1025.21,320.89C1033.66,316.65 1036.03,315.87 1039.19,316.30L1043.00,316.81L1043.00,313.03C1043.00,310.95 1042.32,307.33 1041.50,304.99C1039.21,298.52 1037.00,279.32 1037.00,265.98C1037.00,231.30 1048.87,199.49 1066.83,186.03C1072.37,181.87 1083.72,177.65 1086.75,178.62C1091.05,180.00 1092.97,181.49 1093.91,184.18C1095.66,189.20 1093.86,191.66 1085.73,195.37C1077.08,199.31 1072.02,204.63 1066.05,216.05C1060.26,227.14 1057.13,239.04 1056.10,253.91C1055.01,269.69 1056.61,292.41 1059.15,297.25C1061.59,301.89 1068.24,296.86 1073.36,286.50C1076.22,280.72 1076.93,277.94 1077.49,270.50C1077.86,265.55 1078.84,258.35 1079.68,254.50C1085.46,228.00 1105.26,214.32 1123.65,224.12L1129.50,227.24L1138.86,226.18C1144.01,225.59 1148.48,224.85 1148.81,224.53C1150.21,223.13 1134.77,182.98 1127.84,170.01C1114.47,144.96 1097.63,127.49 1080.77,121.18C1077.89,120.10 1073.08,119.57 1065.95,119.54C1055.75,119.50 1055.16,119.62 1047.83,123.24C1026.71,133.67 1012.39,161.53 1007.45,201.80C1005.20,220.21 1004.49,253.57 1005.93,273.08C1007.00,287.51 1011.30,321.31 1012.50,324.75C1013.18,326.70 1014.35,326.35 1025.21,320.89ZM1136.00,325.00C1136.00,324.45 1135.80,324.00 1135.56,324.00C1135.32,324.00 1134.84,324.45 1134.50,325.00C1134.16,325.55 1134.36,326.00 1134.94,326.00C1135.52,326.00 1136.00,325.55 1136.00,325.00ZM1142.50,320.00C1142.84,319.45 1142.64,319.00 1142.06,319.00C1141.48,319.00 1141.00,319.45 1141.00,320.00C1141.00,320.55 1141.20,321.00 1141.44,321.00C1141.68,321.00 1142.16,320.55 1142.50,320.00ZM1149.50,316.76C1150.60,316.80 1153.64,317.16 1156.25,317.55C1160.98,318.26 1161.00,318.25 1162.50,314.66C1164.57,309.69 1164.43,308.65 1161.75,309.38C1160.51,309.71 1156.44,310.28 1152.70,310.64C1147.56,311.14 1145.57,311.78 1144.53,313.26C1142.79,315.74 1143.65,318.38 1145.88,317.39C1146.77,317.00 1148.40,316.71 1149.50,316.76ZM376.38,315.14C380.40,310.69 380.28,302.86 376.17,301.55C371.71,300.14 367.00,304.84 367.00,310.72C367.00,316.18 372.91,318.97 376.38,315.14ZM432.50,311.70C436.11,308.09 437.99,302.82 437.99,296.23C438.00,292.71 437.59,291.77 435.64,290.88C433.82,290.05 432.58,290.17 430.23,291.38C427.71,292.68 426.72,294.33 424.59,300.73C421.71,309.37 421.43,312.03 423.20,313.80C425.35,315.95 429.09,315.11 432.50,311.70ZM405.38,311.54C409.93,306.63 411.50,295.66 408.09,292.58C403.24,288.19 397.22,293.19 394.91,303.51C393.86,308.20 393.92,309.23 395.38,311.45C397.61,314.86 402.26,314.90 405.38,311.54ZM1085.68,310.71C1086.93,311.19 1087.08,310.83 1086.47,308.90C1085.28,305.14 1082.91,302.00 1081.26,302.00C1079.98,302.00 1079.96,302.24 1081.11,303.64C1081.86,304.54 1082.52,305.77 1082.58,306.39C1082.64,307.00 1082.80,308.62 1082.93,310.00C1083.05,311.38 1083.38,311.96 1083.64,311.31C1083.91,310.65 1084.83,310.38 1085.68,310.71ZM541.59,301.38C541.25,300.48 542.11,297.25 543.51,294.20C550.74,278.41 565.49,269.37 571.28,277.16C574.69,281.75 573.10,284.45 564.61,288.48C559.92,290.70 555.21,293.98 551.64,297.49C545.97,303.07 542.72,304.33 541.59,301.38ZM701.62,293.68C695.85,287.11 689.53,282.99 682.25,281.05C676.46,279.51 674.40,276.35 676.01,271.47C679.63,260.50 696.33,264.76 706.11,279.16C710.80,286.07 714.37,295.25 713.47,298.09C713.06,299.38 711.94,300.00 710.02,300.00C707.77,300.00 705.99,298.66 701.62,293.68ZM854.26,293.43C859.06,293.04 863.37,292.23 863.85,291.61C864.77,290.44 866.22,284.00 865.57,284.00C863.59,284.00 838.47,287.20 838.18,287.48C837.97,287.69 838.35,289.52 839.01,291.54C840.08,294.78 840.53,295.14 842.88,294.67C844.35,294.38 849.47,293.82 854.26,293.43ZM964.73,291.70C966.98,290.52 967.03,290.14 967.45,270.50C968.44,224.35 976.86,181.96 992.13,146.22C999.27,129.50 1007.24,116.59 1017.51,105.08C1020.53,101.69 1023.00,98.65 1023.00,98.32C1023.00,97.99 1020.39,97.96 1017.19,98.25C1001.45,99.68 984.18,114.87 970.28,139.50C958.94,159.60 948.63,193.57 944.48,224.56C942.64,238.22 941.35,276.67 942.44,285.34C943.10,290.62 943.46,291.30 946.33,292.60C949.94,294.24 960.90,293.71 964.73,291.70ZM918.49,270.36C921.58,269.18 922.06,265.50 919.95,259.36C917.64,252.64 915.53,250.00 912.47,250.00C908.19,250.00 906.20,255.32 907.99,261.98C909.81,268.72 914.02,272.08 918.49,270.36ZM1132.61,260.51C1146.85,258.59 1164.58,256.29 1172.00,255.39C1179.42,254.50 1186.06,253.31 1186.75,252.76C1187.44,252.21 1188.00,250.47 1188.00,248.89C1188.00,247.31 1188.89,243.67 1189.99,240.80C1191.08,237.92 1191.60,235.20 1191.15,234.75C1190.70,234.30 1186.10,234.63 1180.92,235.48C1175.74,236.32 1157.33,238.80 1140.00,240.99C1111.11,244.63 1108.38,245.14 1107.00,247.14C1103.30,252.51 1100.88,261.55 1102.67,263.33C1103.69,264.36 1104.93,264.24 1132.61,260.51Z"/></svg>