<svg version="1.1" xmlns="http://www.w3.org/2000/svg" xmlns:xlink="http://www.w3.org/1999/xlink" width="1280" height="1280" viewBox="0 0 1280 1280">
  
            <path stroke="none" fill="#F5B942" fill-rule="evenodd" d="M748.00,1198.90C702.75,1196.72 662.71,1191.55 620.00,1182.37C597.16,1177.46 559.02,1167.12 550.32,1163.49L546.72,1161.98L547.38,1155.74C550.22,1129.08 556.25,1069.04 556.71,1062.80L557.28,1055.11L554.39,1054.46C532.80,1049.61 505.19,1039.80 496.37,1033.85C488.22,1028.36 485.77,1024.34 479.07,1005.50L474.44,992.50L470.97,992.79C428.18,996.31 401.89,990.59 377.85,972.52C368.48,965.47 358.79,955.57 350.37,944.43C347.43,940.54 343.02,935.92 340.57,934.16C328.29,925.34 324.81,918.58 324.19,902.34C323.75,891.09 324.92,877.50 327.43,864.55C328.42,859.48 328.62,853.70 328.15,844.00L327.50,830.50L325.00,830.74C323.62,830.88 317.77,831.27 312.00,831.62C294.64,832.66 283.41,828.61 279.12,819.75C276.51,814.36 276.46,809.79 278.94,804.32C281.07,799.64 286.50,795.56 292.00,794.52C299.02,793.18 298.86,793.34 297.84,788.80C297.33,786.53 297.20,783.38 297.54,781.81C298.89,775.66 306.21,770.00 312.79,770.00C316.54,770.00 327.33,773.74 338.39,778.87C343.28,781.14 347.91,783.00 348.67,783.00C351.60,783.00 351.03,779.89 347.09,774.38C344.84,771.24 343.00,768.00 343.00,767.18C343.00,766.36 341.85,764.18 340.45,762.34C336.76,757.51 334.88,752.43 334.15,745.33L333.50,739.09L329.00,741.26C325.28,743.05 322.68,743.43 314.00,743.46C301.76,743.51 298.11,742.10 291.32,734.73C284.36,727.18 283.73,717.28 289.58,707.28C294.08,699.59 301.44,695.44 317.50,691.57C334.75,687.41 337.00,686.78 337.00,686.11C337.00,685.76 332.30,684.51 326.56,683.34C313.82,680.73 306.87,677.64 301.15,672.06C286.32,657.57 291.97,635.17 311.24,632.04C318.97,630.78 325.11,632.48 336.50,639.03C341.45,641.88 345.99,644.61 346.59,645.09C349.34,647.33 348.50,644.07 344.19,635.82L339.50,626.84L339.50,614.67C339.50,603.40 339.70,602.08 342.27,596.86C347.57,586.06 357.10,580.01 366.36,581.55C375.38,583.05 381.24,587.97 385.79,597.88C387.83,602.31 388.28,604.92 388.36,612.63C388.42,617.78 388.56,622.00 388.69,622.00C388.81,622.00 390.55,620.89 392.56,619.53C397.38,616.25 402.08,615.48 407.66,617.04C417.62,619.83 421.94,626.68 421.98,639.75L422.00,648.00L425.85,648.00C430.53,648.00 435.23,650.96 439.56,656.65C443.25,661.48 444.48,667.49 442.96,673.17C441.74,677.66 442.22,680.00 444.35,680.00C445.19,680.00 446.22,678.17 446.90,675.47C449.66,664.50 460.70,668.18 462.58,680.68L463.22,684.93L467.49,684.35C471.03,683.86 472.14,684.14 473.97,685.97C476.49,688.49 476.17,691.74 472.95,696.21C470.36,699.81 470.43,700.00 474.48,700.00C479.43,700.00 481.48,703.35 480.59,710.02C479.89,715.33 481.31,716.94 482.94,712.66C484.11,709.57 492.78,702.00 495.14,702.00C498.02,702.00 497.40,700.85 492.08,696.27C486.01,691.04 484.23,686.53 485.95,680.77C486.60,678.59 486.99,676.67 486.82,676.52C486.64,676.36 479.52,672.75 471.00,668.50C453.33,659.68 442.47,653.61 439.35,650.78C438.16,649.71 436.90,647.26 436.53,645.33C435.31,638.78 436.60,636.43 445.62,628.90L454.07,621.84L442.79,609.87C427.39,593.55 426.64,592.56 427.41,589.49C428.05,586.95 433.22,583.01 435.91,583.00C437.39,583.00 443.19,588.66 456.75,603.36L464.93,612.22L474.00,604.61C480.17,599.43 483.89,597.00 485.65,597.00C489.36,597.00 494.09,602.38 503.90,617.75L512.29,630.91L514.71,629.01C520.87,624.16 528.07,624.38 533.70,629.59C535.12,630.92 536.62,632.00 537.02,632.00C537.42,632.00 540.61,628.29 544.11,623.75C556.52,607.67 568.73,597.30 581.19,592.27C584.33,591.00 599.64,586.57 615.20,582.44C647.89,573.75 667.13,568.16 668.36,566.99C669.24,566.16 665.61,563.33 655.31,556.83C646.88,551.51 635.06,541.06 627.47,532.21C604.79,505.75 593.99,474.53 594.03,435.50C594.05,407.42 599.21,381.46 610.10,354.59L614.92,342.68L611.86,339.19C607.05,333.71 604.78,327.49 604.24,318.27C603.66,308.56 604.78,303.34 609.69,292.79L613.28,285.08L609.69,277.79C605.12,268.51 603.78,262.61 603.82,252.00C603.88,237.40 608.18,224.46 617.77,210.05C630.25,191.29 650.54,175.70 658.74,178.57C662.61,179.93 662.67,182.66 659.08,192.60C653.63,207.65 655.67,215.22 665.90,217.97C673.64,220.06 681.82,216.75 695.46,205.99C712.24,192.78 720.79,188.73 734.24,187.65C745.20,186.77 751.33,184.27 764.74,175.22C779.00,165.60 782.74,163.65 791.06,161.47C816.10,154.92 852.95,174.10 870.87,203.00L876.76,212.50L887.14,214.62C905.45,218.36 916.54,224.32 929.54,237.40C940.97,248.90 947.04,257.44 952.15,269.20C959.13,285.26 960.18,290.93 959.85,311.00C959.67,322.29 960.07,331.78 960.97,337.75C962.10,345.27 962.14,348.68 961.16,356.00C959.53,368.26 953.74,386.91 948.75,396.00C946.49,400.12 941.79,409.02 938.32,415.77C932.54,426.99 932.00,428.56 932.01,434.27C932.02,437.69 932.69,442.98 933.50,446.00C935.22,452.42 935.43,461.92 933.96,467.22C932.32,473.10 925.04,483.03 918.50,488.29C911.32,494.07 888.50,507.91 877.90,512.91C870.03,516.63 856.96,527.46 858.62,528.90C859.10,529.32 861.75,530.48 864.50,531.47C873.29,534.63 887.10,542.20 894.91,548.14C899.09,551.31 907.90,558.04 914.50,563.10C926.57,572.35 935.45,577.18 958.50,587.03C1004.74,606.79 1009.91,609.70 1024.02,623.91C1046.03,646.09 1055.26,669.57 1071.46,744.50C1090.71,833.58 1099.02,886.97 1099.23,922.89C1099.38,949.50 1094.94,961.47 1077.82,980.66C1050.94,1010.79 1003.86,1041.27 963.86,1054.44C954.31,1057.59 946.19,1060.46 945.81,1060.83C945.10,1061.52 950.49,1079.77 968.02,1136.00C974.37,1156.38 978.11,1168.82 978.73,1171.68C979.15,1173.61 978.45,1174.08 972.35,1175.88C947.57,1183.20 927.96,1187.39 926.37,1185.70C925.74,1185.04 921.98,1174.60 918.01,1162.50C914.03,1150.40 909.07,1135.55 906.97,1129.50C904.87,1123.45 901.72,1114.00 899.98,1108.50C898.23,1103.00 896.69,1098.38 896.56,1098.24C896.42,1098.09 893.31,1099.10 889.66,1100.48C881.40,1103.59 852.52,1111.15 836.50,1114.40C818.20,1118.11 770.50,1124.43 743.00,1126.79L733.50,1127.60L737.00,1129.27C738.92,1130.18 745.00,1132.81 750.50,1135.09C756.00,1137.38 763.69,1140.75 767.59,1142.58C774.52,1145.82 774.77,1146.07 778.28,1153.20C785.89,1168.65 796.28,1190.71 798.08,1195.25L799.97,1200.00L782.24,1199.85C772.48,1199.77 757.08,1199.34 748.00,1198.90ZM872.68,1064.93C883.51,1063.45 898.49,1059.66 906.11,1056.47C928.01,1047.31 948.09,1023.42 956.70,996.29C959.20,988.41 959.49,986.05 959.49,973.50C959.50,960.45 959.28,958.82 956.27,949.50C954.49,944.00 952.23,938.28 951.23,936.80C950.24,935.31 944.19,929.15 937.80,923.11C924.51,910.56 921.81,909.29 906.50,908.34C894.73,907.62 888.41,905.77 881.86,901.13C874.58,895.98 873.36,895.64 870.87,898.13C869.11,899.89 868.84,901.14 869.19,905.96C869.79,914.24 874.23,922.65 880.07,926.55C884.53,929.54 894.82,933.21 902.18,934.45C906.99,935.25 909.84,937.73 910.62,941.76C911.18,944.61 910.79,945.46 907.57,948.50C902.88,952.93 878.69,964.78 864.90,969.41C852.62,973.54 839.00,976.86 820.00,980.36C801.31,983.81 798.46,985.16 799.17,990.19C800.42,998.98 836.58,1000.63 871.56,993.50L883.50,991.06L885.25,993.28C889.52,998.68 888.72,1003.95 883.27,1006.31C871.28,1011.49 852.09,1016.14 831.00,1018.98C807.81,1022.10 807.71,1022.12 806.26,1025.15C805.56,1026.61 805.27,1028.54 805.61,1029.44C807.34,1033.93 820.54,1036.96 838.50,1036.98C852.78,1036.99 865.04,1035.33 880.86,1031.24L891.22,1028.56L893.61,1031.33C895.23,1033.22 896.00,1035.35 896.00,1037.94C896.00,1042.54 894.68,1043.58 883.99,1047.44C871.51,1051.95 861.13,1054.03 848.00,1054.67C841.12,1055.00 834.71,1055.68 833.75,1056.17C832.70,1056.71 832.00,1058.22 832.00,1059.96C832.00,1062.92 834.05,1064.14 841.00,1065.31C846.21,1066.18 865.17,1065.96 872.68,1064.93ZM733.20,1053.98C753.38,1053.12 787.45,1049.88 788.62,1048.72C788.81,1048.52 787.84,1046.81 786.45,1044.93C785.05,1043.04 783.23,1039.16 782.40,1036.30C780.92,1031.22 780.80,1031.10 776.77,1030.80C770.89,1030.37 770.53,1028.00 776.35,1028.00C780.01,1028.00 780.97,1027.62 781.43,1026.00C783.25,1019.60 783.68,1020.12 776.31,1019.80C770.93,1019.56 769.46,1019.16 769.20,1017.84C768.92,1016.37 769.79,1016.24 776.72,1016.72C783.36,1017.17 784.76,1016.99 785.99,1015.51C787.28,1013.96 787.14,1013.52 784.68,1011.40C782.28,1009.33 781.22,1009.10 776.22,1009.57C767.49,1010.38 764.95,1009.27 763.36,1003.95C762.63,1001.50 762.02,999.49 762.02,999.47C762.01,999.45 765.10,999.61 768.89,999.82L775.77,1000.21L775.81,993.50L775.85,986.78L768.50,987.47C761.88,988.09 760.95,987.95 759.08,986.08C754.84,981.84 756.13,981.00 766.83,981.00L776.67,981.00L779.83,977.06C783.42,972.59 783.77,971.48 781.25,972.49C779.01,973.39 754.92,974.90 753.21,974.25C752.50,973.98 752.08,973.25 752.29,972.63C752.51,971.96 755.47,971.43 759.56,971.33C772.49,971.02 786.29,968.87 793.50,966.03C802.37,962.54 809.57,960.52 818.81,958.92C823.67,958.08 826.41,957.10 827.01,955.98C827.68,954.72 829.86,954.15 835.70,953.70C843.81,953.07 855.80,949.91 859.83,947.33C862.02,945.94 862.07,945.73 860.51,944.01C858.90,942.23 858.72,942.24 854.51,944.10C849.52,946.31 836.50,948.29 830.05,947.82C824.72,947.43 823.49,945.32 828.19,944.62C830.01,944.35 834.88,943.63 839.00,943.03C843.12,942.44 848.68,941.23 851.35,940.36C855.79,938.91 856.06,938.64 854.61,937.18C853.28,935.85 852.49,935.78 849.76,936.77C844.70,938.60 831.20,940.21 826.94,939.49C823.29,938.87 819.18,936.00 821.96,936.00C823.58,936.00 846.05,932.06 848.26,931.39C849.24,931.10 849.78,930.46 849.48,929.97C849.18,929.49 848.16,929.34 847.22,929.64C845.79,930.10 845.75,930.01 846.97,929.15C849.85,927.11 846.81,926.62 838.22,927.74C833.42,928.36 823.65,929.60 816.50,930.50C809.35,931.39 799.00,932.79 793.50,933.60C766.27,937.62 672.56,937.88 628.50,934.06C615.30,932.91 603.60,931.66 602.50,931.28C601.40,930.90 591.81,930.56 581.19,930.54C562.25,930.50 561.86,930.46 560.16,928.20C558.87,926.51 556.87,925.68 552.46,925.04C549.18,924.56 539.67,922.81 531.31,921.15C517.81,918.47 514.71,918.19 503.31,918.62C494.64,918.94 488.73,918.67 485.03,917.78C480.20,916.62 479.46,916.10 478.66,913.30C477.87,910.56 477.09,909.98 472.82,908.96C470.11,908.31 467.71,907.96 467.48,908.18C467.26,908.41 469.36,915.10 472.15,923.05C474.94,931.00 478.48,941.55 480.02,946.50C487.28,969.90 501.34,1007.84 504.55,1012.72C508.66,1018.98 510.11,1019.99 521.60,1024.63C560.95,1040.51 630.03,1052.73 689.50,1054.31C695.00,1054.46 701.75,1054.67 704.50,1054.78C707.25,1054.90 720.16,1054.53 733.20,1053.98ZM717.75,1030.92C716.79,1030.36 716.00,1029.31 716.00,1028.59C716.00,1027.61 719.29,1027.15 729.25,1026.74C736.54,1026.44 742.70,1026.39 742.94,1026.62C744.48,1028.11 739.35,1030.06 731.50,1030.95C720.56,1032.20 719.95,1032.20 717.75,1030.92ZM608.50,1025.90C598.32,1024.89 596.25,1024.35 597.58,1023.03C598.13,1022.49 601.31,1022.49 605.50,1023.03C609.35,1023.53 615.76,1023.95 619.75,1023.97C623.89,1023.99 627.00,1024.43 627.00,1025.00C627.00,1025.55 626.16,1026.00 625.12,1026.00C624.09,1026.00 621.96,1026.18 620.38,1026.40C618.79,1026.62 613.45,1026.40 608.50,1025.90ZM976.39,1023.01C986.74,1018.40 988.44,1017.06 990.88,1011.54C1004.88,979.89 1002.35,944.90 984.04,917.19C978.61,908.98 968.71,898.44 962.85,894.62C960.26,892.94 960.04,892.98 953.10,896.52C949.19,898.51 946.00,900.46 946.00,900.85C946.00,901.24 948.95,904.47 952.56,908.03C964.58,919.87 973.16,935.64 976.50,951.99C978.96,964.07 978.76,987.11 976.10,998.33C973.75,1008.21 970.01,1017.88 966.46,1023.25C964.27,1026.56 964.18,1027.00 965.74,1026.98C966.71,1026.98 971.50,1025.19 976.39,1023.01ZM713.75,1019.37C712.79,1019.08 712.00,1018.32 712.00,1017.68C712.00,1016.85 715.34,1016.48 723.25,1016.42C733.36,1016.35 734.18,1016.47 731.35,1017.63C727.88,1019.06 716.51,1020.18 713.75,1019.37ZM598.68,1016.11C594.30,1015.46 592.06,1013.95 592.02,1011.63C592.01,1011.16 593.24,1011.05 594.75,1011.40C596.26,1011.75 603.01,1012.31 609.75,1012.66C619.08,1013.14 622.00,1013.61 622.00,1014.65C622.00,1015.63 620.41,1016.00 616.25,1016.01C613.09,1016.02 608.92,1016.20 607.00,1016.42C605.08,1016.64 601.33,1016.50 598.68,1016.11ZM707.51,1004.68C704.59,997.69 704.68,997.63 716.75,998.42C736.83,999.72 741.50,1000.39 741.50,1001.94C741.50,1003.97 729.57,1006.91 718.26,1007.67L709.02,1008.29L707.51,1004.68ZM518.72,1004.51C512.94,1002.92 509.00,1000.47 509.00,998.48C509.00,996.65 508.55,996.61 515.59,999.04C518.84,1000.16 524.20,1001.32 527.50,1001.62C535.29,1002.33 536.08,1002.62 535.38,1004.46C534.63,1006.40 525.69,1006.42 518.72,1004.51ZM588.87,1005.33C587.34,1004.93 584.17,996.50 585.17,995.50C585.63,995.04 602.47,996.95 616.75,999.08C628.99,1000.91 627.29,1003.05 612.09,1004.95C603.79,1005.99 592.05,1006.18 588.87,1005.33ZM520.50,993.34C513.24,992.48 504.91,989.69 503.89,987.80C503.31,986.71 503.06,985.61 503.33,985.34C503.60,985.06 506.93,985.96 510.72,987.33C514.52,988.70 519.73,990.14 522.31,990.52C527.10,991.24 528.25,992.31 525.42,993.39C524.55,993.73 523.76,993.93 523.67,993.85C523.58,993.77 522.15,993.54 520.50,993.34ZM702.02,987.04C698.92,980.96 699.26,980.00 704.51,980.00C708.89,980.00 723.91,982.21 731.00,983.89L734.50,984.73L729.81,986.88C725.39,988.92 714.44,990.90 707.27,990.97C704.50,991.00 703.75,990.43 702.02,987.04ZM585.20,987.27C582.74,986.97 581.63,986.18 580.84,984.18C580.26,982.71 579.14,979.97 578.34,978.10C577.54,976.24 577.25,974.37 577.70,973.95C578.14,973.54 584.58,974.46 592.00,976.00C612.91,980.34 616.00,981.11 616.00,981.97C616.00,983.18 609.18,985.68 602.51,986.91C596.74,987.98 591.77,988.08 585.20,987.27ZM508.69,979.90C506.59,979.41 503.97,978.52 502.86,977.92C500.95,976.90 497.07,969.87 497.02,967.35C497.01,966.65 500.25,967.46 505.25,969.42C509.79,971.20 516.65,973.48 520.50,974.49C530.00,976.98 531.45,977.76 529.94,979.57C528.58,981.21 515.14,981.42 508.69,979.90ZM695.61,971.18C694.43,969.27 690.84,958.82 691.23,958.43C691.47,958.20 695.00,958.42 699.08,958.92C703.16,959.42 711.81,960.15 718.29,960.54C729.52,961.21 730.01,961.33 728.48,963.03C724.48,967.45 697.45,974.16 695.61,971.18ZM1028.87,958.90C1040.01,951.23 1047.06,945.40 1046.23,944.56C1045.86,944.19 1046.26,944.16 1047.12,944.49C1048.54,945.04 1053.91,941.48 1063.50,933.64C1066.46,931.21 1066.50,931.07 1066.50,921.34C1066.50,909.00 1066.35,907.69 1061.01,875.00C1057.11,851.09 1047.07,802.72 1038.60,767.00C1026.54,716.16 1016.33,679.64 1011.47,669.97C1006.99,661.04 989.23,642.88 979.50,637.27C973.03,633.54 955.85,625.78 950.00,623.95C947.43,623.14 935.67,618.76 914.29,610.64C907.57,608.09 901.27,606.00 900.27,606.00C899.14,606.00 897.20,608.13 895.05,611.75C890.45,619.49 873.66,635.99 862.00,644.22C844.45,656.62 823.25,666.48 803.20,671.59C797.31,673.09 792.16,674.61 791.75,674.96C791.06,675.55 789.91,683.38 787.05,707.00C785.87,716.77 784.14,729.90 783.38,735.00L782.85,738.50L787.17,734.30C789.55,731.99 793.17,729.40 795.22,728.55C802.82,725.38 812.49,727.32 820.83,733.68C824.71,736.65 828.98,745.01 828.99,749.69C829.00,753.92 829.91,754.29 834.65,751.94C837.99,750.29 839.15,750.16 841.87,751.10C843.65,751.72 845.38,751.95 845.73,751.60C846.08,751.26 845.53,748.39 844.52,745.24C839.36,729.13 845.88,713.27 860.50,706.38C867.05,703.29 876.82,703.13 883.52,706.01L888.21,708.02L897.36,700.58C902.39,696.48 911.00,689.28 916.50,684.57C927.88,674.84 930.53,673.97 931.59,679.60C931.96,681.59 932.04,687.49 931.76,692.73C931.31,701.36 931.45,702.40 933.26,703.87C934.35,704.77 936.56,707.52 938.16,710.00L941.07,714.50L948.78,714.57C955.37,714.62 957.38,715.08 962.50,717.73C978.77,726.11 984.88,743.54 977.32,760.00C975.68,763.58 973.59,767.12 972.67,767.87C970.30,769.82 970.62,772.11 973.68,775.00C979.34,780.35 982.45,792.95 980.01,800.61C979.32,802.75 977.52,806.55 976.01,809.05C973.32,813.51 973.29,813.75 974.54,819.83C975.25,823.25 976.55,831.33 977.44,837.78C978.33,844.22 979.31,851.19 979.62,853.25L980.18,857.00L988.54,857.00C1004.91,857.00 1017.63,861.77 1027.83,871.75C1034.58,878.36 1035.55,881.45 1032.00,885.00C1028.89,888.11 1025.02,887.49 1018.93,882.92C1015.94,880.67 1011.85,877.98 1009.84,876.94C1006.23,875.08 997.89,872.78 997.20,873.46C997.01,873.66 1000.00,875.47 1003.84,877.48C1008.41,879.89 1013.13,883.55 1017.52,888.09C1023.38,894.17 1024.13,895.36 1023.55,897.76C1022.83,900.77 1020.48,903.00 1018.05,903.00C1017.19,903.00 1013.63,900.51 1010.15,897.47C1002.58,890.87 998.41,888.63 990.82,887.06C985.77,886.02 973.99,886.41 971.74,887.70C971.32,887.94 974.04,891.14 977.79,894.82C981.54,898.49 986.22,903.52 988.20,906.00C992.72,911.66 1001.34,927.76 1004.02,935.56C1006.29,942.14 1010.00,961.48 1010.00,966.69L1010.00,970.03L1015.12,967.44C1017.94,966.01 1024.13,962.17 1028.87,958.90ZM573.39,963.86C571.92,961.92 568.93,953.73 569.49,953.18C569.75,952.92 577.05,953.68 585.73,954.86C594.40,956.05 603.45,957.01 605.83,957.01C612.28,957.00 610.64,959.04 601.92,961.88C592.85,964.84 575.07,966.07 573.39,963.86ZM758.31,960.99C751.04,959.98 746.91,958.19 749.09,956.98C749.87,956.55 759.50,955.47 770.50,954.56C781.50,953.66 792.20,952.47 794.27,951.92C800.82,950.17 802.17,952.86 796.25,955.86C787.98,960.04 769.50,962.54 758.31,960.99ZM496.22,959.25C495.12,958.29 493.72,955.97 493.11,954.10C491.19,948.24 491.49,947.91 496.75,950.00C499.36,951.03 505.89,952.84 511.25,954.02C516.61,955.20 521.00,956.53 521.00,956.97C521.00,958.82 512.65,961.00 505.59,961.00C500.00,961.00 497.74,960.58 496.22,959.25ZM432.50,952.90C437.43,951.56 441.00,948.40 441.00,945.38C441.00,942.75 437.57,940.00 434.28,940.00C432.72,940.00 432.00,939.41 432.00,938.12C432.00,937.09 433.77,925.72 435.93,912.87C438.09,900.02 440.40,885.08 441.06,879.67C442.20,870.38 442.16,869.69 440.28,867.17C439.18,865.70 437.63,864.37 436.83,864.21C432.41,863.34 426.07,873.69 419.19,893.00C416.93,899.33 413.33,909.45 411.18,915.50C407.67,925.35 406.99,926.53 404.69,926.81C400.96,927.26 397.00,924.34 397.00,921.13C397.00,919.69 399.72,907.48 403.05,894.00C409.28,868.77 412.00,856.12 412.00,852.32C412.00,849.31 409.40,847.00 406.01,847.00C403.89,847.00 402.15,848.16 399.13,851.59C391.51,860.24 379.77,886.12 375.86,902.90C373.57,912.74 372.31,914.05 366.50,912.59C363.54,911.85 363.49,910.97 364.99,882.69C366.05,862.87 365.01,846.19 362.48,842.34C360.98,840.04 357.61,839.30 355.38,840.77C350.41,844.04 345.72,866.39 344.38,893.20C343.63,908.36 343.96,909.59 350.35,914.94C352.03,916.35 357.27,920.88 361.98,925.00C371.56,933.37 380.04,939.69 389.07,945.18C393.85,948.08 396.52,948.98 401.81,949.47C405.49,949.80 411.43,950.93 415.00,951.97C422.57,954.18 426.95,954.41 432.50,952.90ZM688.04,948.90C685.11,942.45 685.31,941.67 689.75,942.37C691.81,942.70 700.48,943.23 709.00,943.56C717.52,943.88 725.11,944.35 725.86,944.59C727.73,945.19 725.70,947.60 722.72,948.31C711.68,950.97 705.29,952.11 698.27,952.65L690.03,953.29L688.04,948.90ZM750.25,946.34C746.81,945.53 744.00,944.49 744.00,944.04C744.00,943.58 748.16,942.92 753.25,942.56C758.34,942.20 770.97,940.99 781.32,939.86C798.54,937.97 802.41,937.92 800.73,939.60C799.89,940.44 787.48,944.97 781.50,946.60C775.02,948.38 758.27,948.24 750.25,946.34ZM494.37,944.86C492.10,944.35 489.55,943.16 488.70,942.22C486.89,940.20 485.40,934.99 486.64,935.01C487.11,935.02 491.55,936.14 496.49,937.51C501.44,938.88 507.29,940.01 509.49,940.01C517.61,940.04 521.01,942.91 515.43,945.02C512.30,946.22 499.99,946.12 494.37,944.86ZM565.16,942.13C564.52,940.01 564.00,937.83 564.00,937.30C564.00,936.72 568.19,937.06 574.25,938.12C579.89,939.10 588.46,940.22 593.30,940.60C598.14,940.98 601.74,941.64 601.30,942.07C599.22,944.08 587.47,946.00 577.26,946.00L566.32,946.00L565.16,942.13ZM495.50,932.51C494.95,932.32 491.89,931.39 488.70,930.44C483.25,928.80 480.19,926.12 481.44,924.09C481.74,923.61 484.57,924.27 487.74,925.54C493.98,928.06 505.02,930.27 508.96,929.80C510.65,929.59 511.53,930.05 511.78,931.25C512.11,932.80 511.27,932.99 504.32,932.92C500.02,932.88 496.05,932.69 495.50,932.51ZM775.50,917.59C804.70,914.99 839.29,910.59 843.75,908.90C845.67,908.17 846.00,907.32 846.00,903.06C846.00,895.41 849.32,887.77 854.71,883.03C858.96,879.29 866.65,876.00 871.15,876.00C874.76,876.00 882.56,879.33 888.11,883.24C893.56,887.08 902.18,890.23 904.68,889.29C907.10,888.37 910.00,880.12 910.00,874.15C910.00,862.80 905.84,861.04 888.24,864.93C874.53,867.96 839.17,873.69 820.50,875.91C744.86,884.91 653.70,884.96 585.00,876.06C580.88,875.52 572.10,874.38 565.50,873.53C538.30,870.00 506.09,864.06 475.00,856.82C453.63,851.85 452.00,851.55 452.00,852.62C452.00,853.08 453.67,856.17 455.71,859.47C459.21,865.15 459.45,866.07 459.96,875.88L460.50,886.27L479.00,891.52C496.77,896.57 536.12,905.21 556.00,908.42C586.72,913.39 621.92,916.96 664.50,919.41C680.06,920.31 759.63,919.00 775.50,917.59ZM933.87,879.61C936.59,877.20 940.79,873.86 943.21,872.20L947.60,869.18L946.83,859.84C944.91,836.54 943.85,825.78 943.35,824.48C942.82,823.08 933.23,819.00 930.46,819.00C929.33,819.00 929.00,820.44 929.00,825.35C929.00,835.89 925.79,841.98 918.36,845.50C914.23,847.46 914.14,848.51 917.95,850.47C925.79,854.53 930.23,868.55 927.55,880.79C926.59,885.15 927.92,884.90 933.87,879.61ZM933.58,868.75C933.82,865.86 934.46,858.58 935.01,852.58C935.55,846.57 936.00,838.81 936.00,835.33C936.00,829.04 936.73,827.77 938.88,830.35C941.88,833.97 940.78,856.97 936.98,870.25C935.29,876.14 933.05,875.15 933.58,868.75ZM677.00,867.26C677.00,865.19 652.08,816.76 645.21,805.50C627.80,776.91 611.29,752.17 605.67,746.24C598.86,739.04 590.21,737.37 577.94,740.87C562.76,745.21 551.67,754.38 547.95,765.65C545.65,772.62 547.55,773.00 564.17,768.89C574.01,766.46 575.73,766.42 573.88,768.64C571.14,771.95 558.91,779.79 555.50,780.43C553.58,780.79 552.00,781.28 552.00,781.50C552.00,781.73 553.09,783.52 554.43,785.49C555.76,787.46 557.02,789.57 557.23,790.19C557.80,791.90 571.00,787.57 581.33,782.27C588.15,778.78 590.42,778.02 591.33,778.95C593.17,780.83 579.80,793.04 571.62,796.94C567.98,798.68 565.00,800.34 565.00,800.64C565.00,801.18 571.16,810.00 571.54,810.00C571.65,810.00 575.09,808.91 579.18,807.57C589.34,804.26 597.39,800.60 603.61,796.47C612.64,790.48 614.65,792.42 608.03,800.73C602.86,807.22 594.60,813.39 585.37,817.66L577.96,821.08L579.73,823.51C580.70,824.84 582.22,825.95 583.11,825.97C583.99,825.99 589.99,824.39 596.44,822.41C602.89,820.44 608.39,819.05 608.66,819.33C610.02,820.69 593.01,832.00 589.60,832.00C588.78,832.00 587.84,832.45 587.50,832.99C586.76,834.19 591.76,841.00 593.37,840.99C596.64,840.96 614.69,832.58 621.97,827.70C630.46,822.01 632.93,821.35 630.87,825.31C626.84,833.05 611.39,846.39 603.41,849.03C601.54,849.65 600.00,850.58 600.00,851.09C600.00,851.61 601.37,854.46 603.04,857.42L606.08,862.81L610.42,860.39C612.81,859.05 617.85,856.91 621.63,855.62C625.41,854.34 631.88,851.54 636.00,849.40C640.12,847.26 643.84,845.36 644.25,845.18C644.66,844.99 645.27,845.53 645.59,846.38C646.36,848.39 640.33,855.77 633.92,860.66C631.22,862.72 629.34,864.73 629.75,865.12C631.29,866.60 677.00,868.67 677.00,867.26ZM753.00,866.02C762.62,865.50 773.81,864.77 777.86,864.41L785.23,863.74L786.99,859.62C787.96,857.35 792.24,847.54 796.49,837.82L804.22,820.14L802.41,815.40C800.39,810.11 794.88,804.00 792.13,804.00C789.41,804.00 789.15,803.28 790.19,798.70C792.21,789.82 786.72,782.29 777.49,781.25C773.78,780.83 772.29,781.20 768.96,783.41L764.92,786.08L762.56,780.79C757.27,768.92 746.80,764.41 734.28,768.60C721.12,773.01 715.39,784.72 721.92,793.88C723.08,795.52 723.69,797.07 723.27,797.32C722.85,797.57 719.99,798.29 716.93,798.92C710.74,800.20 701.73,805.66 697.58,810.67C693.80,815.24 691.32,821.60 690.57,828.72C689.68,837.07 691.18,842.27 695.41,845.50C698.50,847.86 698.71,848.38 698.25,852.46C697.64,857.91 698.34,860.89 701.05,864.34L703.15,867.00L719.32,866.98C728.22,866.97 743.38,866.54 753.00,866.02ZM817.81,861.39C821.95,860.76 821.55,859.35 816.46,856.62C814.28,855.45 812.30,854.38 812.07,854.23C811.83,854.09 812.05,853.55 812.57,853.05C813.72,851.91 820.00,854.71 823.35,857.86L825.78,860.14L842.94,857.51C862.64,854.49 873.90,852.43 874.63,851.71C875.84,850.49 877.98,840.03 877.99,835.22C878.00,828.71 876.26,824.47 871.87,820.30C865.76,814.51 849.13,808.46 842.69,809.68C833.41,811.45 824.76,819.39 817.28,833.00C812.12,842.40 804.00,860.18 804.00,862.08C804.00,863.00 808.92,862.76 817.81,861.39ZM574.65,847.44C530.02,778.66 515.90,758.80 508.17,753.89C494.38,745.15 479.02,745.62 464.39,755.26C461.70,757.03 455.20,762.76 449.95,767.99C439.01,778.88 436.12,784.49 435.26,796.54C434.48,807.59 436.63,811.46 451.16,825.19L463.11,836.48L473.31,839.25C486.41,842.80 510.77,848.58 523.30,851.10C534.78,853.41 534.34,853.58 544.32,843.11C547.52,839.75 550.56,837.00 551.07,837.00C552.91,837.00 551.94,842.62 549.04,848.75C547.42,852.19 546.18,855.05 546.29,855.12C547.16,855.63 575.38,859.77 578.65,859.87L582.80,860.00L574.65,847.44ZM835.00,847.42C832.52,845.58 828.14,843.10 825.25,841.92C822.36,840.74 820.00,839.31 820.00,838.76C820.00,836.99 826.31,838.90 830.62,841.99C832.88,843.61 834.92,844.74 835.16,844.51C835.39,844.28 836.91,845.16 838.54,846.47C840.48,848.03 841.16,849.18 840.50,849.81C839.85,850.43 837.91,849.58 835.00,847.42ZM431.35,836.95C433.71,831.82 433.03,830.20 428.33,829.81C424.73,829.52 424.51,829.29 423.83,825.30C422.89,819.72 421.33,817.00 419.09,817.00C416.55,817.00 415.22,818.87 414.83,823.00L414.50,826.50L412.73,823.26C411.76,821.48 410.09,814.34 409.02,807.39C407.11,794.94 405.51,791.00 402.37,791.00C401.64,791.00 400.31,792.12 399.41,793.50C397.53,796.37 397.92,800.84 400.94,810.80C401.97,814.21 402.52,817.17 402.16,817.39C401.80,817.60 397.06,815.81 391.64,813.40C386.21,810.99 375.86,807.17 368.64,804.92C361.41,802.68 347.18,797.21 337.00,792.78C317.50,784.29 310.79,782.49 309.65,785.46C308.14,789.41 315.33,795.34 327.39,800.08C331.30,801.62 334.27,802.94 334.00,803.00C333.73,803.07 328.10,803.33 321.50,803.59C303.51,804.29 292.81,806.62 290.86,810.26C289.92,812.02 290.10,812.66 291.95,814.16C297.64,818.77 310.66,819.18 330.12,815.39C349.55,811.59 359.86,811.87 376.75,816.66C382.24,818.21 383.74,820.00 379.57,820.00C373.93,820.00 368.54,823.65 369.71,826.67C370.95,829.92 374.79,830.09 384.96,827.37L394.78,824.73L405.64,828.46C418.52,832.89 423.35,835.42 425.07,838.63C426.93,842.11 429.25,841.49 431.35,836.95ZM492.00,839.14C492.00,838.51 494.29,836.76 497.08,835.25C505.33,830.79 517.01,821.72 524.40,814.05C529.09,809.18 531.62,807.22 532.31,807.91C533.86,809.46 531.65,815.68 527.03,822.84C522.78,829.41 514.21,835.96 507.11,838.05C501.21,839.78 492.00,840.45 492.00,839.14ZM901.09,837.49C903.53,836.65 907.44,834.23 909.77,832.10C913.68,828.53 914.00,827.84 914.00,823.17C914.00,820.39 913.51,817.82 912.91,817.45C912.32,817.08 910.09,817.56 907.98,818.51C899.21,822.47 890.40,815.86 894.37,808.30C896.78,803.71 904.19,797.19 908.88,795.54C913.19,794.02 926.34,793.42 929.42,794.61C932.10,795.64 931.18,796.88 927.25,797.52C920.03,798.69 915.56,800.90 913.11,804.52C911.79,806.46 911.02,808.35 911.39,808.72C911.76,809.09 915.02,807.94 918.64,806.16L925.21,802.91L937.36,803.54C948.77,804.13 949.77,804.02 954.00,801.83C963.93,796.69 962.61,787.00 951.54,783.78C949.27,783.12 945.82,780.90 943.68,778.73C939.05,774.04 939.58,772.99 948.14,769.87C951.40,768.68 954.33,767.28 954.65,766.76C954.97,766.24 954.29,764.53 953.14,762.97L951.04,760.14L954.41,758.05C957.92,755.89 961.00,750.75 961.00,747.07C961.00,743.14 958.15,738.06 954.81,736.03C950.47,733.38 946.65,733.49 940.33,736.43C934.55,739.12 932.72,738.58 931.63,733.86C930.91,730.77 928.61,729.60 925.99,731.00C922.87,732.67 919.79,732.26 920.38,730.25C922.22,723.99 922.15,721.15 920.12,719.12C912.89,711.89 901.85,718.37 898.90,731.58C898.20,734.67 897.01,737.44 896.25,737.73C893.75,738.69 890.19,736.18 887.46,731.52C883.23,724.31 875.25,721.36 868.55,724.54C861.61,727.84 860.52,733.95 864.14,749.35C865.86,756.71 866.16,760.21 865.67,767.69C864.98,778.17 863.30,783.10 859.62,785.51C857.44,786.94 856.53,787.00 853.29,785.95C847.63,784.12 844.09,779.53 844.04,773.95C843.97,765.94 839.84,764.62 835.49,771.20C831.94,776.55 831.20,782.53 833.51,787.08C836.50,792.99 837.90,794.00 843.05,794.00C845.66,794.00 850.81,794.93 854.49,796.07C858.18,797.21 861.32,798.00 861.47,797.82C861.63,797.64 864.02,792.55 866.80,786.50C872.63,773.78 875.46,764.97 876.43,756.50C877.67,745.71 879.12,744.07 881.08,751.25C882.24,755.50 881.78,772.77 880.37,778.00C879.82,780.03 880.89,779.37 886.10,774.43C893.89,767.05 910.56,753.74 917.86,749.07C922.00,746.43 923.60,745.89 924.86,746.68C928.77,749.14 927.44,751.23 913.86,763.97C896.37,780.38 878.55,798.22 876.41,801.50C875.17,803.39 875.00,804.40 875.80,805.20C876.61,806.01 879.19,804.16 885.30,798.40C894.14,790.08 906.55,781.95 910.86,781.67C915.76,781.35 914.43,784.49 907.30,790.10C892.88,801.44 884.00,809.27 884.00,810.64C884.00,811.42 884.69,812.33 885.53,812.65C886.37,812.97 888.22,815.22 889.64,817.65C891.68,821.13 892.34,823.85 892.75,830.53C893.35,840.07 893.40,840.11 901.09,837.49ZM841.33,831.69C839.77,830.43 836.58,828.78 834.24,828.03C831.89,827.28 829.47,826.07 828.86,825.34C826.90,822.97 831.67,823.77 836.06,826.54C838.27,827.93 840.58,828.76 841.19,828.38C841.87,827.96 842.03,828.14 841.60,828.84C841.17,829.53 841.92,830.46 843.44,831.16C844.85,831.80 846.00,832.70 846.00,833.16C846.00,834.62 844.24,834.07 841.33,831.69ZM483.00,814.08C483.00,813.58 486.71,810.25 491.25,806.68C495.79,803.11 501.94,797.69 504.92,794.64C507.90,791.59 510.71,789.32 511.17,789.61C514.81,791.85 506.73,801.47 494.35,809.63C486.62,814.72 483.00,816.14 483.00,814.08ZM674.54,810.75C675.77,805.08 679.15,799.00 684.05,793.63C687.60,789.75 688.71,787.81 688.43,785.97C688.22,784.61 686.90,775.40 685.49,765.50C684.08,755.60 681.91,742.78 680.66,737.00L678.40,726.50L673.78,725.66C668.35,724.66 660.36,726.61 654.94,730.26C651.85,732.33 651.47,733.10 651.20,737.78C650.90,742.91 650.95,743.00 653.70,742.99C655.24,742.98 658.98,742.31 662.00,741.50C665.02,740.69 667.61,740.02 667.75,740.01C667.89,740.01 668.00,740.65 668.00,741.45C668.00,743.37 662.67,747.36 656.66,749.93C651.90,751.97 651.83,752.06 652.38,755.75C652.69,757.81 653.44,764.00 654.05,769.50C654.66,775.00 655.31,780.01 655.50,780.63C655.74,781.42 658.26,781.18 664.03,779.82C668.53,778.75 672.47,778.14 672.79,778.46C673.84,779.51 669.43,784.45 664.43,787.83C661.72,789.66 659.37,791.52 659.21,791.95C659.05,792.38 661.67,796.89 665.03,801.96C668.38,807.03 671.37,811.81 671.67,812.59C672.58,814.96 673.80,814.17 674.54,810.75ZM817.42,806.90C820.49,804.09 823.00,801.22 823.00,800.50C823.00,799.79 821.60,796.39 819.90,792.95C817.15,787.41 816.84,785.94 817.21,780.10C817.48,775.99 818.51,771.69 819.95,768.70L822.27,763.89L819.71,761.20C816.78,758.11 815.30,753.55 816.92,752.55C818.97,751.28 818.09,747.10 815.40,745.34C813.38,744.02 812.40,743.89 811.01,744.76C808.86,746.10 808.00,745.44 808.00,742.46C808.00,741.24 807.33,739.69 806.51,739.01C803.93,736.87 802.14,738.57 801.81,743.46C801.44,748.86 800.08,749.47 797.99,745.18C797.10,743.34 796.04,742.37 795.38,742.79C792.95,744.34 790.00,752.04 790.00,756.82C790.00,760.21 789.13,763.45 787.16,767.35L784.32,772.99L789.58,775.96C796.33,779.77 799.72,784.28 801.14,791.33C802.06,795.92 802.01,797.28 800.89,798.65C799.85,799.90 799.80,800.43 800.70,800.73C803.52,801.68 806.98,805.31 808.15,808.53C808.84,810.44 809.95,812.00 810.62,812.00C811.29,812.00 814.35,809.70 817.42,806.90ZM460.00,804.65C460.00,803.90 462.81,801.12 466.25,798.46C473.55,792.82 487.41,781.38 494.38,775.25C498.21,771.88 499.55,771.21 500.63,772.11C504.26,775.12 500.68,783.35 492.48,790.85C486.32,796.47 484.90,797.11 485.74,793.89C486.25,791.94 486.10,791.87 483.90,793.03C482.58,793.72 479.93,795.50 478.00,796.97C473.06,800.76 463.56,806.00 461.63,806.00C460.73,806.00 460.00,805.39 460.00,804.65ZM389.00,797.03C389.00,793.68 385.38,784.23 378.54,769.68L373.92,759.86L370.48,762.89C368.58,764.55 365.23,766.45 363.02,767.11C360.81,767.78 359.00,768.81 359.01,769.41C359.02,770.71 370.78,784.96 379.09,793.75C385.75,800.79 389.00,801.87 389.00,797.03ZM721.95,753.89C724.40,752.62 729.10,751.10 732.40,750.50C737.38,749.60 738.68,748.93 740.18,746.46C743.16,741.56 743.20,741.29 741.57,738.14C740.71,736.47 739.99,734.51 739.98,733.80C739.96,733.08 738.85,729.81 737.50,726.53L735.05,720.56L737.50,718.00C739.68,715.73 739.89,714.84 739.35,710.27C738.78,705.50 738.96,704.89 741.70,702.15C745.02,698.83 750.37,697.01 756.85,697.01C760.40,697.00 761.71,697.55 764.02,700.03C765.58,701.69 767.07,702.70 767.34,702.26C767.61,701.83 768.83,692.48 770.06,681.49C771.28,670.49 772.62,660.59 773.03,659.47C773.64,657.82 775.59,657.11 783.64,655.62C797.64,653.04 813.75,647.66 826.31,641.36C843.61,632.70 852.56,626.48 864.84,614.60C875.23,604.54 880.73,596.26 885.58,583.39L887.97,577.05L885.73,574.92C877.85,567.39 854.98,552.69 853.49,554.18C853.21,554.45 853.50,556.13 854.12,557.90C858.70,571.06 837.75,596.11 810.32,610.28C768.59,631.83 726.71,627.59 708.33,599.95C703.06,592.03 705.39,592.50 688.50,595.94C680.54,597.56 680.50,597.58 680.81,600.53C682.70,618.82 693.92,635.87 710.35,645.40C714.04,647.55 717.29,649.66 717.55,650.09C717.82,650.52 716.03,661.81 713.57,675.18C711.12,688.56 707.71,708.02 706.01,718.42C704.30,728.83 702.67,737.73 702.38,738.20C702.09,738.66 702.52,741.17 703.34,743.77C704.15,746.37 705.78,751.78 706.95,755.78L709.08,763.07L713.29,759.64C715.61,757.75 719.50,755.16 721.95,753.89ZM775.81,758.28C777.15,753.91 775.55,750.54 771.38,748.96C766.22,746.99 754.99,748.25 755.00,750.79C755.01,751.18 757.72,752.62 761.04,754.00C764.35,755.38 768.26,757.74 769.72,759.25C773.25,762.91 774.44,762.72 775.81,758.28ZM443.06,754.75C445.78,752.41 448.00,750.12 448.00,749.65C448.00,749.18 442.98,743.55 436.85,737.15C416.06,715.42 414.01,712.22 414.02,701.50C414.03,692.58 416.90,685.73 424.19,677.22C427.62,673.21 428.05,667.26 425.11,664.60C423.39,663.04 422.88,663.02 419.68,664.36C412.88,667.20 410.05,674.72 409.10,692.50L408.40,705.50L406.13,700.50C400.75,688.68 399.76,684.10 400.26,673.50C400.64,665.55 401.38,661.77 403.87,655.06C407.48,645.32 408.07,636.84 405.35,633.83C403.13,631.38 401.72,631.52 398.15,634.53C394.60,637.52 392.65,642.93 390.44,656.00C388.32,668.50 385.72,671.53 381.24,666.75C376.03,661.18 373.92,650.78 373.14,626.83L372.47,606.15L369.39,602.33C365.83,597.92 362.70,597.05 359.82,599.67C355.89,603.22 354.60,607.14 354.60,615.50C354.60,623.10 354.86,624.02 359.76,634.00C367.73,650.23 369.79,661.44 365.46,665.04C362.18,667.76 354.48,665.43 337.43,656.54C325.25,650.19 320.07,648.00 317.25,648.00C306.19,648.00 306.20,658.91 317.25,664.63C318.79,665.42 326.76,667.84 334.96,669.99C357.07,675.79 366.00,680.90 366.00,687.73C366.00,694.14 362.75,695.78 337.00,702.38C313.32,708.45 307.56,710.59 304.01,714.64C300.45,718.69 300.49,722.15 304.12,725.23C310.19,730.37 318.60,729.35 333.86,721.63C351.23,712.85 377.13,704.39 367.00,710.80C362.19,713.85 353.81,723.17 351.81,727.70C347.32,737.84 348.97,749.25 355.24,751.43C360.55,753.27 364.46,746.83 367.03,732.00C370.06,714.52 378.85,708.49 390.28,716.06C396.88,720.43 410.53,732.47 425.00,746.68C431.88,753.43 437.64,758.97 437.81,758.98C437.99,758.99 440.35,757.09 443.06,754.75ZM629.26,736.32C629.83,725.04 629.57,723.00 627.51,723.00C626.82,723.00 625.62,722.07 624.87,720.93L623.49,718.86L616.18,721.79C612.16,723.41 608.43,725.17 607.90,725.70C607.28,726.32 608.81,728.07 612.20,730.60C615.11,732.76 619.71,737.34 622.44,740.77C625.17,744.20 627.70,747.00 628.06,747.00C628.42,747.00 628.96,742.20 629.26,736.32ZM391.97,743.06C393.45,739.51 393.33,739.29 387.73,735.28C382.58,731.58 381.00,732.24 381.00,738.11C381.00,741.21 381.53,742.14 384.25,743.83C388.80,746.64 390.57,746.46 391.97,743.06ZM762.88,738.45C763.52,737.82 759.86,713.56 758.99,712.63C758.53,712.15 756.14,712.55 753.58,713.52C748.15,715.60 747.96,716.67 751.05,727.39C754.74,740.18 754.80,740.26 758.91,739.49C760.88,739.12 762.67,738.65 762.88,738.45ZM467.77,734.59C474.05,731.41 484.00,722.46 484.00,720.01C484.00,717.60 478.90,719.16 475.86,722.50C472.56,726.13 469.33,727.03 468.40,724.59C467.87,723.21 468.60,721.63 473.54,713.50C476.35,708.86 476.69,705.20 474.38,704.32C472.21,703.48 462.00,708.58 462.00,710.50C462.00,711.34 462.53,712.87 463.18,713.91C464.68,716.32 461.85,724.29 458.70,726.50C455.31,728.87 453.76,726.48 453.87,719.04C454.02,708.34 455.36,705.24 463.07,697.87C471.66,689.64 472.37,686.69 464.83,690.59C460.73,692.71 459.26,691.22 458.04,683.74C456.99,677.28 455.50,674.00 453.63,674.00C451.85,674.00 448.59,685.51 448.91,690.64C449.16,694.79 446.82,701.00 444.99,701.00C444.47,701.00 443.78,699.76 443.47,698.25C442.16,691.86 440.87,688.04 439.81,687.38C439.17,686.99 437.60,687.92 436.23,689.51C433.77,692.38 433.68,693.95 435.60,701.00L436.29,703.50L433.14,700.56L430.00,697.63L430.00,700.76C430.00,703.29 431.71,705.83 438.75,713.78C443.56,719.22 450.34,726.89 453.81,730.83C457.29,734.77 460.33,738.00 460.59,738.00C460.84,738.00 464.08,736.46 467.77,734.59ZM561.01,731.38C563.29,729.87 564.69,728.28 564.30,727.63C563.94,727.01 561.02,722.58 557.82,717.79C551.60,708.47 550.63,704.55 553.84,701.65C554.85,700.73 559.69,698.64 564.59,696.99C569.83,695.23 574.26,693.09 575.34,691.78C577.14,689.61 577.13,689.52 574.91,687.72C572.44,685.73 568.12,685.99 560.76,688.58C558.69,689.31 557.00,689.59 557.00,689.21C557.01,688.82 558.12,685.80 559.48,682.50C562.36,675.52 562.73,670.49 560.43,669.61C556.39,668.06 552.30,673.59 548.88,685.25C547.62,689.51 546.09,693.00 545.47,693.00C544.84,693.00 542.43,691.24 540.10,689.09L535.87,685.18L536.54,675.84C537.99,655.83 530.86,633.45 524.35,637.55C521.26,639.50 521.22,642.30 524.14,652.50C527.21,663.26 528.88,675.00 527.34,675.00C525.77,675.00 520.31,667.21 493.52,626.77C488.79,619.62 485.31,615.30 484.62,615.71C481.78,617.40 476.03,622.60 476.02,623.50C476.01,624.68 497.04,650.96 510.03,666.00C513.12,669.58 518.43,676.24 521.82,680.81C527.22,688.07 528.00,689.69 528.00,693.56C528.00,696.00 527.71,698.00 527.35,698.00C526.99,698.00 524.37,695.80 521.52,693.11C514.89,686.84 508.97,683.80 504.18,684.19C501.35,684.43 500.43,684.98 500.21,686.56C499.76,689.66 503.10,693.20 512.50,699.59C517.17,702.76 521.00,705.69 521.00,706.08C521.00,706.48 519.54,707.31 517.76,707.94C509.48,710.82 502.87,718.02 504.94,721.89C507.38,726.44 511.39,725.32 520.86,717.44C527.94,711.56 530.53,710.41 534.50,711.41C537.50,712.16 545.98,720.62 551.50,728.35C553.70,731.43 555.85,733.97 556.27,733.98C556.70,733.99 558.83,732.82 561.01,731.38ZM656.00,705.87C656.00,705.52 653.13,695.62 649.62,683.87C646.11,672.12 642.90,660.92 642.50,659.00C642.10,657.08 641.59,655.20 641.37,654.83C640.82,653.89 631.13,660.26 631.06,661.60C631.03,662.21 632.77,668.74 634.94,676.10C637.11,683.47 639.79,692.91 640.90,697.07C642.01,701.24 643.35,705.80 643.89,707.21L644.87,709.78L650.43,708.14C653.49,707.24 656.00,706.22 656.00,705.87ZM689.79,697.75C690.99,691.56 692.96,680.46 694.17,673.08L696.37,659.66L692.94,657.08C682.97,649.60 673.23,638.31 668.20,628.41C666.23,624.53 662.96,612.88 661.56,604.75C661.20,602.69 660.61,601.00 660.24,601.00C658.88,601.00 614.10,612.28 604.00,615.17C587.23,619.97 583.48,622.89 572.36,639.79C565.27,650.58 564.38,653.00 567.52,653.00C569.88,653.00 575.84,658.92 577.16,662.57C577.84,664.46 578.76,666.00 579.20,666.00C580.26,666.00 580.21,665.26 579.00,662.99C578.30,661.68 578.34,660.91 579.15,660.41C579.84,659.98 580.04,660.13 579.64,660.78C579.27,661.37 579.42,662.14 579.98,662.49C580.55,662.84 581.00,662.20 581.00,661.06C581.00,659.93 581.47,659.00 582.05,659.00C583.63,659.00 589.26,662.07 588.70,662.63C588.44,662.90 589.52,664.54 591.11,666.28C592.70,668.02 594.01,670.13 594.03,670.97C594.07,672.97 596.79,676.54 597.63,675.70C598.54,674.79 605.91,646.02 605.96,643.18C605.98,641.91 606.49,639.96 607.08,638.85C608.13,636.89 608.22,636.89 610.20,638.67C611.33,639.68 613.56,642.83 615.17,645.67C616.78,648.51 618.64,651.28 619.30,651.81C620.14,652.49 623.63,650.71 630.90,645.89C645.80,636.02 649.97,636.53 653.59,648.68C656.26,657.66 669.99,700.22 671.03,702.75C671.72,704.43 672.79,705.01 675.23,705.03C677.03,705.04 680.30,705.90 682.50,706.95C684.70,707.99 686.75,708.87 687.05,708.92C687.35,708.96 688.58,703.94 689.79,697.75ZM629.83,703.22C629.09,700.33 628.22,699.00 627.05,699.00C626.12,699.00 624.29,697.87 622.99,696.49C619.98,693.29 619.07,694.72 620.41,700.51C621.32,704.40 621.80,705.00 624.04,705.00C625.46,705.00 627.49,705.64 628.56,706.42C629.62,707.20 630.59,707.75 630.70,707.64C630.81,707.53 630.42,705.54 629.83,703.22ZM392.63,699.48C392.29,698.60 391.52,698.18 390.92,698.55C389.86,699.21 383.00,693.39 383.00,691.83C383.00,691.40 384.10,691.47 385.43,691.97C387.14,692.62 388.00,692.54 388.30,691.70C388.54,691.04 389.33,691.85 390.06,693.50C390.79,695.15 392.05,697.29 392.85,698.26C393.66,699.22 394.08,700.25 393.78,700.55C393.49,700.84 392.97,700.36 392.63,699.48ZM496.00,666.03C496.00,664.82 467.01,632.00 465.95,632.00C464.84,632.00 453.00,642.02 453.00,642.95C453.00,643.38 460.97,647.88 470.70,652.96C480.44,658.04 489.99,663.28 491.93,664.60C495.95,667.33 496.00,667.35 496.00,666.03ZM771.00,602.93C783.68,600.88 801.53,593.55 812.90,585.73C818.79,581.68 829.11,571.07 831.51,566.60C833.39,563.13 833.38,563.06 831.20,558.69C829.86,556.00 829.00,552.42 829.00,549.53L829.00,544.77L825.75,545.36C823.96,545.68 819.50,546.24 815.84,546.61C809.58,547.24 809.03,547.12 806.59,544.68C804.01,542.10 803.43,539.66 804.63,536.52C804.98,535.61 810.04,531.68 815.88,527.78C834.82,515.14 853.67,493.90 858.89,479.30C863.80,465.58 865.20,464.53 874.64,467.50C888.30,471.80 900.93,463.45 901.82,449.55C902.39,440.46 898.78,434.11 890.50,429.65C886.97,427.75 884.91,427.50 873.08,427.50C864.22,427.50 859.54,427.13 859.30,426.40C858.57,424.22 861.90,422.95 869.88,422.33C874.35,421.99 878.00,421.39 878.00,421.00C878.00,420.61 874.88,419.78 871.07,419.15C862.26,417.69 859.00,416.44 859.00,414.52C859.00,413.25 860.77,413.00 869.58,413.00C877.25,413.00 880.06,412.68 879.77,411.82C879.26,410.28 866.93,401.83 860.20,398.41C856.03,396.28 854.96,395.26 855.20,393.61C855.42,392.04 856.20,391.51 858.25,391.54C861.41,391.58 861.90,390.42 859.09,389.53C856.85,388.82 854.46,386.21 855.29,385.37C855.61,385.06 858.18,385.56 861.00,386.50C863.82,387.44 866.32,388.01 866.56,387.77C866.80,387.53 864.81,385.92 862.14,384.18C856.45,380.50 854.58,378.49 855.47,377.04C856.73,375.01 858.95,376.11 873.96,386.17C887.61,395.32 889.40,396.24 891.82,395.40C893.29,394.88 894.50,394.01 894.50,393.48C894.50,392.94 890.31,389.80 885.19,386.50C856.00,367.69 854.50,366.59 854.50,364.00C854.50,361.93 854.95,361.53 857.09,361.67C860.00,361.85 869.74,366.22 878.00,371.05C881.02,372.82 883.27,374.04 883.00,373.78C881.25,372.08 868.47,361.66 863.25,357.66C857.22,353.05 855.82,350.85 858.06,349.46C860.13,348.18 863.65,350.07 874.00,358.01C896.73,375.46 904.31,381.02 904.75,380.59C905.85,379.48 898.55,371.91 883.79,358.84C866.42,343.48 862.55,338.77 862.55,333.03C862.55,327.74 864.87,324.85 875.39,317.08C888.17,307.64 890.98,302.73 887.48,295.97C884.08,289.38 876.04,288.26 855.35,291.47C848.67,292.51 840.59,293.07 835.19,292.85C822.67,292.36 819.29,289.98 812.82,277.12C810.25,272.00 807.32,266.91 806.32,265.80C803.17,262.31 795.22,258.94 788.69,258.34C776.74,257.22 768.73,260.15 751.50,271.93C734.66,283.45 725.30,283.60 714.90,272.51C707.74,264.86 703.11,266.32 691.66,279.81C679.96,293.61 673.23,298.70 663.50,301.14C660.75,301.83 658.11,302.71 657.64,303.11C656.54,304.02 647.25,324.91 640.96,340.63C634.65,356.38 626.86,382.35 623.90,397.50C621.86,407.90 621.55,412.43 621.57,431.50C621.59,450.43 621.90,454.93 623.81,463.73C629.01,487.71 637.77,504.99 652.98,521.27C671.70,541.32 697.52,554.91 728.50,561.01C731.80,561.66 744.62,562.52 757.00,562.91C781.38,563.67 784.18,564.29 787.68,569.64C789.20,571.95 789.22,572.51 787.92,574.83C784.78,580.43 767.96,588.63 757.37,589.73C751.51,590.33 751.04,591.04 751.01,599.25L751.00,604.00L757.75,603.99C761.46,603.99 767.42,603.51 771.00,602.93ZM346.00,545.36C322.54,543.18 299.12,533.53 282.16,519.05L274.50,512.51L260.00,512.49C249.10,512.47 243.90,512.02 239.06,510.66C231.03,508.40 219.10,502.79 215.02,499.36C211.30,496.24 211.57,494.73 217.11,487.29C219.30,484.36 221.00,480.95 221.00,479.48C221.00,478.04 221.49,475.95 222.10,474.82C222.93,473.25 222.90,472.87 221.96,473.18C221.29,473.40 220.23,475.14 219.61,477.04C218.35,480.95 218.08,481.00 203.65,480.03L195.80,479.50L194.53,476.00C193.83,474.07 191.60,468.02 189.57,462.55C187.55,457.08 185.25,448.34 184.47,443.12C183.69,437.91 182.70,433.33 182.27,432.94C181.85,432.56 179.70,431.68 177.50,431.00C164.60,426.98 145.27,414.29 133.93,402.40C113.14,380.59 100.50,346.47 102.31,317.08C103.97,290.25 111.85,268.22 127.10,247.87C131.13,242.49 133.82,237.98 133.50,237.14C133.20,236.35 132.23,231.61 131.36,226.60C126.68,199.87 135.29,166.59 153.53,140.88C156.52,136.67 156.82,135.58 156.89,128.67C156.95,122.54 156.64,120.90 155.28,120.14C153.86,119.34 153.81,118.94 154.91,117.61C157.15,114.91 158.00,116.82 158.00,124.56C158.00,129.30 158.40,132.00 159.10,132.00C159.70,132.00 164.30,128.14 169.32,123.41C178.32,114.94 188.88,107.76 194.26,106.45C197.95,105.55 198.56,104.27 196.41,101.90C193.80,99.01 186.26,95.93 180.25,95.28C177.36,94.97 175.00,94.33 175.00,93.86C175.00,93.39 174.35,93.00 173.56,93.00C172.77,93.00 171.80,92.48 171.41,91.85C170.92,91.06 171.44,90.89 173.11,91.31C176.25,92.10 177.15,91.40 179.89,86.00C187.04,71.89 207.36,62.69 224.44,65.84C227.90,66.48 232.63,67.00 234.95,67.00C241.80,67.00 239.32,68.85 226.98,72.95C213.30,77.49 209.52,79.09 203.13,83.01C200.48,84.65 194.75,87.14 190.40,88.56C186.06,89.97 182.14,91.48 181.70,91.92C181.25,92.35 183.28,93.71 186.20,94.94C189.11,96.16 193.68,98.28 196.35,99.64L201.19,102.12L209.48,99.12C220.77,95.04 232.26,93.01 244.36,92.96L254.50,92.92L257.64,88.65C261.09,83.95 272.59,73.48 280.69,67.65C288.21,62.24 304.09,55.12 314.48,52.48C347.05,44.24 376.88,48.58 405.25,65.71C414.43,71.24 426.87,82.43 434.53,92.04L439.85,98.71L453.18,99.28C466.45,99.85 472.00,100.99 485.00,105.82L490.50,107.87L490.84,105.80C491.32,102.86 488.22,95.30 486.20,94.50C485.27,94.13 481.35,92.68 477.50,91.29C466.57,87.32 457.95,82.63 451.37,77.07C445.26,71.90 434.41,59.26 435.31,58.36C435.58,58.09 438.15,59.06 441.02,60.51C443.90,61.97 449.90,64.06 454.37,65.17C464.60,67.70 467.93,69.87 477.05,79.92C481.08,84.37 485.17,88.00 486.13,88.00C487.09,88.00 488.16,88.45 488.50,89.00C488.84,89.55 491.02,90.00 493.35,90.00C502.00,90.00 518.05,96.20 523.50,101.64C526.26,104.40 524.12,104.49 521.24,101.74C515.62,96.36 497.41,90.48 492.39,92.41C490.92,92.97 491.52,93.98 496.07,98.69C501.16,103.95 501.23,104.09 497.25,100.99C494.91,99.16 492.72,97.95 492.38,98.29C492.04,98.63 492.07,100.96 492.44,103.47C493.10,107.83 493.39,108.17 499.04,111.02C506.38,114.72 507.22,114.75 506.39,111.25C505.76,108.58 505.82,108.61 508.42,112.00C515.94,121.82 524.23,137.68 528.52,150.47C531.39,159.00 533.42,174.34 532.46,180.15C531.90,183.54 532.28,184.27 537.68,190.24C569.38,225.32 566.56,279.30 531.11,315.66L524.13,322.82L525.62,328.16C526.44,331.10 527.37,338.45 527.68,344.50C528.00,350.55 528.70,356.06 529.25,356.75C531.11,359.09 547.14,357.31 549.92,354.45C550.48,353.88 550.50,351.71 549.97,349.00C548.25,340.24 548.84,331.43 551.69,322.97C553.17,318.59 554.73,315.00 555.16,315.00C555.59,315.00 556.70,317.59 557.62,320.75C559.46,327.04 559.77,325.48 553.35,342.50C552.52,344.70 552.08,347.85 552.37,349.50C552.66,351.15 553.47,355.43 554.18,359.00C554.88,362.57 555.46,369.32 555.47,374.00C555.50,381.04 555.08,383.36 553.04,387.50C550.49,392.68 535.66,408.99 534.53,407.86C533.51,406.84 540.87,385.13 544.48,378.50C548.21,371.63 551.52,362.19 550.54,361.20C550.17,360.84 548.44,361.39 546.69,362.43C538.16,367.51 532.42,370.37 529.60,370.95C526.78,371.53 526.24,372.31 523.44,380.04C521.75,384.69 518.93,391.30 517.18,394.72C515.43,398.14 514.00,401.39 514.00,401.94C514.00,402.49 516.85,405.84 520.34,409.37C539.82,429.15 543.61,460.90 529.29,484.40C526.64,488.74 525.95,490.70 526.66,491.83C528.81,495.24 530.47,495.31 535.55,492.21C545.77,485.97 554.37,485.59 561.89,491.04C567.98,495.45 570.45,500.90 570.47,510.00C570.49,518.67 567.78,525.59 561.60,532.69C553.22,542.30 538.91,545.29 529.32,539.43C519.70,533.56 516.67,519.88 522.29,507.66C524.26,503.37 524.72,501.34 524.01,500.03C522.19,496.62 520.09,496.93 514.22,501.47C508.83,505.64 495.12,512.00 491.53,512.00C488.30,512.00 481.00,514.26 481.00,515.25C481.00,515.81 479.88,517.31 478.50,518.59C477.12,519.86 476.00,521.32 476.00,521.84C476.00,522.35 478.14,523.47 480.75,524.33C487.86,526.66 492.79,528.85 493.49,529.98C494.41,531.47 493.52,531.24 489.79,529.04C485.58,526.55 473.38,523.69 470.30,524.46C469.01,524.78 464.76,527.98 460.86,531.56C452.29,539.42 448.81,541.00 440.02,541.00C427.58,541.00 420.17,539.18 426.32,537.63C427.60,537.31 430.69,535.49 433.20,533.58C435.70,531.67 439.04,529.79 440.62,529.41C442.21,529.03 447.19,527.21 451.69,525.36C457.31,523.06 461.49,522.00 464.99,522.00C470.65,522.00 474.29,520.48 477.90,516.62C480.65,513.68 480.77,513.76 471.00,512.02C464.01,510.77 455.48,507.31 451.31,504.03C449.89,502.91 448.07,502.00 447.27,502.00C446.47,502.00 442.59,505.46 438.66,509.68C422.70,526.80 401.61,538.61 378.37,543.44C370.76,545.02 353.41,546.05 346.00,545.36ZM548.00,526.50C555.92,522.41 559.68,510.23 554.79,504.55C549.99,498.96 540.13,501.52 535.41,509.56C528.84,520.78 537.23,532.07 548.00,526.50ZM370.00,520.59C394.20,516.60 414.47,504.30 429.69,484.34L432.25,480.99L429.88,473.74C427.90,467.70 427.51,464.51 427.55,454.50C427.59,444.12 427.96,441.45 430.29,434.74C434.20,423.50 438.13,417.17 445.76,409.80C456.35,399.58 467.78,394.75 481.86,394.53L490.22,394.40L493.67,388.84C495.57,385.78 498.49,379.28 500.17,374.39C505.71,358.20 505.19,335.77 498.90,319.77L497.04,315.04L505.14,308.27C513.75,301.07 524.44,287.81 528.35,279.50C534.18,267.10 535.50,261.23 535.45,248.00C535.41,236.49 535.16,234.85 532.29,227.30C528.33,216.88 523.29,209.20 515.04,201.01L508.50,194.52L508.46,183.01C508.42,169.89 506.89,163.44 501.27,152.72C494.71,140.18 483.58,131.37 467.30,125.81C459.82,123.26 456.85,122.78 447.50,122.65C441.45,122.57 434.20,122.84 431.39,123.27L426.29,124.03L421.61,115.99C409.88,95.79 386.28,78.63 364.00,74.09C360.98,73.47 353.89,72.86 348.26,72.73L338.02,72.50L338.01,69.81C338.00,65.88 336.29,65.46 335.76,69.26C335.51,71.04 334.96,73.29 334.55,74.25C334.00,75.51 334.24,76.00 335.39,76.00C337.41,76.00 337.43,77.41 335.46,80.41C334.07,82.54 334.08,82.82 335.57,83.39C336.79,83.86 337.04,84.73 336.56,86.76C335.65,90.63 332.66,92.79 327.21,93.53C321.64,94.28 314.18,97.85 313.77,99.95C313.15,103.15 297.00,99.98 297.00,96.65C297.00,95.96 297.56,94.83 298.25,94.14C299.25,93.13 299.17,92.69 297.87,91.95C296.94,91.43 295.94,89.08 295.55,86.52C294.57,79.94 292.00,81.07 292.00,88.08C292.00,89.69 291.57,91.00 291.05,91.00C288.72,91.00 277.40,101.87 271.73,109.54L265.50,117.97L258.50,117.23C249.53,116.29 237.02,116.67 230.00,118.10C195.81,125.03 168.68,150.36 158.34,185.00C155.68,193.91 155.50,195.59 155.55,212.00C155.60,228.35 155.79,230.02 158.32,237.44L161.04,245.37L155.20,250.97C144.98,260.76 135.41,276.60 130.72,291.50C125.41,308.37 125.01,325.87 129.57,342.19C130.91,346.97 132.00,351.80 132.00,352.94C132.00,355.35 134.21,355.66 136.00,353.50C137.86,351.26 139.38,351.64 144.00,355.50C146.53,357.62 149.27,359.00 150.91,359.00C154.88,359.00 157.20,364.15 155.88,370.03C154.62,375.65 153.84,376.79 152.93,374.33C152.36,372.79 151.51,372.42 149.28,372.74C147.43,373.02 145.91,372.60 145.07,371.59C143.58,369.79 138.00,369.41 138.00,371.11C138.00,371.79 138.95,371.98 140.46,371.60C142.24,371.15 143.19,371.48 143.88,372.78C144.41,373.77 146.01,375.20 147.44,375.97L150.03,377.36L147.50,380.00C144.85,382.76 145.07,384.00 148.20,384.00C149.26,384.00 150.92,382.55 152.03,380.67C153.70,377.84 154.44,377.41 157.00,377.79C161.17,378.40 165.20,383.35 164.80,387.39C164.61,389.38 164.01,390.40 163.14,390.21C161.36,389.84 159.00,391.85 159.00,393.74C159.00,394.90 159.31,394.98 160.37,394.11C161.41,393.24 162.05,393.36 163.08,394.59C167.81,400.30 185.03,409.10 197.00,411.92L204.50,413.70L205.15,423.10C206.01,435.43 208.46,446.79 212.19,455.79C215.77,464.41 217.16,466.00 221.10,466.00C223.34,466.00 224.28,466.61 225.02,468.54C225.80,470.60 226.32,470.90 227.80,470.11C229.16,469.38 229.51,468.27 229.21,465.65C228.85,462.57 229.17,461.96 231.88,460.56C235.79,458.54 239.00,460.14 239.00,464.10C239.00,466.17 238.33,466.92 235.75,467.71L232.50,468.71L235.35,469.49C237.86,470.17 238.13,470.61 237.61,473.22C236.77,477.40 233.35,481.83 229.66,483.51L226.50,484.94L231.03,484.39C234.27,484.00 237.12,484.43 241.03,485.92C244.04,487.06 247.06,488.00 247.75,488.00C249.52,488.00 249.30,485.49 247.39,483.91C245.12,482.02 241.09,472.85 240.77,468.85L240.50,465.50L247.85,465.46C254.80,465.42 255.26,465.56 256.16,467.93C256.91,469.89 256.75,470.71 255.42,471.68C254.05,472.69 253.86,473.86 254.40,477.97C254.77,480.75 255.33,483.69 255.64,484.50C256.01,485.47 255.26,486.33 253.43,487.03C250.84,488.01 250.76,488.19 252.32,489.75C253.62,491.05 254.25,491.15 255.19,490.21C255.86,489.54 258.80,489.00 261.74,489.00C264.68,489.00 270.53,488.29 274.73,487.42L282.38,485.84L287.20,491.34C292.91,497.85 304.02,506.42 313.13,511.34C330.09,520.50 350.47,523.81 370.00,520.59ZM204.17,513.96C204.08,509.81 204.68,503.83 205.50,500.66C207.61,492.56 207.48,491.88 203.00,487.50C200.80,485.35 199.00,483.24 199.00,482.80C199.00,482.36 202.09,482.00 205.88,482.00C214.75,482.00 216.16,483.34 212.93,488.72C211.69,490.80 210.04,493.24 209.27,494.15C207.99,495.66 205.63,507.76 204.71,517.50C204.50,519.73 204.26,518.17 204.17,513.96ZM696.22,516.53C689.74,514.51 685.00,510.49 685.00,507.02C685.00,502.25 687.51,500.63 693.44,501.57C696.22,502.01 704.65,502.42 712.16,502.49C727.12,502.61 729.00,503.23 729.00,508.05C729.00,515.65 709.53,520.69 696.22,516.53ZM191.00,500.12C191.00,499.20 195.38,496.00 196.64,496.00C197.03,496.00 196.29,497.12 195.00,498.50C192.60,501.05 191.00,501.70 191.00,500.12ZM693.00,497.31C687.14,496.69 676.34,494.10 670.51,491.92C664.40,489.63 656.33,485.35 655.45,483.92C655.14,483.41 654.01,483.00 652.94,483.00C651.36,483.00 651.04,483.61 651.25,486.21C651.57,490.30 649.27,490.95 644.63,488.08C637.69,483.79 633.30,473.32 634.69,464.36C635.62,458.37 639.46,451.64 644.48,447.23C649.55,442.76 653.46,441.30 655.60,443.08C657.61,444.76 657.34,446.44 654.50,449.82C649.17,456.15 651.51,458.35 667.05,461.65C678.63,464.11 707.04,464.10 722.85,461.62C742.93,458.49 773.93,448.71 782.67,442.75C787.20,439.68 787.03,437.26 782.25,436.48C774.00,435.13 772.94,434.76 771.96,432.92C769.10,427.59 776.70,424.88 788.72,426.95C797.34,428.43 804.58,431.72 810.03,436.64C820.70,446.26 821.94,461.46 812.82,470.95C807.83,476.14 805.53,475.99 805.43,470.48C805.32,463.56 805.04,462.18 803.43,460.57C802.56,459.71 801.55,459.00 801.18,459.00C800.81,459.00 797.12,461.77 793.00,465.16C771.51,482.81 751.62,491.79 723.62,496.51C715.49,497.87 701.73,498.23 693.00,497.31ZM189.00,493.31C184.95,492.65 171.57,487.64 172.76,487.25C173.43,487.02 173.63,485.50 173.27,483.29C172.56,478.87 174.51,479.51 175.50,484.01C176.25,487.41 179.37,490.00 182.72,490.00C184.33,490.00 185.00,489.41 185.00,488.00C185.00,485.04 186.17,485.61 189.24,490.04C190.75,492.22 191.87,493.94 191.74,493.86C191.61,493.79 190.38,493.54 189.00,493.31ZM495.78,488.88C512.10,481.02 521.19,460.99 516.59,443.03C513.73,431.89 507.91,424.59 497.61,419.24C493.21,416.95 491.25,416.58 483.50,416.55C476.16,416.52 473.54,416.95 469.30,418.86C462.74,421.82 454.76,430.14 451.20,437.75C448.78,442.90 448.50,444.64 448.50,454.50C448.50,464.30 448.79,466.12 451.14,471.12C455.67,480.79 463.50,487.64 474.00,491.13C478.45,492.60 490.66,491.34 495.78,488.88ZM166.50,485.16C164.85,484.15 162.84,482.53 162.04,481.55C160.94,480.23 167.55,484.04 170.92,486.67C172.41,487.85 168.96,486.66 166.50,485.16ZM716.39,480.49C738.48,477.60 772.88,466.02 781.87,458.46C786.91,454.21 784.61,453.93 775.75,457.69C759.77,464.47 744.52,468.98 725.00,472.68C717.44,474.12 710.46,474.48 690.75,474.48C671.72,474.47 666.00,474.75 666.00,475.70C666.00,476.39 668.38,477.64 671.29,478.48C683.82,482.12 698.84,482.79 716.39,480.49ZM156.98,477.48C155.05,475.15 156.43,474.71 158.49,476.99C159.49,478.10 159.85,479.00 159.28,479.00C158.71,479.00 157.68,478.31 156.98,477.48ZM178.15,475.01C169.63,470.89 161.84,464.44 154.94,455.77C151.19,451.06 145.51,436.63 146.17,433.47C146.83,430.34 162.55,446.51 171.28,459.31C178.21,469.47 180.44,471.95 185.50,475.17C190.53,478.36 191.09,478.98 188.95,478.99C187.54,479.00 182.69,477.21 178.15,475.01ZM351.17,443.85C340.47,438.56 337.71,423.44 345.71,413.93C348.98,410.04 354.98,407.00 359.38,407.00C362.20,407.00 363.21,406.40 364.85,403.75C367.87,398.86 371.95,395.35 377.38,392.95C382.76,390.57 387.75,390.78 393.23,393.62C396.05,395.08 396.39,395.06 398.17,393.27C400.15,391.29 400.16,391.38 397.48,380.50C397.35,379.95 389.64,374.35 380.37,368.06C361.69,355.38 350.95,347.85 345.86,343.86C342.72,341.40 341.99,341.25 334.87,341.73L327.24,342.25L302.41,367.09L277.59,391.92L279.44,395.71C280.55,397.98 281.45,402.50 281.70,407.00C282.08,413.93 281.88,414.90 279.07,419.69C273.73,428.80 266.32,432.88 254.95,432.96C243.28,433.03 233.64,426.11 230.39,415.31C228.57,409.26 228.64,405.83 230.69,399.30L232.39,393.93L229.30,390.83L226.20,387.74L219.60,389.05C213.76,390.22 212.37,390.17 207.53,388.64C200.77,386.51 196.79,383.26 194.08,377.66C191.82,373.00 191.32,364.85 192.95,359.19C193.86,356.01 193.73,355.79 189.66,353.33C183.50,349.61 180.69,344.82 180.18,337.21C179.63,328.96 181.83,323.16 187.26,318.51C194.25,312.53 202.17,311.47 210.58,315.38C220.45,319.98 224.96,329.71 221.99,340.01C220.89,343.83 220.63,343.49 227.90,347.90C235.69,352.64 239.65,365.19 236.08,373.81C234.82,376.84 234.90,377.26 237.11,379.63C241.00,383.79 242.48,384.19 247.04,382.37C250.21,381.10 252.96,380.85 258.89,381.31L266.61,381.91L291.37,357.13L316.13,332.35L313.49,327.43C311.21,323.18 310.89,321.54 311.18,315.50C311.51,308.70 312.74,305.59 318.23,297.81C319.23,296.38 318.83,295.54 315.70,292.50C309.51,286.49 307.62,281.76 307.51,272.02L307.42,263.55L291.06,253.98L274.71,244.41L269.10,246.30C264.94,247.71 262.07,248.04 257.93,247.57L252.37,246.94L246.05,255.09L239.74,263.23L241.37,266.65C245.54,275.40 242.02,287.04 233.44,292.84C228.80,295.99 228.08,296.17 221.41,295.83C213.15,295.42 208.75,293.00 204.60,286.61C199.67,279.00 199.95,269.88 205.33,262.75C209.87,256.73 215.94,253.85 223.40,254.21C228.89,254.47 229.44,254.29 231.40,251.60C232.55,250.01 234.96,246.93 236.75,244.76C238.54,242.59 240.00,240.24 240.00,239.53C240.00,238.83 238.88,236.24 237.50,233.78C234.06,227.62 233.17,218.53 235.45,212.82C239.49,202.72 248.38,196.01 257.74,195.99C262.01,195.99 262.68,195.67 264.25,192.91C266.53,188.91 266.44,187.95 263.57,185.23C260.88,182.68 258.00,175.16 258.00,170.69C258.00,159.24 268.43,148.06 279.21,147.96C283.36,147.92 283.58,147.75 285.80,143.01C289.65,134.81 298.51,131.10 306.39,134.39C310.92,136.28 311.62,135.99 312.54,131.83C313.49,127.49 321.73,119.45 326.62,118.09C337.20,115.15 346.74,119.19 351.75,128.75C353.26,131.63 354.93,134.00 355.45,134.00C355.97,134.00 358.11,132.81 360.21,131.35C364.68,128.25 372.06,127.21 377.27,128.92C382.39,130.61 387.55,136.12 389.49,141.96C390.94,146.33 391.51,147.00 393.83,147.01C398.59,147.03 405.11,151.17 408.76,156.50C412.04,161.28 412.17,161.82 411.84,169.08C411.55,175.52 411.06,177.31 408.58,180.89L405.65,185.11L407.81,189.55C409.71,193.46 410.37,194.00 413.24,194.01C415.03,194.02 418.78,195.08 421.56,196.37C442.71,206.22 440.04,237.37 417.43,244.48C411.59,246.31 408.51,246.12 399.44,243.32L394.38,241.75L378.53,252.18L362.68,262.62L362.57,271.56C362.46,281.65 361.28,284.71 354.81,291.79L350.89,296.07L353.96,299.95C355.65,302.08 357.70,305.42 358.51,307.38C360.62,312.43 360.37,321.59 357.98,326.86C356.89,329.26 356.01,331.73 356.02,332.36C356.03,332.99 358.84,335.41 362.27,337.75C365.70,340.08 372.14,344.58 376.60,347.75C398.08,363.01 401.00,365.00 401.91,365.00C402.44,365.00 404.37,363.61 406.19,361.90C417.37,351.45 435.42,352.66 444.09,364.44C452.35,375.65 451.27,389.81 441.44,399.36C434.01,406.58 425.19,408.46 415.15,404.98C409.67,403.08 408.60,402.97 407.38,404.19C406.25,405.33 406.19,406.25 407.10,408.86C408.87,413.94 407.76,422.25 404.70,426.88C400.59,433.09 393.97,436.48 385.70,436.60C379.56,436.70 378.58,437.01 375.70,439.74C373.94,441.41 371.06,443.50 369.30,444.39C364.72,446.70 356.42,446.45 351.17,443.85ZM707.84,435.25C702.16,429.28 692.11,416.14 689.87,411.74C686.91,405.95 687.90,402.91 695.26,395.11C708.37,381.21 714.85,371.15 719.81,357.00C721.45,352.32 723.36,347.25 724.07,345.73C726.42,340.62 733.28,341.29 734.65,346.75C735.96,351.96 731.51,371.31 726.22,383.50C722.98,390.94 717.34,399.41 712.60,403.95C710.62,405.84 709.00,407.87 709.00,408.45C709.01,409.03 711.96,412.88 715.57,417.00C719.18,421.12 722.56,425.54 723.07,426.82C724.41,430.14 723.23,433.62 719.81,436.50C715.54,440.10 712.12,439.75 707.84,435.25ZM365.09,434.45C370.57,431.62 371.50,425.34 367.08,420.92C359.30,413.15 347.32,422.87 353.61,431.85C356.45,435.91 360.50,436.83 365.09,434.45ZM390.13,423.43C393.78,421.55 396.37,415.97 395.48,411.92C394.61,407.93 389.65,404.00 385.50,404.00C381.51,404.00 376.00,408.19 376.00,411.22C376.00,415.26 378.40,421.17 380.81,423.07C383.79,425.41 386.13,425.50 390.13,423.43ZM262.69,416.47C266.43,414.02 268.28,408.77 267.04,404.15C264.99,396.53 257.66,393.17 250.51,396.56C241.78,400.70 242.40,414.12 251.50,418.09C254.18,419.26 259.64,418.47 262.69,416.47ZM858.34,406.43C856.81,402.45 862.54,402.13 867.12,405.95L869.50,407.93L864.22,407.97C860.32,407.99 858.78,407.59 858.34,406.43ZM323.84,403.98C309.75,396.54 308.36,377.55 321.10,366.65C327.03,361.57 334.20,360.07 341.52,362.37C352.04,365.69 357.30,372.85 357.43,384.03C357.49,389.98 357.18,391.01 353.95,395.50C349.04,402.35 341.91,406.02 333.64,405.96C329.57,405.93 326.27,405.26 323.84,403.98ZM156.96,400.07C158.37,397.45 158.28,397.11 156.25,397.20C155.29,397.23 153.60,396.89 152.50,396.44C150.59,395.65 150.58,395.69 152.25,397.38C153.21,398.35 154.00,399.79 154.00,400.57C154.00,402.63 155.75,402.33 156.96,400.07ZM342.58,392.11C345.82,390.14 349.00,384.67 349.00,381.07C349.00,377.41 346.35,372.39 343.26,370.18C334.62,364.03 324.06,368.67 322.33,379.38C320.62,389.90 333.22,397.82 342.58,392.11ZM151.39,391.42C152.25,389.18 152.18,389.00 150.50,389.00C149.67,389.00 149.00,389.89 149.00,391.00C149.00,393.38 150.54,393.65 151.39,391.42ZM428.89,390.89C432.07,389.78 436.00,384.01 436.00,380.44C436.00,377.38 432.98,372.42 430.08,370.71C425.51,368.01 420.64,368.50 416.57,372.08C410.32,377.56 411.10,385.65 418.30,390.04C421.96,392.27 424.37,392.47 428.89,390.89ZM662.72,384.75C657.97,381.17 656.74,370.45 660.05,361.60C663.55,352.24 671.50,347.52 677.95,350.97C680.19,352.17 683.00,358.97 683.00,363.20C683.00,374.59 675.59,386.00 668.19,386.00C666.10,386.00 663.64,385.44 662.72,384.75ZM792.93,381.44C787.14,376.61 784.63,375.73 780.14,376.98C774.45,378.56 773.12,378.23 770.92,374.75C766.42,367.61 770.65,351.30 777.99,347.51C784.33,344.23 791.25,346.26 797.70,353.28C806.83,363.21 807.86,383.52 799.30,384.80C798.15,384.97 795.47,383.56 792.93,381.44ZM219.46,375.45C225.39,372.64 226.92,364.44 222.51,359.19C215.83,351.26 202.68,357.45 204.35,367.74C205.03,371.93 206.57,373.90 210.50,375.61C214.42,377.32 215.56,377.30 219.46,375.45ZM538.73,365.34C548.19,359.75 547.90,358.61 537.26,359.49C532.44,359.89 528.17,360.73 527.77,361.36C527.36,361.99 527.02,363.96 527.02,365.75C527.00,368.64 527.31,369.00 529.77,369.00C531.30,369.00 535.33,367.35 538.73,365.34ZM921.92,358.75C933.35,319.46 933.71,301.67 923.51,279.38C919.20,269.97 916.30,265.84 908.31,257.74C898.53,247.83 889.79,244.02 870.07,241.06C858.86,239.38 856.74,237.63 850.78,225.12C846.64,216.42 844.52,213.32 839.11,208.00C818.82,188.05 789.60,188.24 762.50,208.50C746.48,220.46 740.75,222.39 728.15,220.04C722.07,218.91 721.03,218.98 716.00,220.89C712.50,222.22 706.26,226.41 698.83,232.40C692.41,237.58 684.09,243.32 680.33,245.16C673.91,248.30 672.87,248.50 663.00,248.50C653.95,248.50 651.88,248.18 648.00,246.16C642.41,243.26 637.58,238.80 633.96,233.20C632.43,230.83 630.97,229.26 630.72,229.70C630.47,230.14 629.67,232.85 628.95,235.73C627.90,239.89 627.87,242.73 628.78,249.57C631.44,269.42 641.39,281.18 654.24,279.66C665.30,278.35 670.08,274.79 691.00,252.28C698.77,243.92 703.52,240.94 712.11,239.06C719.86,237.37 727.60,241.01 734.72,249.71C737.02,252.52 739.04,254.00 740.56,254.00C741.83,254.00 745.71,251.99 749.19,249.54C774.60,231.58 778.82,229.60 792.00,229.54C799.17,229.51 801.39,229.92 806.18,232.16C815.57,236.56 820.45,241.92 827.06,255.11C830.38,261.73 834.12,267.74 835.70,269.01C838.26,271.04 839.22,271.18 847.00,270.63C851.67,270.31 858.88,269.10 863.00,267.95C872.34,265.35 888.85,264.31 894.87,265.95C900.64,267.52 908.12,274.58 911.12,281.29C914.69,289.27 914.41,299.45 910.37,308.00C906.59,316.01 899.87,323.58 891.70,329.04C888.29,331.32 885.50,333.48 885.50,333.84C885.50,334.21 892.13,340.76 900.23,348.40C908.34,356.04 915.66,363.36 916.51,364.65C917.35,365.94 918.38,367.00 918.78,367.00C919.19,367.00 920.60,363.29 921.92,358.75ZM121.58,356.81C121.52,355.29 122.26,354.43 124.00,353.97L126.50,353.30L123.72,351.98C121.60,350.97 120.67,350.93 119.77,351.83C119.13,352.47 117.68,353.01 116.55,353.03C114.75,353.06 114.90,353.42 117.77,356.03C121.67,359.58 121.68,359.58 121.58,356.81ZM139.00,358.00C139.00,357.45 138.52,357.00 137.94,357.00C137.36,357.00 137.16,357.45 137.50,358.00C137.84,358.55 138.32,359.00 138.56,359.00C138.80,359.00 139.00,358.55 139.00,358.00ZM204.88,343.89C206.66,343.27 208.71,341.53 209.53,339.94C213.02,333.18 209.62,326.29 202.29,325.31C198.57,324.81 197.75,325.10 195.05,327.80C189.94,332.91 191.09,340.83 197.33,343.54C201.24,345.25 201.03,345.24 204.88,343.89ZM809.87,329.25C809.08,328.29 806.73,324.95 804.65,321.82C801.46,317.05 799.62,315.51 793.05,312.09C784.96,307.88 783.36,305.81 784.95,301.64C786.64,297.24 789.56,295.67 794.92,296.30C804.19,297.40 813.98,303.87 818.26,311.73C822.69,319.87 822.83,327.41 818.60,330.23C816.54,331.61 811.33,331.02 809.87,329.25ZM659.57,327.43C656.35,324.21 658.37,318.61 664.88,312.73C672.44,305.90 678.28,304.28 682.00,308.00C683.99,309.99 684.64,314.49 683.23,316.61C682.83,317.22 680.92,318.51 679.00,319.48C677.08,320.44 673.21,322.98 670.41,325.12C664.92,329.30 662.05,329.91 659.57,327.43ZM341.06,324.97C343.64,323.59 346.00,318.81 346.00,314.95C346.00,310.26 340.43,305.00 335.47,305.00C332.48,305.00 331.06,305.72 328.37,308.57C326.42,310.63 325.00,313.18 325.00,314.60C325.00,318.55 327.72,323.95 330.21,324.95C333.34,326.21 338.72,326.22 341.06,324.97ZM630.49,316.75C631.80,313.86 633.80,309.12 634.94,306.20L637.01,300.90L633.54,299.45C631.63,298.65 629.80,298.00 629.48,298.00C627.90,298.00 624.67,308.01 624.60,313.11C624.53,317.95 625.93,322.00 627.68,322.00C627.92,322.00 629.18,319.64 630.49,316.75ZM229.26,281.90C236.66,272.85 226.45,260.21 216.97,266.69C213.49,269.08 213.03,269.98 213.02,274.53C213.00,278.97 215.06,282.65 218.36,284.05C221.62,285.44 227.28,284.33 229.26,281.90ZM340.35,282.47C344.94,280.23 347.49,276.24 347.49,271.27C347.50,267.71 346.90,266.44 343.79,263.32C340.47,260.00 339.54,259.62 334.91,259.62C330.23,259.62 329.42,259.96 326.37,263.29C320.67,269.51 321.96,277.56 329.37,282.08C333.16,284.40 336.17,284.50 340.35,282.47ZM319.31,248.97C323.66,245.55 328.65,244.00 335.33,244.00C340.44,244.00 342.90,244.60 347.61,246.99C350.85,248.63 353.82,249.98 354.20,249.99C354.83,250.00 365.58,243.23 380.65,233.32L385.81,229.93L385.27,222.13C384.60,212.39 385.81,208.54 391.52,202.19L395.90,197.32L394.20,193.91C392.68,190.87 391.96,190.44 387.50,189.96C377.31,188.85 370.01,181.88 368.80,172.10C368.57,170.24 367.55,169.43 364.17,168.44C359.15,166.96 356.68,164.97 353.36,159.75C350.63,155.46 348.26,155.01 344.19,158.02C340.53,160.73 332.22,161.61 325.53,160.01L320.18,158.72L316.84,162.53C315.00,164.62 311.62,167.17 309.32,168.18C305.45,169.90 305.05,170.44 304.01,175.44C301.92,185.53 295.10,191.92 284.83,193.42C281.46,193.91 279.73,194.77 278.58,196.51C276.42,199.81 276.59,201.26 279.42,203.92C283.81,208.05 286.30,215.57 285.74,222.96C285.46,226.56 285.07,230.12 284.87,230.88C284.51,232.20 313.09,250.87 315.62,250.96C316.23,250.98 317.89,250.09 319.31,248.97ZM101.48,237.96C101.12,237.39 101.12,235.23 101.47,233.16C101.82,231.09 101.42,221.52 100.58,211.90C98.92,193.00 99.36,186.62 103.04,176.16C105.57,168.95 110.59,160.56 115.14,155.93C117.13,153.89 120.43,149.06 122.47,145.20C128.70,133.33 143.00,120.29 143.00,126.47C143.00,127.28 142.41,127.71 141.69,127.43C139.85,126.73 132.38,132.86 130.00,137.03C128.91,138.94 126.61,143.18 124.89,146.46L121.76,152.42L123.49,157.24C124.95,161.31 125.04,162.78 124.05,166.71C123.41,169.27 122.06,172.52 121.06,173.93C120.07,175.34 118.92,178.07 118.51,180.00C118.11,181.93 115.79,188.55 113.36,194.73C109.90,203.54 108.36,209.52 106.22,222.48C104.73,231.57 103.19,239.00 102.81,239.00C102.43,239.00 101.83,238.53 101.48,237.96ZM268.18,230.37C275.88,223.51 272.59,211.33 262.52,209.44C256.05,208.22 249.00,214.28 249.00,221.05C249.00,226.32 249.72,227.73 253.88,230.61C256.76,232.62 258.37,233.04 261.79,232.68C264.15,232.44 267.03,231.40 268.18,230.37ZM415.31,230.07C418.61,228.82 422.00,223.06 422.00,218.71C422.00,214.00 418.08,209.37 412.92,207.98C405.46,205.97 399.00,211.32 399.00,219.52C399.00,224.19 400.37,226.65 404.31,229.05C407.79,231.17 411.51,231.52 415.31,230.07ZM325.00,222.04C310.10,216.90 306.10,198.11 317.22,185.48C322.42,179.58 327.76,177.04 335.00,177.04C342.10,177.04 347.41,179.51 352.69,185.26C358.13,191.19 359.62,196.43 358.14,204.47C355.29,219.97 340.99,227.55 325.00,222.04ZM341.70,209.04C346.76,205.96 348.33,202.78 347.75,196.80C347.34,192.45 346.68,191.10 343.64,188.31C340.61,185.53 339.27,185.00 335.26,185.00C329.27,185.01 324.37,187.87 322.44,192.49C320.57,196.96 320.62,199.40 322.67,203.72C325.92,210.56 335.03,213.11 341.70,209.04ZM288.48,178.75C291.28,176.32 292.68,170.83 291.60,166.52C290.82,163.43 285.61,160.01 281.65,160.00C272.30,159.99 267.37,171.52 273.92,178.08C277.73,181.89 284.51,182.20 288.48,178.75ZM396.74,176.47C401.29,173.28 401.39,163.94 396.90,160.38C392.95,157.24 385.28,158.40 382.57,162.54C379.82,166.73 381.46,175.81 385.23,177.33C387.95,178.43 394.66,177.92 396.74,176.47ZM306.81,155.96C308.25,154.62 309.00,152.73 309.00,150.46C309.00,142.95 300.53,140.21 295.56,146.11L292.94,149.22L296.72,153.52C300.95,158.33 303.59,158.96 306.81,155.96ZM375.08,153.83C379.71,149.93 379.99,149.43 379.42,146.08C378.71,141.84 374.89,138.00 371.39,138.00C365.09,138.00 360.03,143.97 361.46,149.73C362.25,152.93 366.73,158.00 368.76,158.00C369.52,158.00 372.37,156.12 375.08,153.83ZM142.08,151.42C142.13,150.25 142.36,150.01 142.68,150.81C142.97,151.53 142.94,152.40 142.60,152.73C142.27,153.06 142.04,152.47 142.08,151.42ZM338.02,148.49C347.28,143.70 342.98,128.94 332.35,129.02C330.78,129.03 328.54,129.82 327.37,130.77C317.27,138.96 326.56,154.42 338.02,148.49ZM142.44,140.62C141.64,137.43 140.35,137.32 137.32,140.17C136.05,141.36 134.72,142.06 134.38,141.71C134.03,141.36 134.97,140.05 136.47,138.79C137.96,137.53 140.32,135.29 141.70,133.82C144.05,131.31 147.00,130.97 147.00,133.21C147.00,133.76 146.32,133.95 145.49,133.64C144.27,133.17 144.02,133.92 144.16,137.53C144.35,142.71 143.40,144.43 142.44,140.62ZM149.00,121.58C149.00,118.54 151.39,110.00 152.24,110.00C152.74,110.00 152.78,110.98 152.32,112.25C151.87,113.49 151.51,116.41 151.53,118.75C151.54,121.54 151.12,123.00 150.28,123.00C149.57,123.00 149.00,122.36 149.00,121.58ZM134.50,120.00C134.84,119.45 135.57,119.00 136.12,119.00C136.67,119.00 136.84,119.45 136.50,120.00C136.16,120.55 135.43,121.00 134.88,121.00C134.33,121.00 134.16,120.55 134.50,120.00ZM168.25,113.50C168.26,111.30 168.47,110.52 168.71,111.76C168.95,113.01 168.94,114.81 168.69,115.76C168.44,116.72 168.24,115.70 168.25,113.50ZM134.75,115.20C129.27,114.84 128.25,113.00 133.54,113.00C135.49,113.00 138.84,112.10 141.00,111.00C144.98,108.97 149.16,108.17 145.50,110.14C144.40,110.73 142.60,112.18 141.50,113.36C139.89,115.08 138.56,115.44 134.75,115.20ZM157.48,107.78C157.08,106.75 157.45,105.41 158.40,104.45C160.88,101.98 160.37,100.00 157.25,99.97C154.62,99.94 154.58,99.87 156.44,98.47C159.10,96.46 160.57,96.62 162.98,99.21L165.03,101.41L162.77,102.62C161.53,103.29 159.98,105.11 159.34,106.67C158.36,109.03 158.05,109.21 157.48,107.78ZM148.00,107.02C148.00,105.91 152.80,104.46 153.65,105.31C153.95,105.62 153.90,106.35 153.54,106.93C152.71,108.27 148.00,108.35 148.00,107.02ZM170.00,101.73C170.00,100.06 170.77,98.66 172.09,97.95C175.16,96.31 175.28,97.23 172.49,101.02L170.00,104.39L170.00,101.73ZM147.50,101.00C147.84,100.45 149.10,100.01 150.31,100.02C152.09,100.03 152.22,100.21 151.00,101.00C149.03,102.27 146.71,102.27 147.50,101.00ZM160.83,89.13C157.71,88.23 154.83,87.16 154.41,86.75C152.86,85.19 158.74,86.20 164.50,88.48C171.34,91.19 169.27,91.56 160.83,89.13ZM318.73,84.32C318.14,79.03 317.56,78.29 315.44,80.05C313.70,81.49 314.07,86.18 316.12,88.64C318.03,90.95 319.25,88.92 318.73,84.32ZM314.00,88.04C314.00,87.51 312.81,85.97 311.34,84.62C308.87,82.32 308.53,82.26 306.34,83.69C303.68,85.44 303.50,86.10 305.20,87.80C306.62,89.22 314.00,89.42 314.00,88.04ZM321.43,75.27C320.92,73.20 320.06,71.50 319.51,71.50C317.95,71.50 317.71,74.89 319.06,78.13C320.84,82.44 322.66,80.24 321.43,75.27ZM321.97,68.04C322.78,67.53 323.11,66.77 322.70,66.36C322.29,65.95 321.19,66.38 320.26,67.31C318.45,69.12 319.54,69.58 321.97,68.04ZM335.54,59.76C334.69,59.29 334.00,58.25 334.00,57.45C334.00,55.24 332.42,55.72 330.62,58.46C328.43,61.81 328.54,62.04 332.00,61.35C334.65,60.82 335.01,61.03 335.06,63.12L335.13,65.50L336.10,63.06C336.85,61.18 336.73,60.43 335.54,59.76Z"/></svg>