<svg version="1.1" xmlns="http://www.w3.org/2000/svg" xmlns:xlink="http://www.w3.org/1999/xlink" width="1280" height="1280" viewBox="0 0 1280 1280">
  
            <path stroke="none" fill="#000000" fill-rule="evenodd" d="M343.00,1242.50C327.58,1239.03 315.12,1229.66 311.34,1218.72C308.39,1210.18 309.46,1185.85 313.48,1169.91C314.12,1167.37 313.87,1167.23 300.32,1162.51C235.19,1139.82 176.02,1104.88 136.92,1066.01L125.33,1054.50L124.67,1048.10C123.13,1033.32 124.72,996.89 128.01,971.50C141.04,871.02 162.46,796.97 193.25,746.00C207.60,722.25 225.65,700.49 242.95,686.11C248.55,681.46 249.88,679.66 252.95,672.59C275.85,619.91 326.05,582.03 390.31,568.94C398.15,567.34 401.42,566.12 405.87,563.13C418.49,554.64 441.78,542.56 462.00,534.02C468.88,531.11 474.84,528.43 475.25,528.07C475.66,527.70 469.92,521.88 462.48,515.13C449.06,502.94 432.91,485.88 426.99,477.63C424.19,473.74 423.46,473.30 419.46,473.15C405.84,472.64 391.27,461.17 383.21,444.62C369.96,417.41 371.74,385.19 387.09,374.46L390.68,371.95L388.29,363.72C383.79,348.23 381.80,333.78 381.27,312.50C380.57,284.73 383.12,267.77 391.17,246.76L394.14,239.01L391.45,232.29C381.25,206.78 386.54,173.01 403.71,154.03C408.33,148.93 417.72,142.05 420.12,142.01C420.45,142.00 421.69,144.63 422.87,147.85C427.66,160.99 431.98,164.24 445.46,164.81C457.14,165.30 465.73,163.32 477.88,157.32C487.80,152.41 493.61,147.38 506.93,132.11C516.74,120.88 526.72,115.32 538.96,114.30C548.18,113.53 556.56,115.91 567.50,122.43C577.89,128.61 585.02,131.00 593.06,131.00C604.22,131.00 609.87,127.65 620.02,115.00C629.03,103.77 634.43,98.66 640.50,95.64C651.18,90.32 660.41,89.83 672.32,93.93C689.84,99.98 704.50,114.85 718.92,141.20C723.35,149.30 728.32,154.54 732.59,155.61C739.81,157.42 752.40,152.51 763.00,143.74C770.90,137.20 774.65,132.42 777.62,125.08C778.87,122.01 780.56,119.36 781.37,119.19C783.41,118.76 790.22,125.11 793.85,130.80C802.06,143.73 803.72,161.21 798.61,180.93C797.03,187.02 797.85,187.38 804.18,183.39C809.40,180.09 813.57,175.63 816.21,170.50C819.92,163.30 821.56,163.63 825.90,172.45C833.87,188.65 832.74,211.79 823.01,231.23C814.94,247.35 803.09,260.52 789.57,268.43C783.18,272.16 782.87,272.51 783.41,275.43C786.70,293.23 788.10,327.03 786.50,350.23L785.76,360.97L788.88,364.51C793.09,369.31 795.72,374.72 797.49,382.22C802.50,403.48 794.32,426.31 778.44,435.40C775.15,437.28 774.27,438.75 770.06,449.50C759.46,476.56 746.07,497.10 726.27,516.67C721.17,521.71 717.00,526.03 717.00,526.27C717.00,526.51 722.51,527.01 729.25,527.38C778.79,530.13 823.42,545.13 854.43,569.44C862.21,575.54 874.96,588.07 878.17,592.78C879.61,594.88 880.61,595.08 891.61,595.48C925.84,596.71 964.73,607.78 994.89,624.87C998.90,627.14 1002.36,629.00 1002.59,629.00C1003.59,629.00 1002.86,609.07 1001.49,598.57C999.88,586.28 997.58,574.25 996.67,573.33C996.36,573.03 994.81,573.71 993.21,574.85C987.32,579.04 971.64,585.94 964.28,587.58C958.65,588.83 953.85,589.14 945.54,588.77C935.41,588.33 932.99,587.81 919.44,583.18C911.22,580.37 900.00,576.90 894.50,575.45C877.09,570.87 865.63,563.93 853.17,550.41C839.91,536.01 832.83,517.32 832.75,496.50C832.71,484.83 833.99,478.27 838.42,467.39C839.78,464.03 841.60,456.96 842.45,451.67C845.23,434.39 850.94,423.15 862.66,411.89C869.68,405.14 876.69,400.31 882.91,397.93L887.50,396.17L887.17,391.60C886.64,384.26 890.27,377.70 899.43,369.45C909.31,360.56 914.62,357.00 918.01,357.00C920.61,357.00 920.73,357.24 921.33,363.67C922.12,372.04 925.36,377.45 930.44,378.86C933.93,379.82 945.08,378.91 953.50,376.97C961.28,375.18 968.66,375.81 975.80,378.87C986.60,383.50 1023.28,403.31 1030.18,408.23C1037.28,413.30 1044.09,422.37 1074.86,467.72C1084.28,481.60 1093.82,495.55 1096.08,498.72C1105.97,512.64 1133.39,554.74 1141.21,568.00C1182.26,637.62 1198.06,691.36 1194.21,748.26C1192.48,773.83 1186.70,804.49 1181.24,817.01C1173.38,835.07 1159.26,838.40 1085.50,839.63C1016.75,840.78 965.89,837.52 924.63,829.32C910.34,826.48 910.66,826.39 909.57,833.39C905.76,857.79 889.90,916.48 871.02,976.00C856.51,1021.75 853.68,1031.02 843.09,1067.50C825.29,1128.80 822.00,1146.54 818.02,1202.50C817.43,1210.75 816.73,1218.90 816.46,1220.60L815.97,1223.70L802.73,1225.87C795.45,1227.06 789.10,1228.03 788.61,1228.02C787.43,1227.99 788.52,1173.80 790.00,1159.00C791.15,1147.53 798.57,1117.23 806.56,1091.36C808.45,1085.23 810.00,1079.94 810.00,1079.60C810.00,1079.25 808.35,1079.66 806.33,1080.51C797.40,1084.24 768.57,1091.45 750.50,1094.48C721.52,1099.34 678.53,1101.28 648.50,1099.07C591.97,1094.93 541.33,1081.91 498.21,1060.44C489.25,1055.98 481.75,1052.59 481.56,1052.92C481.36,1053.24 479.17,1058.90 476.69,1065.50C474.21,1072.10 471.01,1080.10 469.59,1083.28C467.43,1088.09 467.00,1090.54 467.00,1097.92C467.00,1120.09 457.66,1147.43 442.20,1170.53C433.80,1183.08 394.49,1225.95 385.50,1232.36C373.55,1240.88 367.83,1243.22 358.03,1243.62C352.89,1243.83 346.92,1243.39 343.00,1242.50ZM360.37,1210.13C370.19,1200.30 377.76,1191.97 377.20,1191.62C376.64,1191.28 367.70,1187.90 357.34,1184.13C346.98,1180.35 336.12,1176.30 333.22,1175.13C328.27,1173.14 327.89,1173.11 327.25,1174.75C326.88,1175.71 326.55,1184.38 326.53,1194.00C326.50,1211.09 326.56,1211.62 329.19,1216.59C331.01,1220.05 333.41,1222.69 336.69,1224.83C339.33,1226.56 341.73,1227.98 342.01,1227.99C342.29,1227.99 350.55,1219.96 360.37,1210.13ZM406.87,1160.25C420.21,1145.69 427.82,1133.83 434.29,1117.50C439.46,1104.46 441.23,1094.77 441.23,1079.50C441.23,1057.38 435.35,1041.09 422.94,1028.83C411.63,1017.67 412.23,1017.18 412.38,1037.28C412.52,1057.41 411.02,1067.23 405.04,1085.11C396.58,1110.42 380.51,1135.63 364.98,1147.92C362.49,1149.89 360.31,1151.93 360.14,1152.46C359.85,1153.34 394.99,1168.75 397.68,1168.92C398.33,1168.97 402.46,1165.06 406.87,1160.25ZM350.22,1136.06C375.13,1115.10 392.47,1078.85 394.56,1043.35L395.14,1033.50L386.50,1028.03C377.91,1022.59 369.98,1014.79 346.62,988.76C334.68,975.46 322.66,967.32 307.00,961.92C297.13,958.51 279.31,958.13 263.00,960.96C237.18,965.45 235.00,965.50 235.00,961.68C235.00,958.85 243.80,950.77 251.71,946.34C264.74,939.06 285.15,934.00 301.53,934.00L310.99,934.00L318.74,927.15C330.86,916.44 350.57,895.63 361.72,881.75C372.36,868.51 387.51,846.25 395.34,832.34C401.61,821.21 411.20,800.22 414.49,790.44L417.20,782.37L427.35,779.09C447.17,772.67 472.42,761.36 474.52,757.97C475.33,756.66 479.00,756.73 479.00,758.07C479.00,759.90 476.93,763.21 469.78,772.75C465.97,777.84 461.99,782.47 460.93,783.04C459.47,783.82 459.00,785.15 459.00,788.50C459.00,792.49 459.46,793.35 463.75,797.31C489.30,820.95 518.73,840.83 546.91,853.50C562.00,860.28 561.72,861.07 545.00,859.01C518.35,855.73 481.61,844.23 459.00,832.08C454.88,829.87 451.05,828.05 450.50,828.04C449.95,828.03 448.27,831.28 446.76,835.26C443.47,843.96 435.30,857.98 428.87,865.97L424.18,871.78L430.63,883.07C447.17,912.06 469.19,938.70 495.64,961.71C500.68,966.10 504.47,970.65 508.57,977.21C511.76,982.32 517.21,990.32 520.67,994.98C525.95,1002.09 526.75,1003.68 525.62,1004.81C523.77,1006.66 518.86,1005.24 505.45,998.97C499.59,996.24 494.45,994.00 494.04,994.00C493.62,994.00 493.00,996.70 492.66,999.99C492.09,1005.47 492.29,1006.38 495.02,1010.69C496.84,1013.56 498.00,1016.73 498.00,1018.83C498.00,1022.97 495.01,1028.12 491.51,1029.99C490.10,1030.75 489.10,1031.84 489.27,1032.43C489.45,1033.02 498.12,1037.79 508.55,1043.04C557.40,1067.63 617.57,1079.94 689.00,1079.98C720.32,1080.00 746.57,1077.20 773.81,1070.96C782.54,1068.96 809.52,1060.60 811.63,1059.23C812.26,1058.83 815.11,1051.08 817.98,1042.00C820.84,1032.92 830.76,1002.55 840.02,974.50C864.73,899.60 868.74,886.36 875.49,857.48L878.99,842.50L873.33,829.25L867.67,816.00L871.79,807.25C877.85,794.37 879.58,789.49 882.17,777.93C884.20,768.84 884.50,764.86 884.49,747.00C884.47,724.20 883.57,718.10 877.28,698.50C873.74,687.48 868.50,675.98 859.71,659.90C857.12,655.17 855.00,650.58 855.00,649.71C855.00,646.94 856.98,646.75 860.29,649.21C862.06,650.52 866.94,653.71 871.15,656.30C888.51,667.00 905.74,690.35 913.35,713.50C920.14,734.17 922.78,760.26 919.66,776.00C918.84,780.12 918.48,783.82 918.84,784.21C921.45,786.96 962.22,793.89 988.69,796.08C1005.12,797.44 1057.67,796.77 1068.34,795.07L1075.17,793.98L1079.71,797.98C1089.15,806.28 1100.90,809.81 1122.00,810.68C1134.22,811.18 1156.48,809.84 1157.81,808.52C1158.37,807.97 1160.99,790.75 1162.68,776.50C1165.06,756.46 1165.06,718.31 1162.67,703.10C1156.47,663.51 1137.96,617.33 1102.72,553.50C1090.45,531.28 1083.94,520.47 1082.63,520.13C1082.15,520.01 1080.35,523.41 1078.61,527.70C1070.16,548.61 1054.33,562.63 1032.51,568.54C1026.16,570.25 1025.90,570.45 1026.52,572.92C1035.17,606.93 1035.86,632.26 1029.48,681.50C1023.80,725.31 1024.90,737.16 1035.65,748.13C1040.93,753.52 1040.26,754.74 1032.95,752.99C1014.87,748.65 1001.76,729.16 999.00,702.49C998.12,694.03 998.46,686.37 1000.54,667.50L1001.20,661.50L990.85,655.79C955.40,636.24 916.47,625.00 884.20,625.00L872.46,625.00L862.57,615.75C836.67,591.54 811.71,575.93 787.32,568.69L782.14,567.15L785.24,572.32C798.93,595.13 803.05,603.50 811.07,624.77C819.80,647.92 827.53,682.49 829.60,707.61L830.26,715.72L816.88,716.39C794.67,717.52 732.34,719.77 662.00,721.99C625.42,723.15 593.54,724.33 591.15,724.62C587.27,725.09 586.87,725.39 587.40,727.33C587.72,728.52 589.88,737.71 592.20,747.75L596.40,766.00L601.95,766.00C609.06,766.00 647.08,764.25 657.36,763.45L665.21,762.84L664.54,769.17C663.37,780.20 657.96,823.38 657.39,826.24C656.88,828.82 643.90,843.83 606.82,884.76C599.22,893.15 593.00,900.65 593.00,901.44C593.00,902.22 594.39,906.61 596.09,911.18C597.79,915.76 602.29,928.25 606.09,938.95C609.89,949.65 613.41,958.81 613.91,959.31C614.46,959.86 618.94,958.53 625.16,955.97C676.52,934.86 730.32,929.45 779.30,940.47C785.78,941.93 792.94,943.77 795.20,944.57C797.46,945.37 799.44,945.89 799.59,945.74C800.19,945.14 812.72,874.62 813.31,868.52C813.48,866.79 812.64,866.45 806.60,865.76C780.47,862.79 751.88,852.86 740.38,842.76C735.87,838.80 736.12,837.93 741.25,839.71C749.16,842.46 764.19,843.48 777.42,842.16C789.73,840.94 810.68,836.72 812.25,835.15C812.73,834.67 813.81,828.93 814.66,822.39C815.50,815.85 817.18,803.60 818.38,795.18C819.59,786.75 820.33,779.71 820.04,779.54C819.74,779.37 810.57,779.68 799.65,780.23C783.22,781.05 779.57,780.99 778.48,779.86C776.61,777.94 774.56,759.68 775.93,757.14C776.77,755.55 778.39,755.07 784.24,754.62C797.26,753.63 840.61,753.14 841.95,753.97C843.48,754.92 843.41,755.75 838.41,797.50C834.86,827.09 831.07,855.38 828.50,871.50C827.71,876.45 824.33,897.72 820.99,918.76C813.21,967.85 813.13,968.27 811.10,967.45C797.40,961.87 779.68,957.03 763.50,954.45C752.95,952.76 723.93,950.97 722.88,951.93C722.54,952.24 721.79,969.38 721.22,990.00L720.17,1027.50L716.69,1037.47C714.77,1042.95 712.77,1047.58 712.24,1047.75C711.71,1047.93 710.65,1046.60 709.89,1044.79C708.76,1042.11 708.56,1033.18 708.82,996.63L709.13,951.75L702.32,952.48C685.46,954.28 663.63,958.88 647.50,964.05C636.95,967.43 613.24,977.14 609.41,979.65C608.12,980.50 606.57,981.02 605.96,980.82C605.36,980.62 601.53,971.98 597.45,961.62C593.38,951.26 585.25,931.28 579.39,917.22C570.52,895.93 568.98,891.48 570.16,890.58C582.66,881.07 598.75,865.20 633.11,828.50L640.60,820.50L642.86,803.50C644.10,794.15 645.33,785.43 645.60,784.13C646.08,781.86 645.92,781.78 641.80,782.37C633.92,783.50 584.83,788.16 584.49,787.82C584.30,787.64 580.59,773.54 576.23,756.49L568.31,725.50L552.91,725.84L537.50,726.18L525.57,702.46C508.88,669.24 489.65,637.55 474.95,619.00C466.75,608.66 449.48,591.71 442.04,586.71L436.58,583.03L434.04,585.44C429.92,589.36 422.05,592.77 408.36,596.57C385.66,602.87 368.85,608.96 354.50,616.07C319.68,633.34 298.15,655.48 278.75,693.94C273.45,704.46 273.55,704.97 281.00,704.96C285.10,704.95 286.16,704.38 292.92,698.48C297.00,694.91 300.61,692.00 300.94,692.00C301.92,692.00 318.13,702.08 325.87,707.50L333.01,712.50L332.39,722.50C331.98,729.20 331.31,732.87 330.39,733.61C328.47,735.15 328.50,735.26 333.00,742.38C338.83,751.62 338.66,752.00 328.75,752.02C322.07,752.03 319.75,752.46 316.55,754.27C311.60,757.08 306.29,763.92 305.40,768.65C304.70,772.42 305.43,774.27 312.05,785.50C321.35,801.26 320.87,815.65 310.71,826.09C307.49,829.40 307.21,830.16 307.26,835.59C307.32,842.12 305.80,845.88 300.83,851.55C297.64,855.17 291.34,859.00 288.55,859.00C287.71,859.00 286.45,859.94 285.76,861.08C283.97,864.04 277.37,867.19 273.74,866.82C270.83,866.52 270.36,867.00 265.08,875.81L259.50,885.12L254.50,884.54C251.75,884.22 246.70,883.68 243.27,883.34L237.05,882.72L231.54,887.42L226.03,892.13L217.27,884.53C206.71,875.38 185.06,860.51 183.99,861.67C180.76,865.16 164.20,959.88 159.02,1004.50C158.38,1010.00 157.30,1019.37 156.62,1025.33L155.37,1036.16L165.94,1044.90C207.40,1079.21 260.42,1109.69 315.50,1130.90C319.90,1132.60 327.55,1135.54 332.50,1137.45C337.45,1139.35 342.27,1140.82 343.22,1140.71C344.16,1140.59 347.31,1138.50 350.22,1136.06ZM452.00,997.20L452.00,972.40L435.73,955.95C424.31,944.40 415.78,934.59 407.11,923.02C400.32,913.95 394.54,905.96 394.27,905.27C393.36,902.89 391.50,904.11 386.00,910.72C382.98,914.36 374.54,923.50 367.25,931.03C359.96,938.57 354.00,945.16 354.00,945.67C354.00,946.19 355.62,948.16 357.60,950.05C362.06,954.32 378.13,974.36 387.50,987.34C393.74,995.98 394.77,996.98 397.00,996.49C398.38,996.18 402.49,995.67 406.15,995.34C419.75,994.12 434.47,1001.44 445.32,1014.82C448.53,1018.77 451.34,1022.00 451.57,1022.00C451.81,1022.00 452.00,1010.84 452.00,997.20ZM255.49,867.02C256.87,864.83 258.00,862.84 258.00,862.59C258.00,862.34 255.60,859.73 252.67,856.80C246.32,850.45 245.02,846.79 247.79,843.07C248.85,841.66 250.48,840.35 251.41,840.17C252.45,839.96 256.35,842.94 261.50,847.88C270.97,856.98 274.35,858.53 277.15,855.06C279.45,852.22 278.66,850.54 271.36,842.82C266.24,837.40 266.00,836.91 266.00,831.73C266.00,825.44 264.30,823.25 258.69,822.34C255.68,821.85 254.73,822.19 252.56,824.53C250.48,826.78 250.00,828.29 250.00,832.65C250.00,836.05 249.58,838.00 248.84,838.00C248.20,838.00 245.61,836.70 243.09,835.11C240.56,833.52 236.74,831.61 234.60,830.86C231.66,829.83 229.26,827.64 224.83,821.94L218.96,814.37L207.47,812.04C201.14,810.75 195.81,809.88 195.62,810.10C194.84,811.01 187.00,839.74 187.00,841.71C187.00,844.43 199.26,855.82 211.50,864.47L220.50,870.83L236.74,870.91L252.97,871.00L255.49,867.02ZM294.89,842.36C300.45,838.47 294.57,823.05 284.84,816.00C277.71,810.83 271.81,812.12 269.02,819.45C268.08,821.91 268.21,822.80 269.80,824.95C272.70,828.84 289.76,844.00 291.24,844.00C291.97,844.00 293.61,843.26 294.89,842.36ZM247.00,813.85C248.38,813.23 251.28,812.61 253.46,812.47C256.85,812.26 257.56,811.80 258.34,809.36C259.60,805.39 263.70,801.25 267.67,799.94C278.20,796.47 296.68,804.49 301.49,814.62C303.91,819.71 306.13,818.78 308.39,811.72C309.42,808.51 306.99,800.44 303.85,796.63C300.63,792.73 291.78,787.73 286.19,786.66C282.48,785.95 275.00,789.07 275.00,791.33C275.00,792.04 274.41,793.42 273.70,794.40C272.48,796.06 271.65,795.77 261.45,790.18C255.43,786.89 245.21,781.57 238.75,778.36C232.29,775.16 227.00,772.06 227.00,771.48C227.00,769.78 235.27,759.00 236.57,759.00C238.68,759.00 240.47,761.93 239.16,763.24C238.52,763.88 238.00,764.72 238.00,765.11C238.00,765.50 241.62,767.68 246.04,769.96C250.47,772.24 256.34,775.43 259.09,777.05C265.03,780.55 265.17,780.57 267.51,777.98C268.52,776.88 271.06,775.69 273.17,775.36C277.72,774.63 278.08,772.91 274.73,767.90C271.68,763.34 261.09,758.23 244.07,753.09C234.43,750.19 230.29,749.34 229.39,750.09C227.02,752.06 214.25,772.47 208.07,784.17C201.04,797.48 200.44,796.04 214.00,798.50C218.68,799.35 223.47,800.26 224.66,800.52C225.85,800.78 229.90,804.80 233.66,809.45C240.10,817.41 240.62,817.82 242.50,816.44C243.60,815.64 245.62,814.47 247.00,813.85ZM294.54,771.68C294.57,766.89 295.24,764.03 297.34,759.74C300.48,753.32 308.30,745.72 313.53,743.99C315.44,743.36 317.00,742.32 316.99,741.67C316.97,739.25 311.04,730.27 307.13,726.74C300.05,720.34 293.71,717.77 282.93,716.92C277.66,716.50 270.69,715.38 267.44,714.44L261.52,712.72L252.14,722.61C241.06,734.30 239.30,736.70 240.73,738.13C241.30,738.70 247.62,740.64 254.77,742.44C277.63,748.21 287.57,756.56 291.09,772.99C292.63,780.14 294.49,779.44 294.54,771.68ZM320.98,719.31C321.00,717.68 318.90,715.73 312.64,711.56C304.09,705.87 301.11,704.95 299.10,707.37C298.19,708.48 299.05,709.28 303.50,711.46C306.55,712.95 311.40,716.33 314.27,718.98C319.58,723.86 320.95,723.93 320.98,719.31ZM614.00,697.98C647.83,696.88 702.73,695.08 736.00,693.99C769.27,692.90 798.19,692.01 800.25,692.00C803.71,692.00 804.00,691.78 804.00,689.13C804.00,684.16 800.05,662.97 796.89,651.00C789.59,623.34 777.42,597.44 756.56,565.20L752.16,558.40L742.83,556.66C734.97,555.20 713.40,552.08 710.68,552.02C710.23,552.01 710.16,554.43 710.53,557.39C711.97,568.89 706.22,579.36 696.94,582.16C690.02,584.25 633.82,583.93 615.00,581.70C574.12,576.85 538.32,567.77 509.65,554.97L498.58,550.03L478.04,559.12C466.74,564.12 457.36,568.34 457.19,568.49C457.02,568.65 459.49,571.19 462.66,574.14C490.40,599.87 517.37,637.58 546.42,691.25C549.03,696.06 551.46,700.00 551.83,700.00C552.20,700.00 580.17,699.09 614.00,697.98ZM633.00,623.37C592.10,619.59 551.73,607.15 525.55,590.26C513.46,582.46 500.97,569.11 502.37,565.47C503.27,563.13 504.76,563.70 509.79,568.33C525.09,582.39 548.62,593.51 577.50,600.33C601.72,606.04 615.04,607.42 646.50,607.46C673.88,607.50 676.00,607.37 684.50,605.13C696.38,602.00 704.25,597.94 711.18,591.38C717.43,585.45 719.65,584.76 720.58,588.45C721.70,592.94 718.12,601.01 712.52,606.61C705.15,613.98 695.69,618.41 680.50,621.60C673.61,623.05 642.21,624.22 633.00,623.37ZM604.28,560.67C603.75,557.90 605.45,556.66 615.50,552.53C644.87,540.46 674.13,523.90 692.54,508.94C724.99,482.56 745.67,441.78 753.43,388.91C758.34,355.47 757.73,324.64 751.40,286.50C747.48,262.91 748.05,264.50 743.47,264.50C738.32,264.50 737.70,261.96 741.79,257.64C745.90,253.32 748.00,248.81 748.71,242.80L749.31,237.70L746.43,238.43C729.08,242.78 706.34,240.77 692.24,233.62C684.11,229.50 681.18,226.32 676.00,216.00C668.93,201.90 663.20,197.60 651.44,197.54C644.59,197.50 644.10,197.67 634.90,203.24C617.23,213.92 604.02,217.60 593.90,214.66C586.76,212.58 580.58,208.39 574.81,201.71C572.18,198.65 568.02,195.24 565.31,193.90C560.95,191.74 559.23,191.52 547.00,191.54C530.81,191.57 526.69,192.86 512.00,202.51C499.95,210.43 493.87,213.48 486.43,215.33C474.73,218.23 469.61,218.26 456.45,215.47C453.45,214.84 453.33,214.97 449.79,222.66C447.80,226.97 445.31,232.53 444.25,235.00C441.70,240.93 437.37,245.95 433.33,247.64C428.13,249.81 421.13,249.34 416.15,246.49C413.75,245.12 411.65,244.00 411.48,244.00C409.93,244.00 402.53,273.43 403.63,275.22C403.90,275.65 413.53,276.00 425.04,276.00L445.95,276.00L447.59,278.50C449.39,281.24 448.87,287.32 446.71,288.71C446.05,289.15 436.05,289.73 424.50,290.00L403.50,290.50L403.20,296.75L402.90,303.00L421.38,303.00C442.31,303.00 443.35,303.33 442.80,309.85C442.33,315.50 440.25,316.06 420.75,315.76C408.98,315.58 404.00,315.83 404.00,316.61C404.00,317.22 404.29,319.81 404.64,322.36L405.27,327.00L421.61,327.00C437.75,327.00 437.97,327.03 439.52,329.39C441.40,332.26 440.61,336.60 437.95,338.03C436.95,338.56 429.80,339.00 422.07,339.00L408.00,339.00L408.00,341.43C408.00,342.77 408.44,345.02 408.98,346.43L409.95,349.00L422.85,349.00C433.11,349.00 436.01,349.31 437.00,350.50C438.67,352.51 438.59,357.01 436.88,358.10C436.12,358.58 430.44,358.98 424.25,358.98C417.19,358.99 413.00,359.38 413.00,360.03C413.00,360.60 413.65,362.62 414.45,364.53C415.88,367.95 415.98,368.00 422.01,368.00C425.38,368.00 429.04,368.49 430.15,369.08C431.79,369.96 435.00,375.47 435.00,377.41C435.00,377.66 432.10,380.34 428.55,383.34C422.52,388.46 421.88,388.76 418.55,388.01C411.48,386.42 405.19,389.12 401.57,395.30C398.14,401.14 397.41,408.79 399.45,417.50C402.85,432.03 408.90,440.84 418.84,445.72C423.97,448.24 425.51,448.50 435.33,448.50C445.84,448.50 446.20,448.57 447.58,451.00C448.36,452.38 448.91,455.10 448.80,457.05C448.69,459.00 449.33,461.64 450.23,462.92C454.12,468.47 479.44,494.18 489.50,502.78C510.50,520.74 537.50,536.81 556.22,542.47C561.02,543.92 565.15,545.44 565.41,545.85C567.50,549.23 558.63,550.43 544.00,548.75L537.50,548.01L541.50,549.48C549.60,552.46 595.35,562.57 602.11,562.88C604.33,562.98 604.66,562.65 604.28,560.67ZM1025.52,551.93C1049.91,545.54 1061.31,532.37 1067.13,503.85L1069.10,494.19L1058.30,477.61C1052.36,468.49 1045.47,457.90 1043.00,454.07C1033.66,439.63 1026.63,429.60 1023.24,425.85C1017.72,419.73 967.02,391.99 961.41,392.01C958.22,392.02 937.49,395.69 921.00,399.15C908.48,401.78 904.99,404.30 905.02,410.67C905.04,417.57 905.69,417.77 916.18,414.18C927.16,410.42 941.00,407.29 950.68,406.39C958.13,405.70 961.00,406.98 961.00,411.00C961.00,413.53 956.58,416.81 952.15,417.58C936.17,420.36 918.23,425.69 911.22,429.75C904.14,433.84 902.12,441.16 906.67,446.18C908.96,448.71 909.99,448.53 918.98,444.01C929.29,438.83 953.32,430.80 957.35,431.20C959.73,431.43 960.70,432.16 961.44,434.30C962.10,436.19 962.08,437.66 961.37,438.80C960.79,439.74 952.48,443.67 942.91,447.54C921.76,456.09 918.01,458.02 914.63,462.03C911.27,466.03 911.30,469.21 914.75,472.97L917.50,475.97L922.69,472.65C929.48,468.31 956.08,456.93 960.98,456.28C964.28,455.83 965.03,456.12 966.51,458.37C969.15,462.41 967.80,465.57 962.23,468.35C959.63,469.65 950.93,473.27 942.90,476.39C927.68,482.31 924.46,484.33 923.38,488.63C921.62,495.65 929.46,501.94 940.00,501.97C947.38,501.99 951.49,500.73 964.66,494.40C982.95,485.61 989.88,486.02 1006.86,496.91C1012.01,500.21 1018.38,503.63 1021.02,504.51C1023.66,505.39 1026.09,506.79 1026.41,507.63C1028.81,513.87 1023.66,534.67 1016.51,547.68C1013.08,553.93 1013.06,554.00 1015.33,554.00C1016.59,554.00 1021.17,553.07 1025.52,551.93ZM986.97,541.21C988.87,540.30 992.09,537.91 994.11,535.89C997.92,532.08 1005.01,520.35 1004.99,517.90C1004.97,516.62 1003.01,515.30 990.56,508.17C985.51,505.28 982.04,505.62 972.39,509.95L965.28,513.14L964.70,520.04C964.38,523.83 963.19,529.03 962.06,531.60C960.93,534.16 960.00,536.59 960.00,537.00C960.00,537.67 971.57,542.10 976.50,543.31C979.11,543.96 982.67,543.24 986.97,541.21ZM867.82,531.71C868.01,530.73 866.11,526.90 863.59,523.21C856.39,512.63 853.72,503.82 853.59,490.18C853.50,480.39 853.24,478.71 851.69,477.85C848.78,476.22 847.21,478.53 846.46,485.56C844.98,499.39 851.20,521.01 859.48,530.80C862.59,534.49 867.20,534.99 867.82,531.71ZM572.00,501.32C538.89,495.93 518.86,487.14 503.00,471.07C494.40,462.35 490.80,454.99 490.25,445.00C489.68,434.75 492.23,429.72 500.04,425.67C508.23,421.42 514.52,422.15 533.00,429.49C550.26,436.35 561.88,439.99 576.61,443.16C586.25,445.23 590.08,445.50 610.00,445.46C629.50,445.43 633.88,445.12 642.84,443.17C654.64,440.61 664.79,437.36 674.23,433.12C680.12,430.48 683.52,428.00 681.26,428.00C679.13,428.00 667.81,419.63 666.98,417.44C665.29,412.99 668.76,408.00 673.55,408.00C675.30,408.00 698.80,423.26 702.70,426.92C704.88,428.97 706.99,434.65 706.99,438.50C706.99,445.50 702.71,452.00 698.12,452.00C694.59,452.00 692.37,449.57 691.47,444.74C691.09,442.67 690.38,440.74 689.91,440.44C689.43,440.15 683.97,441.93 677.77,444.40C655.48,453.28 639.65,456.74 616.90,457.69C590.88,458.77 572.13,455.71 541.00,445.33C525.23,440.07 520.71,438.93 517.38,439.37C512.97,439.96 508.00,441.88 508.00,443.00C508.00,443.37 513.06,446.18 519.25,449.24C535.06,457.05 550.11,461.66 573.00,465.66C587.49,468.20 627.27,468.24 640.44,465.74C648.72,464.16 649.51,464.15 651.19,465.67C653.49,467.75 653.51,471.23 651.25,473.27C646.80,477.28 607.77,480.15 586.00,478.07C560.97,475.66 534.99,469.22 518.06,461.20C513.90,459.23 509.71,457.27 508.75,456.84C505.15,455.25 507.17,458.40 514.25,465.41C530.36,481.38 557.03,489.86 595.48,491.25C602.07,491.49 602.51,491.65 603.41,494.21C604.05,496.05 603.98,497.74 603.20,499.46L602.04,502.00L588.27,501.86C580.70,501.79 573.38,501.54 572.00,501.32ZM470.70,450.22C467.96,447.20 463.95,437.40 463.34,432.24C461.71,418.50 469.77,408.01 489.03,398.79C505.04,391.13 507.34,390.38 510.42,391.78C513.23,393.06 514.55,396.69 513.59,400.50C513.10,402.45 510.78,404.09 502.93,407.98C489.85,414.49 486.59,417.09 483.43,423.55C480.75,429.03 480.56,433.32 482.53,444.10C483.10,447.24 482.83,447.99 480.46,449.85C477.14,452.46 472.87,452.62 470.70,450.22ZM597.00,396.60C592.88,395.96 588.94,395.09 588.25,394.66C585.36,392.86 587.45,389.97 598.06,381.04C604.95,375.24 608.92,371.23 608.59,370.38C603.21,356.35 599.09,335.65 598.33,318.74C597.76,306.36 597.88,304.79 599.51,302.99C601.60,300.68 606.23,300.36 607.92,302.41C608.57,303.18 610.63,311.40 612.50,320.66C615.79,336.93 619.76,350.46 626.01,366.69C630.52,378.40 630.41,378.82 620.32,389.13C610.57,399.10 611.40,398.83 597.00,396.60ZM912.17,384.50C911.63,381.28 910.17,380.40 908.36,382.22C906.17,384.40 907.33,387.23 910.25,386.82C911.87,386.59 912.41,385.94 912.17,384.50ZM195.00,373.26C175.35,372.22 149.04,367.86 138.82,363.95C132.79,361.64 128.00,357.82 128.00,355.33C128.00,350.24 142.11,343.44 155.09,342.26C161.47,341.68 161.70,341.85 162.36,347.68C162.86,352.04 167.92,358.66 170.50,358.31C171.67,358.15 171.92,358.29 171.11,358.65C167.80,360.11 189.08,365.98 206.50,368.42C208.15,368.65 209.72,368.90 210.00,368.97C212.34,369.63 236.10,368.60 246.50,367.40C261.93,365.62 262.28,365.55 272.38,362.23C279.57,359.86 280.64,359.15 284.67,354.07C288.48,349.25 289.00,348.05 288.48,345.16C287.88,341.82 287.88,341.81 291.19,342.52C299.22,344.23 307.27,347.52 310.73,350.51C314.11,353.43 314.38,354.02 313.49,356.51C309.18,368.56 253.89,376.38 195.00,373.26ZM201.00,358.95C190.79,357.72 175.10,354.02 170.43,351.75C165.10,349.16 163.95,347.04 163.53,338.94C163.19,332.61 155.37,271.36 150.50,237.00C147.03,212.46 137.00,132.07 137.00,128.75C137.00,124.62 140.01,122.37 149.45,119.43C154.15,117.96 158.00,116.43 158.00,116.02C158.00,114.88 153.30,92.09 152.01,86.96L150.87,82.42L123.76,77.96C93.28,72.95 92.00,72.46 92.00,65.87C92.00,60.60 93.84,48.09 95.03,45.23C96.59,41.48 100.31,40.73 108.91,42.44C113.08,43.27 129.96,46.21 146.42,48.98C162.87,51.74 176.49,54.16 176.68,54.35C176.87,54.54 179.82,67.86 183.23,83.96L189.43,113.22L196.46,112.51C202.21,111.93 235.01,111.86 255.00,112.38L259.50,112.50L265.74,101.00C270.78,91.71 271.99,88.63 271.99,84.96C272.00,78.89 274.54,69.46 277.54,64.33C287.32,47.65 305.62,44.86 312.75,58.97C314.00,61.43 315.00,65.26 315.00,67.53C315.00,78.13 307.93,90.85 298.03,98.06C293.33,101.49 291.25,103.90 288.48,109.17L284.94,115.91L289.22,116.97C299.91,119.61 304.99,121.42 307.60,123.50L310.42,125.74L309.15,137.62C308.01,148.27 302.58,194.02 292.44,278.50C287.63,318.62 285.92,333.59 285.43,339.95C285.20,342.95 284.76,346.18 284.46,347.13C283.12,351.34 269.05,356.03 250.25,358.53C238.87,360.05 211.95,360.28 201.00,358.95ZM1081.65,354.98C1057.02,353.60 1049.42,351.80 1062.74,350.50C1066.46,350.14 1072.65,348.95 1076.50,347.85C1080.35,346.75 1086.88,345.02 1091.00,343.99C1106.32,340.20 1123.61,334.38 1131.93,330.22C1134.92,328.72 1139.65,325.32 1142.43,322.65L1147.50,317.80L1143.02,318.45C1140.55,318.81 1132.90,320.93 1126.02,323.18C1110.51,328.24 1057.09,346.23 1051.06,348.43C1048.62,349.32 1043.71,350.72 1040.14,351.55L1033.65,353.05L1003.58,347.06C955.51,337.47 918.62,329.99 917.00,329.49C916.17,329.23 914.99,328.21 914.37,327.22C913.67,326.10 912.40,308.25 911.05,280.46C909.84,255.73 908.64,233.66 908.39,231.42L907.93,227.34L892.71,224.52C874.97,221.24 872.30,220.43 870.98,217.96C868.59,213.50 869.79,211.32 881.75,198.29C888.21,191.26 895.21,183.56 897.30,181.19L901.10,176.88L897.80,172.54C895.99,170.16 892.36,165.41 889.75,162.00C887.14,158.59 885.00,154.93 885.00,153.86C885.00,150.07 889.44,147.28 901.53,143.47C910.82,140.54 913.95,139.08 916.21,136.62C918.24,134.42 918.89,132.91 918.43,131.50C916.74,126.36 916.87,122.17 918.84,118.32C921.26,113.58 922.57,112.41 929.89,108.50C935.50,105.50 935.50,105.50 936.77,99.00C938.18,91.75 940.07,88.62 945.09,85.15C948.15,83.04 949.27,82.85 955.93,83.33C960.02,83.63 964.12,83.47 965.05,82.97C965.98,82.48 967.01,80.37 967.35,78.29C969.29,66.50 980.88,61.55 992.58,67.50C996.75,69.63 997.92,69.84 1000.24,68.89C1001.75,68.27 1004.22,68.00 1005.72,68.29C1008.00,68.72 1009.26,67.99 1013.30,63.89C1019.48,57.61 1024.59,55.00 1030.71,55.00C1037.41,55.01 1041.39,57.72 1044.73,64.53C1047.84,70.86 1050.09,71.95 1056.01,70.00C1058.13,69.30 1062.11,68.95 1064.88,69.21C1071.37,69.84 1076.20,73.47 1079.63,80.31C1081.07,83.17 1082.32,85.60 1082.43,85.72C1082.53,85.85 1084.27,85.49 1086.31,84.93C1093.42,82.96 1101.38,88.70 1103.39,97.25C1103.89,99.38 1104.62,100.00 1106.65,100.00C1114.68,100.00 1122.27,105.57 1123.55,112.42C1124.31,116.47 1122.88,116.05 1146.00,119.09C1155.08,120.29 1163.57,121.93 1164.87,122.74C1168.38,124.91 1167.41,128.98 1159.08,146.92C1155.14,155.40 1152.05,163.03 1152.21,163.87C1152.38,164.71 1161.06,172.55 1171.50,181.29C1181.95,190.03 1190.90,198.20 1191.39,199.45C1192.82,203.07 1191.37,206.60 1187.76,208.31C1185.96,209.16 1176.17,212.31 1166.00,215.31C1147.81,220.66 1147.50,220.80 1147.21,223.63C1146.49,230.87 1142.27,315.57 1142.60,316.13C1142.81,316.48 1145.57,317.08 1148.74,317.45C1161.83,319.02 1173.14,323.62 1178.75,329.67C1186.49,338.03 1174.53,346.74 1148.87,351.42C1131.92,354.51 1101.77,356.11 1081.65,354.98ZM657.53,350.89C652.85,346.79 650.50,339.04 651.38,330.62C653.31,312.18 666.83,306.69 673.97,321.45C676.93,327.56 676.98,340.15 674.07,345.86C669.77,354.29 663.56,356.18 657.53,350.89ZM499.90,347.74C490.56,341.53 489.06,323.37 497.05,313.21C502.57,306.19 510.53,304.89 516.40,310.05C521.33,314.38 523.38,320.38 522.78,328.75C521.64,344.75 509.97,354.43 499.90,347.74ZM242.67,345.02C256.55,343.76 270.74,340.36 272.01,337.98C272.55,336.96 273.00,334.47 273.00,332.45C273.00,329.11 272.79,328.83 270.75,329.41C254.65,334.00 246.35,335.00 224.53,334.99C207.52,334.99 193.93,333.53 183.00,330.53C179.97,329.70 177.16,329.02 176.75,329.01C175.40,328.99 175.95,337.71 177.37,338.89C178.13,339.52 182.89,340.94 187.96,342.05C204.56,345.67 223.84,346.71 242.67,345.02ZM1029.22,274.25C1029.37,239.74 1029.34,210.93 1029.14,210.24C1028.94,209.55 1025.56,213.64 1021.64,219.34C1008.22,238.81 1003.50,244.97 1002.00,244.97C1001.17,244.97 987.23,242.50 971.00,239.49C954.77,236.47 937.55,233.27 932.72,232.37C927.89,231.47 923.70,230.97 923.40,231.26C922.91,231.76 923.64,249.97 926.04,296.97C926.59,307.67 927.36,316.72 927.77,317.07C928.17,317.42 947.17,321.35 970.00,325.80C992.83,330.25 1014.65,334.53 1018.50,335.31C1022.35,336.09 1026.27,336.79 1027.22,336.87C1028.83,336.99 1028.96,332.89 1029.22,274.25ZM959.00,318.50C931.32,312.80 933.00,313.28 933.00,311.10C933.00,307.31 935.02,307.07 947.00,309.47C953.33,310.73 965.16,313.02 973.30,314.55C988.02,317.31 988.10,317.34 987.80,319.91C987.55,322.10 986.95,322.53 984.00,322.72C982.08,322.83 970.83,320.94 959.00,318.50ZM185.64,307.00C186.56,305.00 186.23,300.60 183.96,285.00C176.18,231.55 174.06,216.73 172.94,208.00C172.24,202.55 171.08,197.75 170.21,196.75C168.00,194.20 163.37,194.51 161.52,197.32C160.14,199.44 160.35,202.05 164.03,227.07C175.85,307.58 175.57,305.86 177.51,308.01C180.03,310.80 184.12,310.29 185.64,307.00ZM945.63,301.53C939.10,300.26 933.40,298.65 932.97,297.95C931.81,296.07 933.44,292.54 935.61,292.24C936.65,292.10 942.86,293.01 949.41,294.27C962.02,296.68 964.63,298.19 962.39,301.75C960.86,304.19 959.12,304.17 945.63,301.53ZM686.69,283.43C680.25,275.87 672.64,268.88 669.36,267.51C666.64,266.37 666.00,265.55 666.00,263.21C666.00,257.31 672.33,255.05 679.07,258.54C686.32,262.29 698.00,275.25 698.00,279.54C698.00,282.32 695.25,285.61 692.19,286.50C690.33,287.04 689.25,286.44 686.69,283.43ZM946.50,283.05C935.44,280.79 933.46,280.11 933.24,278.45C932.63,273.74 933.98,273.50 947.17,275.93C962.93,278.84 964.43,279.31 964.83,281.38C965.26,283.59 963.22,286.04 961.13,285.85C960.23,285.77 953.65,284.51 946.50,283.05ZM482.65,271.55C476.65,265.99 480.87,257.88 494.34,249.10C502.01,244.11 510.28,241.17 518.94,240.37C524.68,239.84 525.72,240.02 527.29,241.76C528.28,242.86 529.33,245.28 529.64,247.15C530.49,252.39 527.92,254.72 518.79,256.99C509.16,259.40 503.98,262.01 498.11,267.45C490.26,274.72 487.00,275.58 482.65,271.55ZM771.31,243.51C783.57,240.31 795.28,231.56 801.82,220.69C804.93,215.52 810.48,201.14 809.67,200.34C809.47,200.14 806.87,201.08 803.90,202.44C796.36,205.89 785.68,207.41 778.44,206.07C768.79,204.29 768.67,203.89 772.50,186.71C775.09,175.12 778.22,155.88 777.62,155.28C777.43,155.09 774.45,157.70 771.00,161.08C763.65,168.27 752.27,175.95 744.21,179.16C739.64,180.98 736.50,181.44 728.48,181.46C719.14,181.50 718.01,181.28 711.79,178.22C703.94,174.35 701.33,171.34 693.66,157.30C685.07,141.55 680.43,134.67 674.97,129.57C668.26,123.29 663.05,121.05 655.14,121.02C647.39,121.00 641.23,123.96 630.06,133.09C617.07,143.70 607.38,147.41 593.00,147.26C581.47,147.14 573.22,144.79 563.98,139.00C552.71,131.92 549.15,130.56 541.97,130.58C531.30,130.62 522.10,136.67 512.63,149.87C510.91,152.28 505.90,157.13 501.51,160.65C481.18,176.93 454.95,184.37 434.67,179.60C430.41,178.59 428.74,178.53 428.43,179.36C428.19,179.99 427.60,184.46 427.12,189.30C426.64,194.14 425.93,198.40 425.55,198.78C423.83,200.50 415.85,185.93 413.89,177.50C411.97,169.25 412.06,169.36 410.02,172.72C403.91,182.77 401.02,206.60 404.46,218.59C407.94,230.72 413.99,237.05 420.53,235.40C424.81,234.33 429.50,227.71 431.98,219.23C435.17,208.36 438.77,201.06 441.59,199.78C443.40,198.95 445.77,199.12 451.58,200.49C466.03,203.89 478.11,201.29 495.47,191.03C515.40,179.25 526.09,175.87 543.50,175.84C561.46,175.81 575.01,181.22 584.17,192.09C589.46,198.37 594.52,200.37 603.76,199.84C611.10,199.43 610.88,199.53 634.04,185.44C646.46,177.89 651.78,175.38 658.28,174.04C668.85,171.86 678.98,175.63 687.00,184.73C691.97,190.37 693.18,192.58 696.61,202.22C700.82,214.07 703.46,217.86 709.36,220.57C720.79,225.80 737.10,227.37 748.13,224.30L754.23,222.61L757.05,226.05C760.49,230.26 762.46,236.80 761.69,241.50C761.19,244.62 761.37,245.00 763.35,245.00C764.58,245.00 768.16,244.33 771.31,243.51ZM1009.00,215.69C1014.77,207.88 1019.50,201.09 1019.50,200.60C1019.50,199.75 1003.50,196.78 973.50,192.05C966.35,190.92 950.16,188.22 937.53,186.05C924.90,183.88 914.50,182.19 914.43,182.30C914.36,182.41 908.79,188.53 902.06,195.91C893.38,205.42 890.21,209.53 891.16,210.04C891.90,210.43 908.92,213.78 929.00,217.47C949.08,221.17 972.02,225.45 980.00,227.00C987.98,228.54 995.40,229.82 996.50,229.84C997.93,229.87 1001.49,225.84 1009.00,215.69ZM1094.00,221.49C1131.81,210.97 1170.01,199.54 1169.77,198.82C1169.27,197.30 1142.53,175.03 1141.19,175.02C1140.47,175.01 1127.19,178.11 1111.69,181.92C1096.19,185.72 1075.62,190.72 1066.00,193.04C1056.38,195.35 1047.89,197.57 1047.14,197.97C1045.73,198.73 1047.00,199.95 1067.50,217.35C1075.79,224.39 1077.93,225.74 1080.00,225.27C1081.38,224.95 1087.67,223.25 1094.00,221.49ZM1033.20,186.75C1034.07,186.06 1035.97,183.57 1037.43,181.21C1040.49,176.25 1042.00,176.50 1042.00,181.97L1042.00,185.82L1046.91,184.52C1053.41,182.81 1054.00,182.36 1054.00,179.14C1054.00,175.93 1055.62,174.00 1058.33,174.00C1060.01,174.00 1060.18,174.50 1059.63,177.91L1059.01,181.81L1062.25,180.91C1065.21,180.09 1099.02,172.08 1113.50,168.77L1119.50,167.39L1116.54,165.45C1114.84,164.33 1111.86,163.50 1109.56,163.50C1104.47,163.50 1103.28,160.61 1107.68,158.92C1112.48,157.06 1118.75,158.36 1122.49,161.99C1125.51,164.92 1126.19,165.14 1129.97,164.51C1135.43,163.58 1136.67,160.74 1134.97,153.03C1134.11,149.13 1132.78,146.58 1130.37,144.17C1127.21,141.01 1126.66,140.82 1122.49,141.45L1118.00,142.12L1118.00,138.31C1117.99,131.29 1113.02,126.00 1106.43,126.00C1103.17,126.00 1103.37,124.81 1106.99,122.66C1110.73,120.46 1112.35,117.53 1111.57,114.41C1110.73,111.08 1106.20,111.21 1099.92,114.74C1095.37,117.30 1094.94,117.37 1093.38,115.80C1091.91,114.34 1091.86,113.58 1092.95,109.67C1095.98,98.85 1089.26,92.79 1084.48,102.03C1082.38,106.10 1080.00,105.93 1080.00,101.72C1080.00,94.51 1072.53,90.23 1062.01,91.42C1056.92,92.00 1056.00,91.86 1056.00,90.52C1056.00,88.47 1060.01,87.00 1065.60,87.00C1069.80,87.00 1070.00,86.87 1068.97,84.95C1067.14,81.53 1063.50,80.43 1058.69,81.87C1050.43,84.33 1050.09,84.32 1043.60,81.12C1040.11,79.41 1036.78,78.00 1036.21,78.00C1035.64,78.00 1033.62,79.87 1031.72,82.15C1027.97,86.66 1025.57,86.68 1026.63,82.19C1026.98,80.71 1027.85,78.82 1028.56,78.00C1031.43,74.67 1032.01,71.24 1030.10,68.88L1028.29,66.64L1024.91,68.62C1019.96,71.51 1015.00,78.45 1015.00,82.49C1015.00,86.83 1019.66,91.00 1024.52,91.00C1028.67,91.00 1029.75,92.51 1027.44,95.06C1023.02,99.95 1013.52,95.63 1010.95,87.55C1010.07,84.80 1008.38,82.00 1007.08,81.14C1004.86,79.67 1004.59,79.78 1000.86,83.78C998.71,86.09 996.68,89.33 996.35,90.98C995.62,94.63 993.28,94.95 992.42,91.53C992.01,89.90 992.51,87.91 993.90,85.66C995.05,83.79 996.00,81.96 996.00,81.58C996.00,80.42 983.13,74.80 982.03,75.48C980.37,76.51 980.83,79.38 983.43,84.27C985.68,88.50 985.95,93.00 983.97,93.00C983.53,93.00 982.34,91.34 981.33,89.30C978.94,84.49 977.22,84.06 975.87,87.95C973.86,93.71 964.30,96.75 954.84,94.63C951.68,93.92 951.02,94.10 950.06,95.90C948.49,98.83 950.98,103.30 956.06,106.66C961.18,110.05 960.64,111.57 954.44,111.24C951.78,111.09 948.04,111.49 946.12,112.12C940.70,113.92 931.15,119.85 929.88,122.22C928.22,125.32 931.81,128.00 937.61,128.00C942.40,128.00 942.62,128.30 940.50,132.00C939.71,133.38 939.05,136.19 939.04,138.25C939.01,141.31 938.64,142.00 937.02,142.00C935.74,142.00 934.82,141.11 934.41,139.50C933.64,136.45 932.30,136.39 928.88,139.29C924.75,142.77 923.69,145.68 924.38,151.58C924.99,156.75 924.95,156.85 922.13,157.47C919.27,158.10 915.00,161.35 915.00,162.90C915.00,164.36 919.10,169.00 920.39,169.00C921.07,169.00 922.36,167.46 923.26,165.59C924.96,162.01 928.49,160.09 930.20,161.80C930.87,162.47 930.46,163.81 928.97,165.83C925.57,170.42 926.70,171.48 936.52,172.95C945.96,174.35 946.95,174.01 946.98,169.33C947.01,166.14 948.03,164.00 949.54,164.00C951.69,164.00 952.20,167.59 950.60,171.42C949.16,174.86 949.19,175.01 951.30,175.45C953.49,175.91 990.57,182.00 991.18,182.00C991.36,182.00 991.35,179.83 991.17,177.17C990.69,170.39 992.86,165.77 997.56,163.54C1002.81,161.05 1008.50,162.32 1008.50,166.00C1008.50,168.29 1008.18,168.47 1004.67,168.16C998.92,167.66 997.00,169.90 997.00,177.15C997.00,180.37 997.19,183.00 997.41,183.00C997.64,183.00 1001.35,183.67 1005.66,184.50C1009.97,185.32 1013.61,186.00 1013.75,186.00C1013.89,186.00 1014.00,183.61 1014.00,180.69C1014.00,176.13 1014.41,174.98 1016.89,172.61C1020.23,169.40 1027.08,167.99 1029.50,170.00C1031.52,171.67 1029.51,174.30 1026.86,173.46C1021.68,171.81 1017.86,176.90 1020.48,181.96C1021.29,183.53 1022.67,185.53 1023.55,186.41C1025.45,188.31 1030.98,188.50 1033.20,186.75ZM255.50,183.53C269.88,181.94 287.46,177.98 289.54,175.86C290.90,174.47 294.88,145.55 293.84,144.51C293.54,144.21 290.19,144.61 286.40,145.41C269.67,148.91 247.62,150.25 215.50,149.72C185.93,149.23 171.89,147.98 155.75,144.38C153.24,143.82 153.00,144.02 153.05,146.63C153.17,154.40 156.80,176.26 158.10,177.07C160.43,178.52 176.87,182.11 187.50,183.48C201.34,185.27 239.46,185.30 255.50,183.53ZM967.03,172.73C963.19,171.37 959.00,165.98 959.00,162.41C959.00,158.61 960.92,158.61 964.61,162.41C968.31,166.22 972.30,167.08 975.88,164.84C978.50,163.21 981.00,164.48 981.00,167.45C981.00,172.10 973.38,174.98 967.03,172.73ZM1080.73,173.40C1080.39,173.05 1081.04,171.52 1082.17,169.98C1084.24,167.18 1084.32,163.99 1082.47,158.17C1081.80,156.06 1082.00,155.87 1084.56,156.17C1088.79,156.66 1091.55,161.80 1090.05,166.36C1089.43,168.23 1088.15,170.43 1087.21,171.26C1085.14,173.08 1081.59,174.25 1080.73,173.40ZM1043.36,171.50C1040.61,164.32 1054.97,155.87 1063.71,159.52C1066.55,160.71 1070.99,166.04 1071.00,168.28C1071.01,170.44 1067.61,170.06 1065.37,167.64C1060.99,162.92 1052.75,164.35 1047.68,170.71C1045.56,173.37 1044.17,173.62 1043.36,171.50ZM908.01,162.25C908.01,160.74 908.69,158.20 909.52,156.60C910.36,155.01 910.81,153.48 910.54,153.21C909.97,152.64 901.00,155.90 901.00,156.67C901.00,157.64 906.50,164.96 907.25,164.98C907.66,164.99 908.00,163.76 908.01,162.25ZM1028.02,162.72C1025.07,161.22 1023.04,157.56 1023.01,153.70C1023.00,150.44 1026.96,146.00 1029.90,146.00C1032.99,146.00 1033.26,147.65 1030.51,149.81C1027.45,152.22 1027.30,154.55 1030.09,156.05C1033.28,157.75 1036.45,156.43 1038.56,152.52C1040.62,148.70 1041.74,148.15 1042.65,150.52C1044.08,154.27 1036.87,164.01 1032.67,163.99C1031.48,163.98 1029.38,163.41 1028.02,162.72ZM938.50,159.83C934.65,157.70 932.00,154.63 932.00,152.29C932.00,149.71 935.10,147.80 935.82,149.95C936.70,152.60 940.08,155.00 942.94,155.00C946.80,155.00 947.56,156.44 945.04,158.96C942.74,161.26 941.40,161.43 938.50,159.83ZM977.06,158.57C975.35,156.51 978.07,152.72 982.77,150.60C987.43,148.51 994.29,149.54 994.84,152.42C995.34,155.01 993.12,156.12 988.79,155.43C985.68,154.93 984.65,155.26 982.49,157.42C979.53,160.38 978.71,160.56 977.06,158.57ZM1124.46,154.72C1123.84,153.32 1121.88,152.09 1118.93,151.27C1113.67,149.79 1110.00,146.79 1110.00,143.96C1110.00,141.45 1110.35,141.49 1114.79,144.50C1116.81,145.88 1119.68,147.00 1121.16,147.00C1122.88,147.00 1124.60,147.95 1125.93,149.63C1128.32,152.67 1128.53,154.32 1126.71,155.82C1125.75,156.62 1125.18,156.34 1124.46,154.72ZM1096.48,153.61C1093.81,149.53 1093.57,144.76 1095.82,140.35C1098.72,134.67 1100.66,133.23 1102.68,135.25C1104.12,136.69 1104.07,137.23 1102.09,141.31C1100.02,145.60 1100.00,145.92 1101.61,149.30C1102.53,151.23 1103.01,153.53 1102.67,154.41C1101.76,156.78 1098.26,156.33 1096.48,153.61ZM1004.31,151.35C1002.23,148.18 1002.32,140.69 1004.47,137.40C1007.08,133.43 1008.50,134.96 1008.50,141.75C1008.50,145.08 1008.84,148.15 1009.25,148.57C1010.71,150.06 1009.97,152.77 1007.97,153.30C1006.54,153.67 1005.45,153.09 1004.31,151.35ZM952.42,151.14C950.73,150.09 948.55,147.58 947.59,145.56C945.99,142.17 945.97,141.69 947.45,139.44C948.33,138.10 949.43,137.00 949.90,137.00C951.28,137.00 952.78,139.31 953.15,142.00C953.39,143.73 954.67,145.07 957.31,146.36C960.20,147.77 961.04,148.73 960.81,150.36C960.40,153.23 956.40,153.60 952.42,151.14ZM1068.54,151.65C1066.32,150.03 1067.39,147.67 1069.97,148.49C1072.75,149.37 1076.78,147.04 1079.01,143.26C1081.33,139.33 1083.35,139.40 1083.83,143.43C1084.24,146.97 1080.91,150.65 1076.07,152.00C1071.42,153.29 1070.74,153.26 1068.54,151.65ZM961.35,144.48C960.67,142.70 962.50,137.91 965.15,134.54C967.73,131.26 972.56,130.29 975.07,132.56C978.11,135.31 977.38,136.91 972.50,138.21C969.49,139.02 968.00,139.96 968.00,141.05C968.00,142.90 964.96,146.00 963.14,146.00C962.48,146.00 961.68,145.32 961.35,144.48ZM1150.95,134.41C1151.00,133.30 1130.22,129.44 1129.27,130.39C1128.99,130.68 1131.20,132.00 1134.20,133.32C1139.88,135.84 1143.60,139.57 1144.67,143.83C1145.25,146.15 1145.50,145.94 1148.10,140.91C1149.64,137.94 1150.93,135.01 1150.95,134.41ZM986.03,141.59C983.76,135.61 990.18,126.65 997.99,124.89C1006.00,123.09 1009.16,126.94 1001.76,129.48C995.49,131.63 993.18,133.73 991.31,138.99C989.37,144.44 987.47,145.37 986.03,141.59ZM1047.36,142.50C1046.35,139.86 1047.86,137.95 1052.63,135.84C1061.90,131.74 1075.12,135.17 1072.07,140.88C1070.80,143.25 1069.39,143.48 1065.44,141.98C1063.45,141.22 1061.17,141.35 1056.79,142.48C1049.37,144.38 1048.08,144.38 1047.36,142.50ZM1020.60,138.75C1018.89,136.11 1017.42,129.00 1018.57,129.00C1019.01,129.00 1020.39,129.95 1021.63,131.12L1023.88,133.24L1027.19,131.20C1034.35,126.80 1043.00,127.81 1043.00,133.05C1043.00,135.44 1040.34,136.74 1038.73,135.13C1036.67,133.07 1033.05,133.96 1029.13,137.50C1024.62,141.57 1022.61,141.87 1020.60,138.75ZM254.46,136.14L263.42,135.50L266.82,129.50C268.68,126.20 273.62,116.97 277.79,109.00C283.79,97.54 286.78,93.03 292.06,87.50C299.29,79.94 301.44,76.49 302.52,70.72C303.96,63.05 301.40,59.97 295.58,62.40C289.08,65.12 284.93,73.08 283.08,86.40C282.15,93.05 281.05,95.66 273.23,109.65L264.42,125.40L254.46,124.95C234.51,124.05 194.09,124.51 192.94,125.66C192.20,126.40 192.12,128.19 192.69,131.13L193.55,135.50L200.03,136.08C209.02,136.88 243.64,136.92 254.46,136.14ZM181.74,133.75C181.27,132.53 177.74,116.94 170.11,82.50L166.35,65.50L135.92,60.37C119.19,57.55 105.39,55.33 105.26,55.44C105.13,55.55 104.75,57.01 104.42,58.67C103.71,62.22 101.12,61.53 138.00,67.60C150.38,69.64 160.60,71.38 160.72,71.46C160.95,71.62 167.66,102.45 172.10,123.75L174.45,135.00L178.33,135.00C181.02,135.00 182.07,134.62 181.74,133.75ZM287.06,132.42C290.89,131.55 293.80,130.49 293.54,130.06C293.27,129.63 291.02,129.00 288.53,128.66C286.04,128.32 282.91,127.76 281.57,127.43C279.58,126.93 278.86,127.37 277.57,129.86C276.71,131.53 276.00,133.15 276.00,133.45C276.00,134.41 279.90,134.05 287.06,132.42ZM162.23,130.45C161.80,128.18 161.40,127.97 158.62,128.52C151.60,129.93 151.24,130.29 155.50,131.61C161.79,133.56 162.80,133.38 162.23,130.45ZM1078.08,129.41C1075.52,127.26 1075.00,126.09 1075.00,122.55C1075.00,117.72 1077.97,113.00 1081.01,113.00C1084.00,113.00 1084.39,114.95 1081.94,117.56C1079.99,119.64 1079.83,120.33 1080.83,122.52C1082.26,125.66 1084.68,126.68 1087.12,125.16C1089.89,123.43 1092.00,123.76 1092.00,125.92C1092.00,128.10 1086.36,132.00 1083.21,132.00C1082.08,132.00 1079.77,130.83 1078.08,129.41ZM1060.19,127.12C1058.67,122.76 1055.88,121.61 1051.37,123.49C1047.02,125.31 1046.27,124.89 1047.83,121.48C1051.47,113.48 1067.35,118.44 1064.44,126.67C1063.12,130.42 1061.41,130.60 1060.19,127.12ZM967.79,125.94C966.85,125.39 965.62,123.28 965.06,121.26C963.66,116.19 966.26,110.64 970.25,110.18C973.36,109.83 973.68,110.46 971.50,112.64C969.81,114.34 969.43,122.53 971.00,123.50C972.43,124.38 972.24,127.01 970.75,126.97C970.06,126.95 968.73,126.49 967.79,125.94ZM949.04,122.90C947.31,121.45 945.74,121.00 943.79,121.39C940.59,122.03 940.06,120.57 942.93,119.04C947.79,116.44 955.58,118.74 954.85,122.55C954.34,125.21 951.97,125.35 949.04,122.90ZM1025.00,121.03C1025.00,117.88 1019.62,115.66 1013.84,116.43C1009.82,116.96 1009.00,116.80 1009.00,115.48C1009.00,112.12 1020.58,109.63 1025.06,112.03C1026.68,112.90 1030.00,117.83 1030.00,119.38C1030.00,120.23 1026.89,123.00 1025.93,123.00C1025.42,123.00 1025.00,122.11 1025.00,121.03ZM981.81,118.48C980.77,116.19 980.93,115.20 982.97,111.35C986.94,103.87 996.52,99.72 1004.72,101.93C1009.86,103.31 1011.77,105.37 1009.94,107.57C1008.93,108.79 1007.57,108.99 1003.86,108.48C995.43,107.32 988.52,111.21 987.83,117.50C987.37,121.65 983.54,122.27 981.81,118.48ZM1034.81,108.70C1031.36,104.60 1031.19,104.53 1027.95,105.73C1024.20,107.13 1023.69,106.97 1024.58,104.66C1025.30,102.78 1031.37,100.84 1033.82,101.71C1037.09,102.86 1040.00,106.35 1040.00,109.12C1040.00,113.38 1038.67,113.28 1034.81,108.70ZM1046.67,112.34C1045.14,110.81 1046.17,107.01 1048.64,105.07C1051.61,102.74 1059.95,100.00 1064.11,100.00C1067.98,100.00 1070.32,102.53 1068.90,105.18C1067.98,106.90 1067.19,107.13 1063.85,106.59C1059.85,105.95 1054.37,107.80 1049.42,111.47C1048.28,112.32 1047.04,112.71 1046.67,112.34ZM976.13,101.91C973.32,99.63 969.75,99.46 966.71,101.46C965.23,102.43 963.98,102.60 962.99,101.99C960.72,100.58 965.68,96.09 970.35,95.33C973.55,94.81 974.53,95.14 977.05,97.55C981.51,101.82 980.71,105.62 976.13,101.91ZM1042.03,96.63C1039.38,95.76 1038.23,94.60 1037.12,91.66C1035.86,88.36 1035.86,87.70 1037.08,86.93C1039.14,85.62 1039.33,85.72 1041.20,89.01C1042.60,91.47 1043.55,92.00 1046.52,92.00C1049.65,92.00 1050.10,92.29 1049.82,94.14C1049.39,97.00 1046.25,98.01 1042.03,96.63Z"/></svg>